{
.appVersion = "1057";
copyright = "Copyright 2017 Google Inc. All Rights Reserved.";
customParameters = (
{
name = glyphOrder;
value = (
.notdef,
NULL,
CR,
space,
hyphen,
uni00A0,
uni0300,
uni0301,
uni0302,
uni0304,
uni0305,
uni0307,
uni0308,
uni0323,
uni033F,
uni0361,
uni0374,
uni0375,
uni03E2,
uni03E3,
uni03E4,
uni03E5,
uni03E6,
uni03E7,
uni03E8,
uni03E9,
uni03EA,
uni03EB,
uni03EC,
uni03ED,
uni03EE,
uni03EF,
uni1DCD,
uni2E17,
uni2C80,
uni2C81,
uni2C82,
uni2C83,
uni2C84,
uni2C85,
uni2C86,
uni2C87,
uni2C88,
uni2C89,
uni2C8A,
uni2C8B,
uni2C8C,
uni2C8D,
uni2C8E,
uni2C8F,
uni2C90,
uni2C91,
uni2C92,
uni2C93,
uni2C94,
uni2C95,
uni2C96,
uni2C97,
uni2C98,
uni2C99,
uni2C9A,
uni2C9B,
uni2C9C,
uni2C9D,
uni2C9E,
uni2C9F,
uni2CA0,
uni2CA1,
uni2CA2,
uni2CA3,
uni2CA4,
uni2CA5,
uni2CA6,
uni2CA7,
uni2CA8,
uni2CA9,
uni2CAA,
uni2CAB,
uni2CAC,
uni2CAD,
uni2CAE,
uni2CAF,
uni2CB0,
uni2CB1,
uni2CB2,
uni2CB3,
uni2CB4,
uni2CB5,
uni2CB6,
uni2CB7,
uni2CB8,
uni2CB9,
uni2CBA,
uni2CBB,
uni2CBC,
uni2CBD,
uni2CBE,
uni2CBF,
uni2CC0,
uni2CC1,
uni2CC2,
uni2CC3,
uni2CC4,
uni2CC5,
uni2CC6,
uni2CC7,
uni2CC8,
uni2CC9,
uni2CCA,
uni2CCB,
uni2CCC,
uni2CCD,
uni2CCE,
uni2CCF,
uni2CD0,
uni2CD1,
uni2CD2,
uni2CD3,
uni2CD4,
uni2CD5,
uni2CD6,
uni2CD7,
uni2CD8,
uni2CD9,
uni2CDA,
uni2CDB,
uni2CDC,
uni2CDD,
uni2CDE,
uni2CDF,
uni2CE0,
uni2CE1,
uni2CE2,
uni2CE3,
uni2CE4,
uni2CE5,
uni2CE6,
uni2CE7,
uni2CE8,
uni2CE9,
uni2CEA,
uni2CEB,
uni2CEC,
uni2CED,
uni2CEE,
uni2CEF,
uni2CF0,
uni2CF1,
uni2CF2,
uni2CF3,
uni2CF9,
uni2CFA,
uni2CFB,
uni2CFC,
uni2CFD,
uni2CFE,
uni2CFF,
uniFE24,
uniFE25,
uniFE26,
u102E0,
u102E1,
u102E2,
u102E3,
u102E4,
u102E5,
u102E6,
u102E7,
u102E8,
u102E9,
u102EA,
u102EB,
u102EC,
u102ED,
u102EE,
u102EF,
u102F0,
u102F1,
u102F2,
u102F3,
u102F4,
u102F5,
u102F6,
u102F7,
u102F8,
u102F9,
u102FA,
u102FB,
uni2010,
uni25CC,
uni0305_small,
uni0305_medium,
uni0305_large,
uni0305_xlarge,
uni0305_xxlarge,
uni0305_small.cap,
uni0305_medium.cap,
uni0305_large.cap,
uni0305_xlarge.cap,
uni0305_xxlarge.cap,

glyphs = (
{
glyphname = .notdef;
lastChange = "2017-09-06 19:51:29 +0000";
layers = (
{
layerId = UUID0;
paths = (
{
closed = 1;
nodes = (
"505 0 LINE",
"505 714 LINE",
"94 714 LINE",
"94 0 LINE"
);
},
{
closed = 1;
nodes = (
"145 663 LINE",
"454 663 LINE",
"454 51 LINE",
"145 51 LINE"
);
}
);
width = 600;
}
);
},
{
glyphname = hyphen;
lastChange = "2017-09-06 19:51:29 +0000";
layers = (
{
layerId = UUID0;
paths = (
{
closed = 1;
nodes = (
"282 229 LINE",
"282 307 LINE",
"40 307 LINE",
"40 229 LINE"
);
}
);
width = 322;
}
);
unicode = 002D;
},
{
glyphname = uni0300;
lastChange = "2017-09-06 19:51:29 +0000";
layers = (
{
layerId = UUID0;
paths = (
{
closed = 1;
nodes = (
"-262 606 LINE",
"-262 618 LINE",
"-293 655 OFFCURVE",
"-336 721 OFFCURVE",
"-358 766 CURVE",
"-463 766 LINE",
"-463 756 LINE",
"-440 719 OFFCURVE",
"-367 642 OFFCURVE",
"-321 606 CURVE"
);
}
);
width = 0;
}
);
unicode = 0300;
},
{
glyphname = uni0301;
lastChange = "2017-09-06 19:51:29 +0000";
layers = (
{
layerId = UUID0;
paths = (
{
closed = 1;
nodes = (
"-314 606 LINE",
"-267 642 OFFCURVE",
"-196 719 OFFCURVE",
"-171 756 CURVE",
"-171 766 LINE",
"-277 766 LINE",
"-300 721 OFFCURVE",
"-343 655 OFFCURVE",
"-372 618 CURVE",
"-372 606 LINE"
);
}
);
width = 0;
}
);
unicode = 0301;
},
{
glyphname = uni0302;
lastChange = "2017-09-06 19:51:29 +0000";
layers = (
{
layerId = UUID0;
paths = (
{
closed = 1;
nodes = (
"-109 606 LINE",
"-74 628 OFFCURVE",
"-38 660 OFFCURVE",
"-2 696 CURVE",
"34 660 OFFCURVE",
"72 627 OFFCURVE",
"107 606 CURVE",
"169 606 LINE",
"169 617 LINE",
"131 655 OFFCURVE",
"68 721 OFFCURVE",
"44 766 CURVE",
"-46 766 LINE",
"-72 721 OFFCURVE",
"-132 656 OFFCURVE",
"-169 617 CURVE",
"-169 606 LINE"
);
}
);
width = 0;
}
);
unicode = 0302;
},
{
glyphname = uni0304;
lastChange = "2017-09-06 19:51:29 +0000";
layers = (
{
layerId = UUID0;
paths = (
{
closed = 1;
nodes = (
"-176 606 LINE",
"-176 677 LINE",
"-473 677 LINE",
"-473 606 LINE"
);
}
);
width = 0;
}
);
unicode = 0304;
},
{
glyphname = uni0305;
lastChange = "2017-09-06 19:51:29 +0000";
layers = (
{
layerId = UUID0;
paths = (
{
closed = 1;
nodes = (
"313 831 LINE",
"313 877 LINE",
"-313 877 LINE",
"-313 831 LINE"
);
}
);
width = 0;
}
);
unicode = 0305;
},
{
glyphname = uni0307;
lastChange = "2017-09-06 19:51:29 +0000";
layers = (
{
layerId = UUID0;
paths = (
{
closed = 1;
nodes = (
"27 625 OFFCURVE",
"51 643 OFFCURVE",
"51 681 CURVE SMOOTH",
"51 720 OFFCURVE",
"27 737 OFFCURVE",
"0 737 CURVE SMOOTH",
"-29 737 OFFCURVE",
"-52 720 OFFCURVE",
"-52 681 CURVE SMOOTH",
"-52 643 OFFCURVE",
"-29 625 OFFCURVE",
"0 625 CURVE SMOOTH"
);
}
);
width = 0;
}
);
unicode = 0307;
},
{
glyphname = uni0308;
lastChange = "2017-09-06 19:51:29 +0000";
layers = (
{
layerId = UUID0;
paths = (
{
closed = 1;
nodes = (
"-198 631 OFFCURVE",
"-176 647 OFFCURVE",
"-176 681 CURVE SMOOTH",
"-176 716 OFFCURVE",
"-198 730 OFFCURVE",
"-223 730 CURVE SMOOTH",
"-249 730 OFFCURVE",
"-270 716 OFFCURVE",
"-270 681 CURVE SMOOTH",
"-270 647 OFFCURVE",
"-249 631 OFFCURVE",
"-223 631 CURVE SMOOTH"
);
},
{
closed = 1;
nodes = (
"-11 631 OFFCURVE",
"11 647 OFFCURVE",
"11 681 CURVE SMOOTH",
"11 716 OFFCURVE",
"-11 730 OFFCURVE",
"-36 730 CURVE SMOOTH",
"-61 730 OFFCURVE",
"-82 716 OFFCURVE",
"-82 681 CURVE SMOOTH",
"-82 647 OFFCURVE",
"-61 631 OFFCURVE",
"-36 631 CURVE SMOOTH"
);
}
);
width = 0;
}
);
unicode = 0308;
},
{
glyphname = uni0323;
lastChange = "2017-09-06 19:51:29 +0000";
layers = (
{
layerId = UUID0;
paths = (
{
closed = 1;
nodes = (
"0 -143 OFFCURVE",
"24 -161 OFFCURVE",
"52 -161 CURVE SMOOTH",
"80 -161 OFFCURVE",
"104 -143 OFFCURVE",
"104 -105 CURVE SMOOTH",
"104 -66 OFFCURVE",
"80 -49 OFFCURVE",
"52 -49 CURVE SMOOTH",
"24 -49 OFFCURVE",
"0 -66 OFFCURVE",
"0 -105 CURVE SMOOTH"
);
}
);
width = 0;
}
);
unicode = 0323;
},
{
glyphname = uni033F;
lastChange = "2017-09-06 19:51:29 +0000";
layers = (
{
layerId = UUID0;
paths = (
{
closed = 1;
nodes = (
"313 606 LINE",
"313 643 LINE",
"-313 643 LINE",
"-313 606 LINE"
);
},
{
closed = 1;
nodes = (
"313 689 LINE",
"313 726 LINE",
"-313 726 LINE",
"-313 689 LINE"
);
}
);
width = 0;
}
);
unicode = 033F;
},
{
glyphname = uni0361;
lastChange = "2017-09-06 19:52:23 +0000";
layers = (
{
layerId = UUID0;
paths = (
{
closed = 1;
nodes = (
"-717 606 LINE",
"-677 690 OFFCURVE",
"-551 715 OFFCURVE",
"-433 715 CURVE SMOOTH",
"-315 715 OFFCURVE",
"-190 690 OFFCURVE",
"-149 606 CURVE",
"-41 606 LINE",
"-103 739 OFFCURVE",
"-264 784 OFFCURVE",
"-433 784 CURVE SMOOTH",
"-601 784 OFFCURVE",
"-766 737 OFFCURVE",
"-825 606 CURVE"
);
}
);
width = 0;
}
);
unicode = 0361;
},
{
glyphname = uni0374;
lastChange = "2017-09-06 19:51:29 +0000";
layers = (
{
layerId = UUID0;
paths = (
{
closed = 1;
nodes = (
"78 554 LINE",
"125 590 OFFCURVE",
"171 653 OFFCURVE",
"201 704 CURVE",
"201 714 LINE",
"95 714 LINE",
"77 668 OFFCURVE",
"49 611 OFFCURVE",
"20 566 CURVE",
"20 554 LINE"
);
}
);
width = 221;
}
);
unicode = 0374;
},
{
glyphname = uni0375;
lastChange = "2017-09-06 19:51:29 +0000";
layers = (
{
layerId = UUID0;
paths = (
{
closed = 1;
nodes = (
"126 -220 LINE",
"144 -174 OFFCURVE",
"172 -117 OFFCURVE",
"201 -72 CURVE",
"201 -60 LINE",
"143 -60 LINE",
"96 -96 OFFCURVE",
"50 -159 OFFCURVE",
"20 -210 CURVE",
"20 -220 LINE"
);
}
);
width = 221;
}
);
unicode = 0375;
},
{
glyphname = uni03E2;
lastChange = "2017-09-06 19:51:29 +0000";
layers = (
{
layerId = UUID0;
paths = (
{
closed = 1;
nodes = (
"830 -195 OFFCURVE",
"971 25 OFFCURVE",
"971 347 CURVE SMOOTH",
"971 502 OFFCURVE",
"913 646 OFFCURVE",
"771 731 CURVE",
"705 674 LINE",
"822 607 OFFCURVE",
"876 488 OFFCURVE",
"876 341 CURVE SMOOTH",
"876 150 OFFCURVE",
"798 72 OFFCURVE",
"702 72 CURVE SMOOTH",
"605 72 OFFCURVE",
"560 143 OFFCURVE",
"560 319 CURVE SMOOTH",
"560 694 LINE",
"470 694 LINE",
"470 319 LINE SMOOTH",
"470 126 OFFCURVE",
"417 72 OFFCURVE",
"329 72 CURVE SMOOTH",
"231 72 OFFCURVE",
"155 168 OFFCURVE",
"155 341 CURVE SMOOTH",
"155 495 OFFCURVE",
"204 599 OFFCURVE",
"322 669 CURVE",
"271 729 LINE",
"128 649 OFFCURVE",
"61 520 OFFCURVE",
"61 341 CURVE SMOOTH",
"61 116 OFFCURVE",
"172 -10 OFFCURVE",
"326 -10 CURVE SMOOTH",
"412 -10 OFFCURVE",
"479 37 OFFCURVE",
"513 141 CURVE",
"516 141 LINE",
"542 41 OFFCURVE",
"601 -10 OFFCURVE",
"683 -10 CURVE SMOOTH",
"743 -10 OFFCURVE",
"788 8 OFFCURVE",
"833 59 CURVE",
"836 56 LINE",
"785 -46 OFFCURVE",
"704 -115 OFFCURVE",
"568 -115 CURVE SMOOTH",
"529 -115 OFFCURVE",
"494 -109 OFFCURVE",
"471 -102 CURVE",
"471 -182 LINE",
"492 -189 OFFCURVE",
"526 -195 OFFCURVE",
"569 -195 CURVE SMOOTH"
);
}
);
width = 1032;
}
);
unicode = 03E2;
},
{
glyphname = uni03E3;
lastChange = "2017-09-06 19:51:29 +0000";
layers = (
{
layerId = UUID0;
paths = (
{
closed = 1;
nodes = (
"596 -190 OFFCURVE",
"761 -58 OFFCURVE",
"761 256 CURVE SMOOTH",
"761 419 OFFCURVE",
"690 508 OFFCURVE",
"627 560 CURVE",
"562 511 LINE",
"622 458 OFFCURVE",
"673 378 OFFCURVE",
"673 257 CURVE SMOOTH",
"673 129 OFFCURVE",
"613 68 OFFCURVE",
"551 68 CURVE SMOOTH",
"479 68 OFFCURVE",
"450 137 OFFCURVE",
"450 223 CURVE SMOOTH",
"450 536 LINE",
"366 536 LINE",
"366 223 LINE SMOOTH",
"366 150 OFFCURVE",
"341 68 OFFCURVE",
"257 68 CURVE SMOOTH",
"194 68 OFFCURVE",
"143 129 OFFCURVE",
"143 257 CURVE SMOOTH",
"143 386 OFFCURVE",
"188 457 OFFCURVE",
"257 511 CURVE",
"194 560 LINE",
"116 502 OFFCURVE",
"55 409 OFFCURVE",
"55 257 CURVE SMOOTH",
"55 80 OFFCURVE",
"148 -10 OFFCURVE",
"249 -10 CURVE SMOOTH",
"330 -10 OFFCURVE",
"383 34 OFFCURVE",
"406 104 CURVE",
"409 104 LINE",
"429 30 OFFCURVE",
"471 -10 OFFCURVE",
"536 -10 CURVE SMOOTH",
"585 -10 OFFCURVE",
"621 11 OFFCURVE",
"652 49 CURVE",
"655 47 LINE",
"608 -59 OFFCURVE",
"548 -109 OFFCURVE",
"446 -109 CURVE SMOOTH",
"417 -109 OFFCURVE",
"390 -105 OFFCURVE",
"373 -100 CURVE",
"373 -180 LINE",
"389 -185 OFFCURVE",
"414 -190 OFFCURVE",
"447 -190 CURVE SMOOTH"
);
}
);
width = 816;
}
);
unicode = 03E3;
},
{
glyphname = uni03E4;
lastChange = "2017-09-06 19:51:29 +0000";
layers = (
{
layerId = UUID0;
paths = (
{
closed = 1;
nodes = (
"584 0 LINE",
"584 714 LINE",
"493 714 LINE",
"493 262 LINE",
"454 239 OFFCURVE",
"397 220 OFFCURVE",
"334 220 CURVE SMOOTH",
"208 220 OFFCURVE",
"144 308 OFFCURVE",
"144 435 CURVE SMOOTH",
"144 540 OFFCURVE",
"187 640 OFFCURVE",
"313 647 CURVE",
"313 725 LINE",
"144 725 OFFCURVE",
"49 601 OFFCURVE",
"49 425 CURVE SMOOTH",
"49 250 OFFCURVE",
"152 141 OFFCURVE",
"328 141 CURVE SMOOTH",
"391 141 OFFCURVE",
"456 163 OFFCURVE",
"493 184 CURVE",
"493 0 LINE"
);
}
);
width = 681;
}
);
unicode = 03E4;
},
{
glyphname = uni03E5;
lastChange = "2017-09-06 19:51:29 +0000";
layers = (
{
layerId = UUID0;
paths = (
{
closed = 1;
nodes = (
"534 -240 LINE",
"534 536 LINE",
"446 536 LINE",
"446 140 LINE",
"408 112 OFFCURVE",
"368 89 OFFCURVE",
"300 89 CURVE SMOOTH",
"201 89 OFFCURVE",
"146 164 OFFCURVE",
"146 273 CURVE SMOOTH",
"146 415 OFFCURVE",
"222 467 OFFCURVE",
"303 474 CURVE",
"303 547 LINE",
"164 538 OFFCURVE",
"55 449 OFFCURVE",
"55 271 CURVE SMOOTH",
"55 140 OFFCURVE",
"131 14 OFFCURVE",
"292 14 CURVE SMOOTH",
"363 14 OFFCURVE",
"408 36 OFFCURVE",
"446 61 CURVE",
"446 -240 LINE"
);
}
);
width = 619;
}
);
unicode = 03E5;
},
{
glyphname = uni03E6;
lastChange = "2017-09-06 19:51:29 +0000";
layers = (
{
layerId = UUID0;
paths = (
{
closed = 1;
nodes = (
"285 -232 LINE",
"285 -62 OFFCURVE",
"632 -60 OFFCURVE",
"632 289 CURVE SMOOTH",
"632 464 OFFCURVE",
"529 573 OFFCURVE",
"353 573 CURVE SMOOTH",
"290 573 OFFCURVE",
"225 551 OFFCURVE",
"188 530 CURVE",
"188 714 LINE",
"97 714 LINE",
"97 0 LINE",
"188 0 LINE",
"188 452 LINE",
"227 475 OFFCURVE",
"284 494 OFFCURVE",
"347 494 CURVE SMOOTH",
"473 494 OFFCURVE",
"537 406 OFFCURVE",
"537 279 CURVE SMOOTH",
"537 -30 OFFCURVE",
"195 8 OFFCURVE",
"195 -232 CURVE"
);
}
);
width = 651;
}
);
unicode = 03E6;
},
{
glyphname = uni03E7;
lastChange = "2017-09-06 19:51:29 +0000";
layers = (
{
layerId = UUID0;
paths = (
{
closed = 1;
nodes = (
"244 -240 LINE",
"244 -116 OFFCURVE",
"517 -132 OFFCURVE",
"517 143 CURVE SMOOTH",
"517 277 OFFCURVE",
"437 358 OFFCURVE",
"322 358 CURVE SMOOTH",
"250 358 OFFCURVE",
"209 337 OFFCURVE",
"173 311 CURVE",
"173 536 LINE",
"85 536 LINE",
"85 0 LINE",
"173 0 LINE",
"173 233 LINE",
"200 257 OFFCURVE",
"242 281 OFFCURVE",
"299 281 CURVE SMOOTH",
"378 281 OFFCURVE",
"426 222 OFFCURVE",
"426 136 CURVE SMOOTH",
"426 -106 OFFCURVE",
"154 -54 OFFCURVE",
"154 -240 CURVE"
);
}
);
width = 546;
}
);
unicode = 03E7;
},
{
glyphname = uni03E8;
lastChange = "2017-09-06 19:51:29 +0000";
layers = (
{
layerId = UUID0;
paths = (
{
closed = 1;
nodes = (
"443 -99 OFFCURVE",
"490 -88 OFFCURVE",
"511 -82 CURVE",
"511 2 LINE",
"483 -7 OFFCURVE",
"442 -13 OFFCURVE",
"393 -13 CURVE SMOOTH",
"269 -13 OFFCURVE",
"185 32 OFFCURVE",
"157 143 CURVE",
"412 216 OFFCURVE",
"530 329 OFFCURVE",
"530 496 CURVE SMOOTH",
"530 616 OFFCURVE",
"455 724 OFFCURVE",
"285 724 CURVE SMOOTH",
"148 724 OFFCURVE",
"39 650 OFFCURVE",
"39 517 CURVE SMOOTH",
"39 483 OFFCURVE",
"50 440 OFFCURVE",
"69 409 CURVE",
"152 441 LINE",
"139 464 OFFCURVE",
"132 496 OFFCURVE",
"132 514 CURVE SMOOTH",
"132 598 OFFCURVE",
"190 645 OFFCURVE",
"279 645 CURVE SMOOTH",
"380 645 OFFCURVE",
"434 579 OFFCURVE",
"434 480 CURVE SMOOTH",
"434 337 OFFCURVE",
"301 250 OFFCURVE",
"49 193 CURVE",
"82 -18 OFFCURVE",
"222 -99 OFFCURVE",
"391 -99 CURVE SMOOTH"
);
}
);
width = 549;
}
);
unicode = 03E8;
},
{
glyphname = uni03E9;
lastChange = "2017-09-06 19:51:29 +0000";
layers = (
{
layerId = UUID0;
paths = (
{
closed = 1;
nodes = (
"407 -134 OFFCURVE",
"463 -118 OFFCURVE",
"482 -110 CURVE",
"482 -35 LINE",
"453 -49 OFFCURVE",
"400 -61 OFFCURVE",
"354 -61 CURVE SMOOTH",
"239 -61 OFFCURVE",
"169 -9 OFFCURVE",
"143 94 CURVE",
"335 150 OFFCURVE",
"473 216 OFFCURVE",
"473 373 CURVE SMOOTH",
"473 446 OFFCURVE",
"427 546 OFFCURVE",
"275 546 CURVE SMOOTH",
"127 546 OFFCURVE",
"63 454 OFFCURVE",
"63 370 CURVE SMOOTH",
"63 339 OFFCURVE",
"72 308 OFFCURVE",
"90 279 CURVE",
"168 309 LINE",
"156 330 OFFCURVE",
"150 351 OFFCURVE",
"150 368 CURVE SMOOTH",
"150 436 OFFCURVE",
"194 474 OFFCURVE",
"269 474 CURVE SMOOTH",
"352 474 OFFCURVE",
"384 418 OFFCURVE",
"384 363 CURVE SMOOTH",
"384 267 OFFCURVE",
"300 199 OFFCURVE",
"50 143 CURVE",
"81 -53 OFFCURVE",
"185 -134 OFFCURVE",
"342 -134 CURVE SMOOTH"
);
}
);
width = 525;
}
);
unicode = 03E9;
},
{
glyphname = uni03EA;
lastChange = "2017-09-06 19:51:29 +0000";
layers = (
{
layerId = UUID0;
paths = (
{
closed = 1;
nodes = (
"799 0 LINE",
"799 79 LINE",
"742 79 OFFCURVE",
"720 95 OFFCURVE",
"675 171 CURVE SMOOTH",
"521 431 LINE",
"707 713 LINE",
"599 713 LINE",
"463 499 LINE",
"387 619 LINE SMOOTH",
"339 694 OFFCURVE",
"287 714 OFFCURVE",
"210 714 CURVE SMOOTH",
"190 714 LINE",
"190 635 LINE",
"250 635 OFFCURVE",
"281 620 OFFCURVE",
"322 555 CURVE SMOOTH",
"404 424 LINE",
"184 79 LINE",
"131 79 OFFCURVE",
"101 86 OFFCURVE",
"101 142 CURVE",
"16 142 LINE",
"16 55 OFFCURVE",
"50 0 OFFCURVE",
"156 0 CURVE SMOOTH"
);
},
{
closed = 1;
nodes = (
"461 358 LINE",
"624 79 LINE",
"288 79 LINE"
);
}
);
width = 816;
}
);
unicode = 03EA;
},
{
glyphname = uni03EB;
lastChange = "2017-09-06 19:51:29 +0000";
layers = (
{
layerId = UUID0;
paths = (
{
closed = 1;
nodes = (
"654 0 LINE",
"654 71 LINE",
"609 71 OFFCURVE",
"588 84 OFFCURVE",
"552 135 CURVE SMOOTH",
"426 310 LINE",
"588 536 LINE",
"491 536 LINE",
"371 367 LINE",
"310 455 LINE SMOOTH",
"271 512 OFFCURVE",
"235 537 OFFCURVE",
"166 537 CURVE SMOOTH",
"142 537 LINE",
"142 468 LINE",
"186 468 OFFCURVE",
"206 459 OFFCURVE",
"240 412 CURVE SMOOTH",
"318 304 LINE",
"146 71 LINE",
"109 71 OFFCURVE",
"85 77 OFFCURVE",
"85 119 CURVE",
"12 119 LINE",
"12 53 OFFCURVE",
"37 0 OFFCURVE",
"117 0 CURVE SMOOTH"
);
},
{
closed = 1;
nodes = (
"371 245 LINE",
"494 71 LINE",
"247 71 LINE"
);
}
);
width = 657;
}
);
unicode = 03EB;
},
{
glyphname = uni03EC;
lastChange = "2017-09-06 19:51:29 +0000";
layers = (
{
layerId = UUID0;
paths = (
{
closed = 1;
nodes = (
"535 -10 OFFCURVE",
"662 117 OFFCURVE",
"662 286 CURVE SMOOTH",
"662 430 OFFCURVE",
"574 557 OFFCURVE",
"394 557 CURVE SMOOTH",
"286 557 OFFCURVE",
"209 511 OFFCURVE",
"171 469 CURVE",
"169 471 LINE",
"198 569 OFFCURVE",
"270 640 OFFCURVE",
"432 660 CURVE SMOOTH",
"587 679 OFFCURVE",
"644 690 OFFCURVE",
"695 704 CURVE",
"695 786 LINE",
"654 772 OFFCURVE",
"596 759 OFFCURVE",
"441 741 CURVE SMOOTH",
"157 708 OFFCURVE",
"61 543 OFFCURVE",
"61 316 CURVE SMOOTH",
"61 110 OFFCURVE",
"183 -10 OFFCURVE",
"353 -10 CURVE SMOOTH"
);
},
{
closed = 1;
nodes = (
"236 68 OFFCURVE",
"156 161 OFFCURVE",
"156 277 CURVE SMOOTH",
"156 395 OFFCURVE",
"234 478 OFFCURVE",
"372 478 CURVE SMOOTH",
"524 478 OFFCURVE",
"567 374 OFFCURVE",
"567 281 CURVE SMOOTH",
"567 151 OFFCURVE",
"487 68 OFFCURVE",
"355 68 CURVE SMOOTH"
);
}
);
width = 702;
}
);
unicode = 03EC;
},
{
glyphname = uni03ED;
lastChange = "2017-09-06 19:51:29 +0000";
layers = (
{
layerId = UUID0;
paths = (
{
closed = 1;
nodes = (
"454 -10 OFFCURVE",
"552 103 OFFCURVE",
"552 240 CURVE SMOOTH",
"552 384 OFFCURVE",
"469 480 OFFCURVE",
"329 493 CURVE",
"349 500 OFFCURVE",
"370 506 OFFCURVE",
"393 512 CURVE SMOOTH",
"539 547 OFFCURVE",
"605 574 OFFCURVE",
"649 599 CURVE",
"649 678 LINE",
"604 647 OFFCURVE",
"529 619 OFFCURVE",
"375 582 CURVE SMOOTH",
"184 536 OFFCURVE",
"55 428 OFFCURVE",
"55 247 CURVE SMOOTH",
"55 104 OFFCURVE",
"137 -10 OFFCURVE",
"303 -10 CURVE SMOOTH"
);
},
{
closed = 1;
nodes = (
"210 63 OFFCURVE",
"146 131 OFFCURVE",
"146 252 CURVE SMOOTH",
"146 334 OFFCURVE",
"171 397 OFFCURVE",
"232 443 CURVE",
"378 449 OFFCURVE",
"459 374 OFFCURVE",
"459 234 CURVE SMOOTH",
"459 134 OFFCURVE",
"404 63 OFFCURVE",
"303 63 CURVE SMOOTH"
);
}
);
width = 600;
}
);
unicode = 03ED;
},
{
glyphname = uni03EE;
lastChange = "2017-09-06 19:51:29 +0000";
layers = (
{
layerId = UUID0;
paths = (
{
closed = 1;
nodes = (
"350 0 LINE",
"350 527 LINE",
"452 527 LINE SMOOTH",
"496 527 OFFCURVE",
"513 501 OFFCURVE",
"513 463 CURVE",
"599 463 LINE",
"599 530 OFFCURVE",
"576 606 OFFCURVE",
"457 606 CURVE SMOOTH",
"350 606 LINE",
"350 714 LINE",
"260 714 LINE",
"260 606 LINE",
"153 606 LINE SMOOTH",
"34 606 OFFCURVE",
"11 530 OFFCURVE",
"11 463 CURVE",
"97 463 LINE",
"97 501 OFFCURVE",
"114 527 OFFCURVE",
"158 527 CURVE SMOOTH",
"260 527 LINE",
"260 0 LINE"
);
}
);
width = 610;
}
);
unicode = 03EE;
},
{
glyphname = uni03EF;
lastChange = "2017-09-06 19:51:29 +0000";
layers = (
{
layerId = UUID0;
paths = (
{
closed = 1;
nodes = (
"328 -141 LINE",
"328 462 LINE",
"425 462 LINE SMOOTH",
"456 462 OFFCURVE",
"472 445 OFFCURVE",
"472 415 CURVE",
"551 415 LINE",
"551 465 OFFCURVE",
"534 536 OFFCURVE",
"432 536 CURVE SMOOTH",
"328 536 LINE",
"328 666 LINE",
"239 666 LINE",
"239 536 LINE",
"135 536 LINE SMOOTH",
"33 536 OFFCURVE",
"16 465 OFFCURVE",
"16 415 CURVE",
"95 415 LINE",
"95 445 OFFCURVE",
"111 462 OFFCURVE",
"142 462 CURVE SMOOTH",
"239 462 LINE",
"239 -141 LINE"
);
}
);
width = 567;
}
);
unicode = 03EF;
},
{
glyphname = uni1DCD;
lastChange = "2017-09-06 19:52:26 +0000";
layers = (
{
associatedMasterId = UUID0;
background = {
anchors = (
{
name = _top;
position = "{5, 553}";
},
{
name = top;
position = "{7, 786}";
}
);
paths = (
{
closed = 1;
nodes = (
"-109 786 LINE",
"-184 737 OFFCURVE",
"-318 672 OFFCURVE",
"-445 625 CURVE",
"-445 609 LINE",
"-318 609 LINE",
"-218 631 OFFCURVE",
"-98 658 OFFCURVE",
"1 694 CURVE",
"99 658 OFFCURVE",
"203 635 OFFCURVE",
"328 609 CURVE",
"455 609 LINE",
"455 626 LINE",
"333 670 OFFCURVE",
"190 737 OFFCURVE",
"114 786 CURVE"
);
}
);
};
layerId = "0A718E2F-231D-484E-9433-16A5230D2CE8";
paths = (
{
closed = 1;
nodes = (
"-109 786 LINE",
"-184 737 OFFCURVE",
"-318 672 OFFCURVE",
"-445 625 CURVE",
"-445 609 LINE",
"-318 609 LINE",
"-218 631 OFFCURVE",
"-98 658 OFFCURVE",
"1 694 CURVE",
"99 658 OFFCURVE",
"203 635 OFFCURVE",
"328 609 CURVE",
"455 609 LINE",
"455 626 LINE",
"333 670 OFFCURVE",
"190 737 OFFCURVE",
"114 786 CURVE"
);
}
);
width = 0;
},
{
associatedMasterId = UUID0;
background = {
anchors = (
{
name = _top;
position = "{0, 553}";
},
{
name = top;
position = "{2, 786}";
}
);
paths = (
{
closed = 1;
nodes = (
"-96 786 LINE",
"-161 737 OFFCURVE",
"-280 672 OFFCURVE",
"-390 625 CURVE",
"-390 609 LINE",
"-263 609 LINE",
"-182 631 OFFCURVE",
"-81 658 OFFCURVE",
"0 694 CURVE",
"80 658 OFFCURVE",
"161 635 OFFCURVE",
"263 609 CURVE",
"390 609 LINE",
"390 626 LINE",
"284 670 OFFCURVE",
"162 737 OFFCURVE",
"96 786 CURVE"
);
}
);
};
layerId = "98E204A9-1C79-49C7-AB3E-40A925F56409";
paths = (
{
closed = 1;
nodes = (
"-96 786 LINE",
"-161 737 OFFCURVE",
"-280 672 OFFCURVE",
"-390 625 CURVE",
"-390 609 LINE",
"-263 609 LINE",
"-182 631 OFFCURVE",
"-81 658 OFFCURVE",
"0 694 CURVE",
"80 658 OFFCURVE",
"161 635 OFFCURVE",
"263 609 CURVE",
"390 609 LINE",
"390 626 LINE",
"284 670 OFFCURVE",
"162 737 OFFCURVE",
"96 786 CURVE"
);
}
);
width = 0;
},
{
associatedMasterId = UUID0;
background = {
anchors = (
{
name = _top;
position = "{-3, 536}";
},
{
name = top;
position = "{-1, 766}";
}
);
paths = (
{
closed = 1;
nodes = (
"-48 766 LINE",
"-131 722 OFFCURVE",
"-308 654 OFFCURVE",
"-420 616 CURVE",
"-420 606 LINE",
"-361 606 LINE",
"-241 633 OFFCURVE",
"-116 664 OFFCURVE",
"0 701 CURVE",
"107 664 OFFCURVE",
"230 633 OFFCURVE",
"355 606 CURVE",
"415 606 LINE",
"415 616 LINE",
"266 668 OFFCURVE",
"122 725 OFFCURVE",
"50 766 CURVE"
);
}
);
};
layerId = "9FF96064-8718-4A86-A5C8-73C592101F67";
paths = (
{
closed = 1;
nodes = (
"-48 766 LINE",
"-131 722 OFFCURVE",
"-308 654 OFFCURVE",
"-420 616 CURVE",
"-420 606 LINE",
"-361 606 LINE",
"-241 633 OFFCURVE",
"-116 664 OFFCURVE",
"0 701 CURVE",
"107 664 OFFCURVE",
"230 633 OFFCURVE",
"355 606 CURVE",
"415 606 LINE",
"415 616 LINE",
"266 668 OFFCURVE",
"122 725 OFFCURVE",
"50 766 CURVE"
);
}
);
width = 0;
},
{
associatedMasterId = UUID0;
background = {
anchors = (
{
name = _top;
position = "{0, 546}";
},
{
name = top;
position = "{2, 766}";
}
);
paths = (
{
closed = 1;
nodes = (
"-85 766 LINE",
"-160 721 OFFCURVE",
"-320 656 OFFCURVE",
"-419 619 CURVE",
"-419 606 LINE",
"-320 606 LINE",
"-219 628 OFFCURVE",
"-99 656 OFFCURVE",
"1 692 CURVE",
"96 656 OFFCURVE",
"222 627 OFFCURVE",
"320 606 CURVE",
"419 606 LINE",
"419 619 LINE",
"324 655 OFFCURVE",
"163 721 OFFCURVE",
"89 766 CURVE"
);
}
);
};
layerId = "134B12F2-BF5D-48E3-8003-C7502B438C7E";
paths = (
{
closed = 1;
nodes = (
"-85 766 LINE",
"-160 721 OFFCURVE",
"-320 656 OFFCURVE",
"-419 619 CURVE",
"-419 606 LINE",
"-320 606 LINE",
"-219 628 OFFCURVE",
"-99 656 OFFCURVE",
"1 692 CURVE",
"96 656 OFFCURVE",
"222 627 OFFCURVE",
"320 606 CURVE",
"419 606 LINE",
"419 619 LINE",
"324 655 OFFCURVE",
"163 721 OFFCURVE",
"89 766 CURVE"
);
}
);
width = 0;
},
{
associatedMasterId = UUID0;
background = {
anchors = (
{
name = _top;
position = "{1, 537}";
},
{
name = top;
position = "{3, 772}";
}
);
paths = (
{
closed = 1;
nodes = (
"-42 772 LINE",
"-114 727 OFFCURVE",
"-260 658 OFFCURVE",
"-365 617 CURVE",
"-365 607 LINE",
"-305 607 LINE",
"-202 635 OFFCURVE",
"-96 667 OFFCURVE",
"0 703 CURVE",
"92 667 OFFCURVE",
"191 636 OFFCURVE",
"306 607 CURVE",
"367 607 LINE",
"367 617 LINE",
"225 674 OFFCURVE",
"107 730 OFFCURVE",
"44 772 CURVE"
);
}
);
};
layerId = "36F3C8CB-53EE-4548-BFDE-2C03212BACAA";
paths = (
{
closed = 1;
nodes = (
"-42 772 LINE",
"-114 727 OFFCURVE",
"-260 658 OFFCURVE",
"-365 617 CURVE",
"-365 607 LINE",
"-305 607 LINE",
"-202 635 OFFCURVE",
"-96 667 OFFCURVE",
"0 703 CURVE",
"92 667 OFFCURVE",
"191 636 OFFCURVE",
"306 607 CURVE",
"367 607 LINE",
"367 617 LINE",
"225 674 OFFCURVE",
"107 730 OFFCURVE",
"44 772 CURVE"
);
}
);
width = 0;
},
{
associatedMasterId = UUID0;
background = {
anchors = (
{
name = _top;
position = "{1, 547}";
},
{
name = top;
position = "{3, 780}";
}
);
paths = (
{
closed = 1;
nodes = (
"-75 780 LINE",
"-142 733 OFFCURVE",
"-272 667 OFFCURVE",
"-380 622 CURVE",
"-380 608 LINE",
"-279 608 LINE",
"-189 632 OFFCURVE",
"-87 661 OFFCURVE",
"0 698 CURVE",
"85 661 OFFCURVE",
"173 636 OFFCURVE",
"280 608 CURVE",
"381 608 LINE",
"381 623 LINE",
"261 672 OFFCURVE",
"141 734 OFFCURVE",
"76 780 CURVE"
);
}
);
};
layerId = "43B45EC1-5522-4B1A-B0C7-88628E50A583";
paths = (
{
closed = 1;
nodes = (
"-75 780 LINE",
"-142 733 OFFCURVE",
"-272 667 OFFCURVE",
"-380 622 CURVE",
"-380 608 LINE",
"-279 608 LINE",
"-189 632 OFFCURVE",
"-87 661 OFFCURVE",
"0 698 CURVE",
"85 661 OFFCURVE",
"173 636 OFFCURVE",
"280 608 CURVE",
"381 608 LINE",
"381 623 LINE",
"261 672 OFFCURVE",
"141 734 OFFCURVE",
"76 780 CURVE"
);
}
);
width = 0;
},
{
layerId = UUID0;
paths = (
{
closed = 1;
nodes = (
"-799 606 LINE",
"-679 633 OFFCURVE",
"-554 664 OFFCURVE",
"-438 701 CURVE",
"-331 664 OFFCURVE",
"-208 633 OFFCURVE",
"-83 606 CURVE",
"-23 606 LINE",
"-23 616 LINE",
"-172 668 OFFCURVE",
"-316 725 OFFCURVE",
"-388 766 CURVE",
"-486 766 LINE",
"-569 722 OFFCURVE",
"-746 654 OFFCURVE",
"-858 616 CURVE",
"-858 606 LINE"
);
}
);
width = 0;
},
{
associatedMasterId = UUID0;
background = {
anchors = (
{
name = _top;
position = "{1, 527}";
},
{
name = top;
position = "{1, 762}";
}
);
paths = (
{
closed = 1;
nodes = (
"-6 762 LINE",
"-83 720 OFFCURVE",
"-246 653 OFFCURVE",
"-349 616 CURVE",
"-349 600 LINE",
"-339 600 LINE",
"-220 637 OFFCURVE",
"-108 684 OFFCURVE",
"0 734 CURVE",
"101 687 OFFCURVE",
"215 638 OFFCURVE",
"340 600 CURVE",
"350 600 LINE",
"350 616 LINE",
"185 681 OFFCURVE",
"70 725 OFFCURVE",
"9 762 CURVE"
);
}
);
};
layerId = "029FEF0C-5FA4-4A3E-AC23-838A1147A554";
paths = (
{
closed = 1;
nodes = (
"-6 762 LINE",
"-83 720 OFFCURVE",
"-246 653 OFFCURVE",
"-349 616 CURVE",
"-349 600 LINE",
"-339 600 LINE",
"-220 637 OFFCURVE",
"-108 684 OFFCURVE",
"0 734 CURVE",
"101 687 OFFCURVE",
"215 638 OFFCURVE",
"340 600 CURVE",
"350 600 LINE",
"350 616 LINE",
"185 681 OFFCURVE",
"70 725 OFFCURVE",
"9 762 CURVE"
);
}
);
width = 0;
}
);
unicode = 1DCD;
},
{
glyphname = uni2C80;
lastChange = "2017-09-06 19:51:29 +0000";
layers = (
{
layerId = UUID0;
paths = (
{
closed = 1;
nodes = (
"347 -14 OFFCURVE",
"428 41 OFFCURVE",
"479 102 CURVE",
"488 84 LINE SMOOTH",
"516 27 OFFCURVE",
"556 0 OFFCURVE",
"626 0 CURVE SMOOTH",
"645 0 LINE",
"645 86 LINE",
"612 86 OFFCURVE",
"578 104 OFFCURVE",
"546 176 CURVE SMOOTH",
"370 578 LINE SMOOTH",
"325 681 OFFCURVE",
"270 714 OFFCURVE",
"156 714 CURVE SMOOTH",
"137 714 LINE",
"137 632 LINE",
"223 632 OFFCURVE",
"257 608 OFFCURVE",
"291 527 CURVE SMOOTH",
"345 397 LINE",
"21 113 LINE",
"58 36 OFFCURVE",
"124 -14 OFFCURVE",
"239 -14 CURVE SMOOTH"
);
},
{
closed = 1;
nodes = (
"203 68 OFFCURVE",
"156 87 OFFCURVE",
"139 112 CURVE",
"379 321 LINE",
"446 171 LINE",
"399 114 OFFCURVE",
"328 68 OFFCURVE",
"240 68 CURVE SMOOTH"
);
}
);
width = 633;
}
);
unicode = 2C80;
},
{
glyphname = uni2C81;
lastChange = "2017-09-06 19:51:29 +0000";
layers = (
{
layerId = UUID0;
paths = (
{
closed = 1;
nodes = (
"312 -10 OFFCURVE",
"376 32 OFFCURVE",
"427 82 CURVE",
"435 70 LINE SMOOTH",
"463 29 OFFCURVE",
"493 0 OFFCURVE",
"559 0 CURVE SMOOTH",
"579 0 LINE",
"579 74 LINE",
"549 74 OFFCURVE",
"522 80 OFFCURVE",
"493 134 CURVE SMOOTH",
"335 431 LINE SMOOTH",
"298 501 OFFCURVE",
"252 536 OFFCURVE",
"148 536 CURVE SMOOTH",
"133 536 LINE",
"133 461 LINE",
"202 461 OFFCURVE",
"234 437 OFFCURVE",
"262 386 CURVE SMOOTH",
"301 314 LINE",
"20 100 LINE",
"48 39 OFFCURVE",
"112 -10 OFFCURVE",
"211 -10 CURVE SMOOTH"
);
},
{
closed = 1;
nodes = (
"194 64 OFFCURVE",
"151 82 OFFCURVE",
"137 103 CURVE",
"334 252 LINE",
"395 137 LINE",
"350 94 OFFCURVE",
"297 64 OFFCURVE",
"227 64 CURVE SMOOTH"
);
}
);
width = 574;
}
);
unicode = 2C81;
},
{
glyphname = uni2C82;
lastChange = "2017-09-06 19:51:29 +0000";
layers = (
{
layerId = UUID0;
paths = (
{
closed = 1;
nodes = (
"348 0 LINE SMOOTH",
"501 0 OFFCURVE",
"596 73 OFFCURVE",
"596 203 CURVE SMOOTH",
"596 314 OFFCURVE",
"526 359 OFFCURVE",
"436 374 CURVE",
"436 379 LINE",
"524 395 OFFCURVE",
"572 453 OFFCURVE",
"572 537 CURVE SMOOTH",
"572 667 OFFCURVE",
"479 714 OFFCURVE",
"301 714 CURVE SMOOTH",
"97 714 LINE",
"97 0 LINE"
);
},
{
closed = 1;
nodes = (
"187 335 LINE",
"324 335 LINE SMOOTH",
"456 335 OFFCURVE",
"500 285 OFFCURVE",
"500 210 CURVE SMOOTH",
"500 130 OFFCURVE",
"457 76 OFFCURVE",
"331 76 CURVE SMOOTH",
"187 76 LINE"
);
},
{
closed = 1;
nodes = (
"187 637 LINE",
"305 637 LINE SMOOTH",
"426 637 OFFCURVE",
"479 605 OFFCURVE",
"479 527 CURVE SMOOTH",
"479 450 OFFCURVE",
"441 410 OFFCURVE",
"319 410 CURVE SMOOTH",
"187 410 LINE"
);
}
);
width = 650;
}
);
unicode = 2C82;
},
{
glyphname = uni2C83;
lastChange = "2017-09-06 19:51:29 +0000";
layers = (
{
layerId = UUID0;
paths = (
{
closed = 1;
nodes = (
"326 0 LINE SMOOTH",
"480 0 OFFCURVE",
"543 66 OFFCURVE",
"543 157 CURVE SMOOTH",
"543 238 OFFCURVE",
"489 271 OFFCURVE",
"413 281 CURVE",
"413 285 LINE",
"485 298 OFFCURVE",
"526 332 OFFCURVE",
"526 401 CURVE SMOOTH",
"526 503 OFFCURVE",
"439 536 OFFCURVE",
"325 536 CURVE SMOOTH",
"85 536 LINE",
"85 0 LINE"
);
},
{
closed = 1;
nodes = (
"173 243 LINE",
"317 243 LINE SMOOTH",
"407 243 OFFCURVE",
"455 222 OFFCURVE",
"455 162 CURVE SMOOTH",
"455 95 OFFCURVE",
"399 71 OFFCURVE",
"319 71 CURVE SMOOTH",
"173 71 LINE"
);
},
{
closed = 1;
nodes = (
"173 463 LINE",
"323 463 LINE SMOOTH",
"401 463 OFFCURVE",
"440 443 OFFCURVE",
"440 393 CURVE SMOOTH",
"440 333 OFFCURVE",
"394 316 OFFCURVE",
"307 316 CURVE SMOOTH",
"173 316 LINE"
);
}
);
width = 576;
}
);
unicode = 2C83;
},
{
glyphname = uni2C84;
lastChange = "2017-09-06 19:51:29 +0000";
layers = (
{
layerId = UUID0;
paths = (
{
closed = 1;
nodes = (
"187 0 LINE",
"187 634 LINE",
"341 634 LINE SMOOTH",
"412 634 OFFCURVE",
"435 616 OFFCURVE",
"435 560 CURVE",
"520 560 LINE",
"520 663 OFFCURVE",
"486 714 OFFCURVE",
"370 714 CURVE SMOOTH",
"97 714 LINE",
"97 0 LINE"
);
}
);
width = 524;
}
);
unicode = 2C84;
},
{
glyphname = uni2C85;
lastChange = "2017-09-06 19:51:29 +0000";
layers = (
{
layerId = UUID0;
paths = (
{
closed = 1;
nodes = (
"173 0 LINE",
"173 462 LINE",
"253 462 LINE SMOOTH",
"317 462 OFFCURVE",
"337 445 OFFCURVE",
"337 394 CURVE",
"414 394 LINE",
"414 483 OFFCURVE",
"387 536 OFFCURVE",
"279 536 CURVE SMOOTH",
"85 536 LINE",
"85 0 LINE"
);
}
);
width = 433;
}
);
unicode = 2C85;
},
{
glyphname = uni2C86;
lastChange = "2017-09-06 19:51:29 +0000";
layers = (
{
layerId = UUID0;
paths = (
{
closed = 1;
nodes = (
"799 0 LINE",
"799 79 LINE",
"742 79 OFFCURVE",
"720 85 OFFCURVE",
"684 167 CURVE SMOOTH",
"502 576 LINE SMOOTH",
"456 679 OFFCURVE",
"404 714 OFFCURVE",
"290 714 CURVE SMOOTH",
"271 714 LINE",
"271 635 LINE",
"367 635 OFFCURVE",
"386 615 OFFCURVE",
"417 554 CURVE",
"184 79 LINE",
"131 79 OFFCURVE",
"101 86 OFFCURVE",
"101 142 CURVE",
"16 142 LINE",
"16 55 OFFCURVE",
"50 0 OFFCURVE",
"156 0 CURVE SMOOTH"
);
},
{
closed = 1;
nodes = (
"458 474 LINE",
"631 79 LINE",
"274 79 LINE"
);
}
);
width = 814;
}
);
unicode = 2C86;
},
{
glyphname = uni2C87;
lastChange = "2017-09-06 19:51:29 +0000";
layers = (
{
layerId = UUID0;
paths = (
{
closed = 1;
nodes = (
"648 0 LINE",
"648 71 LINE",
"603 71 OFFCURVE",
"580 78 OFFCURVE",
"553 135 CURVE SMOOTH",
"415 426 LINE SMOOTH",
"378 503 OFFCURVE",
"330 537 OFFCURVE",
"244 537 CURVE SMOOTH",
"205 537 LINE",
"205 466 LINE",
"284 466 OFFCURVE",
"305 453 OFFCURVE",
"327 402 CURVE",
"146 71 LINE",
"109 71 OFFCURVE",
"85 77 OFFCURVE",
"85 119 CURVE",
"10 119 LINE",
"10 53 OFFCURVE",
"35 0 OFFCURVE",
"115 0 CURVE SMOOTH"
);
},
{
closed = 1;
nodes = (
"370 328 LINE",
"495 71 LINE",
"237 71 LINE"
);
}
);
width = 658;
}
);
unicode = 2C87;
},
{
glyphname = uni2C88;
lastChange = "2017-09-06 19:51:29 +0000";
layers = (
{
layerId = UUID0;
paths = (
{
closed = 1;
nodes = (
"470 -10 OFFCURVE",
"532 -1 OFFCURVE",
"586 19 CURVE",
"586 97 LINE",
"530 81 OFFCURVE",
"472 69 OFFCURVE",
"407 69 CURVE SMOOTH",
"245 69 OFFCURVE",
"163 164 OFFCURVE",
"156 333 CURVE",
"506 333 LINE",
"506 411 LINE",
"158 411 LINE",
"175 566 OFFCURVE",
"266 645 OFFCURVE",
"407 645 CURVE SMOOTH",
"475 645 OFFCURVE",
"530 627 OFFCURVE",
"577 604 CURVE",
"614 681 LINE",
"559 708 OFFCURVE",
"495 725 OFFCURVE",
"409 725 CURVE SMOOTH",
"183 725 OFFCURVE",
"61 578 OFFCURVE",
"61 358 CURVE SMOOTH",
"61 137 OFFCURVE",
"163 -10 OFFCURVE",
"395 -10 CURVE SMOOTH"
);
}
);
width = 643;
}
);
unicode = 2C88;
},
{
glyphname = uni2C89;
lastChange = "2017-09-06 19:51:29 +0000";
layers = (
{
layerId = UUID0;
paths = (
{
closed = 1;
nodes = (
"372 -10 OFFCURVE",
"415 0 OFFCURVE",
"453 19 CURVE",
"453 95 LINE",
"413 79 OFFCURVE",
"368 65 OFFCURVE",
"308 65 CURVE SMOOTH",
"204 65 OFFCURVE",
"151 121 OFFCURVE",
"145 240 CURVE",
"409 240 LINE",
"409 312 LINE",
"146 312 LINE",
"157 419 OFFCURVE",
"208 470 OFFCURVE",
"311 470 CURVE SMOOTH",
"349 470 OFFCURVE",
"398 459 OFFCURVE",
"435 445 CURVE",
"461 517 LINE",
"423 534 OFFCURVE",
"367 546 OFFCURVE",
"313 546 CURVE SMOOTH",
"166 546 OFFCURVE",
"55 465 OFFCURVE",
"55 265 CURVE SMOOTH",
"55 72 OFFCURVE",
"162 -10 OFFCURVE",
"310 -10 CURVE SMOOTH"
);
}
);
width = 495;
}
);
unicode = 2C89;
},
{
glyphname = uni2C8A;
lastChange = "2017-09-06 19:51:29 +0000";
layers = (
{
layerId = UUID0;
paths = (
{
closed = 1;
nodes = (
"388 -70 OFFCURVE",
"469 10 OFFCURVE",
"469 118 CURVE SMOOTH",
"469 346 OFFCURVE",
"136 328 OFFCURVE",
"136 503 CURVE SMOOTH",
"136 579 OFFCURVE",
"179 641 OFFCURVE",
"274 641 CURVE SMOOTH",
"334 641 OFFCURVE",
"371 625 OFFCURVE",
"425 625 CURVE SMOOTH",
"498 625 OFFCURVE",
"542 646 OFFCURVE",
"580 703 CURVE",
"518 747 LINE",
"497 718 OFFCURVE",
"474 703 OFFCURVE",
"422 703 CURVE SMOOTH",
"380 703 OFFCURVE",
"348 719 OFFCURVE",
"280 719 CURVE SMOOTH",
"139 719 OFFCURVE",
"45 629 OFFCURVE",
"45 502 CURVE SMOOTH",
"45 264 OFFCURVE",
"379 282 OFFCURVE",
"379 111 CURVE SMOOTH",
"379 42 OFFCURVE",
"330 8 OFFCURVE",
"268 8 CURVE SMOOTH",
"250 8 OFFCURVE",
"232 9 OFFCURVE",
"215 11 CURVE",
"215 -69 LINE",
"230 -70 OFFCURVE",
"248 -70 OFFCURVE",
"264 -70 CURVE SMOOTH"
);
}
);
width = 556;
}
);
unicode = 2C8A;
},
{
glyphname = uni2C8B;
lastChange = "2017-09-06 19:51:29 +0000";
layers = (
{
layerId = UUID0;
paths = (
{
closed = 1;
nodes = (
"364 -176 OFFCURVE",
"427 -78 OFFCURVE",
"427 7 CURVE SMOOTH",
"427 208 OFFCURVE",
"132 192 OFFCURVE",
"132 353 CURVE SMOOTH",
"132 416 OFFCURVE",
"171 470 OFFCURVE",
"249 470 CURVE SMOOTH",
"297 470 OFFCURVE",
"327 458 OFFCURVE",
"387 458 CURVE SMOOTH",
"448 458 OFFCURVE",
"484 484 OFFCURVE",
"513 531 CURVE",
"455 571 LINE",
"435 541 OFFCURVE",
"412 530 OFFCURVE",
"380 530 CURVE SMOOTH",
"338 530 OFFCURVE",
"301 543 OFFCURVE",
"247 543 CURVE SMOOTH",
"138 543 OFFCURVE",
"48 472 OFFCURVE",
"48 354 CURVE SMOOTH",
"48 136 OFFCURVE",
"337 152 OFFCURVE",
"337 1 CURVE SMOOTH",
"337 -49 OFFCURVE",
"307 -100 OFFCURVE",
"237 -100 CURVE SMOOTH",
"225 -100 OFFCURVE",
"220 -99 OFFCURVE",
"210 -98 CURVE",
"210 -174 LINE",
"217 -175 OFFCURVE",
"225 -176 OFFCURVE",
"238 -176 CURVE SMOOTH"
);
}
);
width = 479;
}
);
unicode = 2C8B;
},
{
glyphname = uni2C8C;
lastChange = "2017-09-06 19:51:29 +0000";
layers = (
{
layerId = UUID0;
paths = (
{
closed = 1;
nodes = (
"523 714 LINE",
"50 714 LINE",
"50 634 LINE",
"414 634 LINE",
"38 68 LINE",
"38 0 LINE",
"382 0 LINE SMOOTH",
"452 0 OFFCURVE",
"467 -29 OFFCURVE",
"468 -91 CURVE",
"555 -91 LINE",
"555 31 OFFCURVE",
"521 80 OFFCURVE",
"404 80 CURVE SMOOTH",
"147 80 LINE",
"523 646 LINE"
);
}
);
width = 572;
}
);
unicode = 2C8C;
},
{
glyphname = uni2C8D;
lastChange = "2017-09-06 19:51:29 +0000";
layers = (
{
layerId = UUID0;
paths = (
{
closed = 1;
nodes = (
"453 -91 LINE",
"451 19 OFFCURVE",
"436 68 OFFCURVE",
"313 68 CURVE SMOOTH",
"140 68 LINE",
"424 470 LINE",
"424 536 LINE",
"56 536 LINE",
"56 468 LINE",
"327 468 LINE",
"39 58 LINE",
"39 0 LINE",
"293 0 LINE SMOOTH",
"362 0 OFFCURVE",
"373 -18 OFFCURVE",
"373 -91 CURVE"
);
}
);
width = 454;
}
);
unicode = 2C8D;
},
{
glyphname = uni2C8E;
lastChange = "2017-09-06 19:51:29 +0000";
layers = (
{
layerId = UUID0;
paths = (
{
closed = 1;
nodes = (
"187 0 LINE",
"187 333 LINE",
"553 333 LINE",
"553 0 LINE",
"643 0 LINE",
"643 714 LINE",
"553 714 LINE",
"553 412 LINE",
"187 412 LINE",
"187 714 LINE",
"97 714 LINE",
"97 0 LINE"
);
}
);
width = 741;
}
);
unicode = 2C8E;
},
{
glyphname = uni2C8F;
lastChange = "2017-09-06 19:51:29 +0000";
layers = (
{
layerId = UUID0;
paths = (
{
closed = 1;
nodes = (
"173 0 LINE",
"173 239 LINE",
"464 239 LINE",
"464 0 LINE",
"552 0 LINE",
"552 536 LINE",
"464 536 LINE",
"464 313 LINE",
"173 313 LINE",
"173 536 LINE",
"85 536 LINE",
"85 0 LINE"
);
}
);
width = 637;
}
);
unicode = 2C8F;
},
{
glyphname = uni2C90;
lastChange = "2017-09-06 19:51:29 +0000";
layers = (
{
layerId = UUID0;
paths = (
{
closed = 1;
nodes = (
"606 -10 OFFCURVE",
"720 137 OFFCURVE",
"720 358 CURVE SMOOTH",
"720 580 OFFCURVE",
"606 725 OFFCURVE",
"392 725 CURVE SMOOTH",
"168 725 OFFCURVE",
"61 578 OFFCURVE",
"61 359 CURVE SMOOTH",
"61 138 OFFCURVE",
"168 -10 OFFCURVE",
"391 -10 CURVE SMOOTH"
);
},
{
closed = 1;
nodes = (
"238 68 OFFCURVE",
"165 164 OFFCURVE",
"157 325 CURVE",
"624 325 LINE",
"616 164 OFFCURVE",
"543 68 OFFCURVE",
"391 68 CURVE SMOOTH"
);
},
{
closed = 1;
nodes = (
"169 555 OFFCURVE",
"242 646 OFFCURVE",
"392 646 CURVE SMOOTH",
"540 646 OFFCURVE",
"611 555 OFFCURVE",
"623 403 CURVE",
"157 403 LINE"
);
}
);
width = 782;
}
);
unicode = 2C90;
},
{
glyphname = uni2C91;
lastChange = "2017-09-06 19:51:29 +0000";
layers = (
{
layerId = UUID0;
paths = (
{
closed = 1;
nodes = (
"454 -10 OFFCURVE",
"551 91 OFFCURVE",
"551 269 CURVE SMOOTH",
"551 446 OFFCURVE",
"449 546 OFFCURVE",
"304 546 CURVE SMOOTH",
"150 546 OFFCURVE",
"55 446 OFFCURVE",
"55 269 CURVE SMOOTH",
"55 91 OFFCURVE",
"159 -10 OFFCURVE",
"301 -10 CURVE SMOOTH"
);
},
{
closed = 1;
nodes = (
"202 63 OFFCURVE",
"152 124 OFFCURVE",
"146 239 CURVE",
"459 239 LINE",
"452 124 OFFCURVE",
"405 63 OFFCURVE",
"303 63 CURVE SMOOTH"
);
},
{
closed = 1;
nodes = (
"156 417 OFFCURVE",
"203 472 OFFCURVE",
"302 472 CURVE SMOOTH",
"399 472 OFFCURVE",
"449 417 OFFCURVE",
"459 312 CURVE",
"147 312 LINE"
);
}
);
width = 605;
}
);
unicode = 2C91;
},
{
glyphname = uni2C92;
lastChange = "2017-09-06 19:51:29 +0000";
layers = (
{
layerId = UUID0;
paths = (
{
closed = 1;
nodes = (
"187 0 LINE",
"187 714 LINE",
"97 714 LINE",
"97 0 LINE"
);
}
);
width = 284;
}
);
unicode = 2C92;
},
{
glyphname = uni2C93;
lastChange = "2017-09-06 19:51:29 +0000";
layers = (
{
layerId = UUID0;
paths = (
{
closed = 1;
nodes = (
"173 0 LINE",
"173 536 LINE",
"85 536 LINE",
"85 0 LINE"
);
}
);
width = 258;
}
);
unicode = 2C93;
},
{
glyphname = uni2C94;
lastChange = "2017-09-06 19:51:29 +0000";
layers = (
{
layerId = UUID0;
paths = (
{
closed = 1;
nodes = (
"187 0 LINE",
"187 277 LINE",
"260 341 LINE",
"513 0 LINE",
"619 0 LINE",
"325 403 LINE",
"608 714 LINE",
"503 714 LINE",
"310 498 LINE SMOOTH",
"269 452 OFFCURVE",
"227 407 OFFCURVE",
"187 362 CURVE",
"187 714 LINE",
"97 714 LINE",
"97 0 LINE"
);
}
);
width = 619;
}
);
unicode = 2C94;
},
{
glyphname = uni2C95;
lastChange = "2017-09-06 19:51:29 +0000";
layers = (
{
layerId = UUID0;
paths = (
{
closed = 1;
nodes = (
"178 0 LINE",
"178 188 LINE",
"244 242 LINE",
"303 161 OFFCURVE",
"362 80 OFFCURVE",
"420 0 CURVE",
"525 0 LINE",
"453 99 OFFCURVE",
"378 198 OFFCURVE",
"306 298 CURVE",
"374 377 OFFCURVE",
"442 456 OFFCURVE",
"509 535 CURVE",
"403 535 LINE",
"172 262 LINE",
"175 289 OFFCURVE",
"178 343 OFFCURVE",
"178 396 CURVE SMOOTH",
"178 535 LINE",
"85 535 LINE",
"85 0 LINE"
);
}
);
width = 534;
}
);
unicode = 2C95;
},
{
glyphname = uni2C96;
lastChange = "2017-09-06 19:51:29 +0000";
layers = (
{
layerId = UUID0;
paths = (
{
closed = 1;
nodes = (
"548 -10 OFFCURVE",
"569 -5 OFFCURVE",
"584 2 CURVE",
"584 67 LINE",
"577 65 OFFCURVE",
"564 62 OFFCURVE",
"554 62 CURVE SMOOTH",
"531 62 OFFCURVE",
"515 77 OFFCURVE",
"495 130 CURVE SMOOTH",
"316 599 LINE SMOOTH",
"281 690 OFFCURVE",
"238 724 OFFCURVE",
"169 724 CURVE SMOOTH",
"140 724 OFFCURVE",
"113 718 OFFCURVE",
"95 710 CURVE",
"115 637 LINE",
"124 641 OFFCURVE",
"137 645 OFFCURVE",
"151 645 CURVE SMOOTH",
"182 645 OFFCURVE",
"210 627 OFFCURVE",
"232 569 CURVE SMOOTH",
"258 502 LINE",
"-2 0 LINE",
"94 0 LINE",
"299 403 LINE",
"414 89 LINE SMOOTH",
"443 9 OFFCURVE",
"476 -10 OFFCURVE",
"525 -10 CURVE SMOOTH"
);
}
);
width = 581;
}
);
unicode = 2C96;
},
{
glyphname = uni2C97;
lastChange = "2017-09-06 19:51:29 +0000";
layers = (
{
layerId = UUID0;
paths = (
{
closed = 1;
nodes = (
"101 467 LINE",
"144 467 OFFCURVE",
"160 461 OFFCURVE",
"182 414 CURVE SMOOTH",
"199 378 LINE",
"-15 0 LINE",
"74 0 LINE",
"238 294 LINE",
"316 119 LINE SMOOTH",
"360 19 OFFCURVE",
"377 0 OFFCURVE",
"457 0 CURVE SMOOTH",
"471 0 LINE",
"471 70 LINE",
"437 70 OFFCURVE",
"425 78 OFFCURVE",
"400 134 CURVE SMOOTH",
"259 446 LINE SMOOTH",
"224 523 OFFCURVE",
"192 536 OFFCURVE",
"119 536 CURVE SMOOTH",
"101 536 LINE"
);
}
);
width = 467;
}
);
unicode = 2C97;
},
{
glyphname = uni2C98;
lastChange = "2017-09-06 19:51:29 +0000";
layers = (
{
layerId = UUID0;
paths = (
{
closed = 1;
nodes = (
"613 544 LINE SMOOTH",
"613 333 OFFCURVE",
"521 117 OFFCURVE",
"402 117 CURVE SMOOTH",
"284 117 OFFCURVE",
"187 313 OFFCURVE",
"187 546 CURVE SMOOTH",
"187 714 LINE",
"97 714 LINE",
"97 0 LINE",
"187 0 LINE",
"187 214 LINE",
"230 89 OFFCURVE",
"306 22 OFFCURVE",
"399 22 CURVE SMOOTH",
"496 22 OFFCURVE",
"556 81 OFFCURVE",
"613 214 CURVE",
"613 0 LINE",
"703 0 LINE",
"703 714 LINE",
"613 714 LINE"
);
}
);
width = 800;
}
);
unicode = 2C98;
},
{
glyphname = uni2C99;
lastChange = "2017-09-06 19:51:29 +0000";
layers = (
{
layerId = UUID0;
paths = (
{
closed = 1;
nodes = (
"464 -8 OFFCURVE",
"526 55 OFFCURVE",
"566 214 CURVE",
"568 214 LINE",
"572 143 OFFCURVE",
"586 77 OFFCURVE",
"605 0 CURVE",
"690 0 LINE",
"673 54 OFFCURVE",
"639 168 OFFCURVE",
"618 325 CURVE",
"624 536 LINE",
"526 536 LINE",
"528 325 LINE",
"494 176 OFFCURVE",
"448 84 OFFCURVE",
"372 84 CURVE SMOOTH",
"315 84 OFFCURVE",
"268 149 OFFCURVE",
"238 325 CURVE",
"243 536 LINE",
"143 536 LINE",
"148 325 LINE",
"120 186 OFFCURVE",
"86 82 OFFCURVE",
"60 0 CURVE",
"144 0 LINE",
"161 71 OFFCURVE",
"181 132 OFFCURVE",
"189 214 CURVE",
"191 214 LINE",
"217 56 OFFCURVE",
"285 -8 OFFCURVE",
"371 -8 CURVE SMOOTH"
);
}
);
width = 746;
}
);
unicode = 2C99;
},
{
glyphname = uni2C9A;
lastChange = "2017-09-06 19:51:29 +0000";
layers = (
{
layerId = UUID0;
paths = (
{
closed = 1;
nodes = (
"187 0 LINE",
"187 399 LINE SMOOTH",
"187 472 OFFCURVE",
"182 546 OFFCURVE",
"179 593 CURVE",
"183 593 LINE",
"550 0 LINE",
"655 0 LINE",
"655 714 LINE",
"564 714 LINE",
"564 311 LINE SMOOTH",
"564 246 OFFCURVE",
"569 155 OFFCURVE",
"571 123 CURVE",
"567 123 LINE",
"201 714 LINE",
"97 714 LINE",
"97 0 LINE"
);
}
);
width = 760;
}
);
unicode = 2C9A;
},
{
glyphname = uni2C9B;
lastChange = "2017-09-06 19:51:29 +0000";
layers = (
{
layerId = UUID0;
paths = (
{
closed = 1;
nodes = (
"173 0 LINE",
"173 405 LINE",
"464 83 LINE",
"464 0 LINE",
"552 0 LINE",
"552 536 LINE",
"464 536 LINE",
"464 204 LINE",
"173 536 LINE",
"85 536 LINE",
"85 0 LINE"
);
}
);
width = 632;
}
);
unicode = 2C9B;
},
{
glyphname = uni2C9C;
lastChange = "2017-09-06 19:51:29 +0000";
layers = (
{
layerId = UUID0;
paths = (
{
closed = 1;
nodes = (
"513 642 LINE",
"513 714 LINE",
"50 714 LINE",
"50 634 LINE",
"161 634 LINE SMOOTH",
"260 634 OFFCURVE",
"335 637 OFFCURVE",
"390 643 CURVE",
"390 641 LINE",
"98 429 LINE",
"98 362 LINE",
"206 362 LINE SMOOTH",
"321 362 OFFCURVE",
"418 352 OFFCURVE",
"418 264 CURVE SMOOTH",
"418 168 OFFCURVE",
"245 100 OFFCURVE",
"38 80 CURVE",
"38 0 LINE",
"382 0 LINE SMOOTH",
"452 0 OFFCURVE",
"467 -29 OFFCURVE",
"468 -91 CURVE",
"555 -91 LINE",
"555 -29 OFFCURVE",
"546 10 OFFCURVE",
"527 35 CURVE SMOOTH",
"496 77 OFFCURVE",
"442 80 OFFCURVE",
"390 80 CURVE SMOOTH",
"334 80 OFFCURVE",
"275 74 OFFCURVE",
"260 72 CURVE",
"260 76 LINE",
"429 111 OFFCURVE",
"522 180 OFFCURVE",
"522 274 CURVE SMOOTH",
"522 385 OFFCURVE",
"436 434 OFFCURVE",
"229 434 CURVE",
"229 437 LINE"
);
}
);
width = 572;
}
);
unicode = 2C9C;
},
{
glyphname = uni2C9D;
lastChange = "2017-09-06 19:51:29 +0000";
layers = (
{
layerId = UUID0;
paths = (
{
closed = 1;
nodes = (
"269 0 LINE SMOOTH",
"353 0 OFFCURVE",
"372 -18 OFFCURVE",
"372 -91 CURVE",
"452 -91 LINE",
"450 19 OFFCURVE",
"441 62 OFFCURVE",
"330 62 CURVE SMOOTH",
"312 62 LINE SMOOTH",
"284 62 OFFCURVE",
"245 57 OFFCURVE",
"228 55 CURVE",
"228 59 LINE",
"380 84 OFFCURVE",
"425 144 OFFCURVE",
"425 215 CURVE SMOOTH",
"425 282 OFFCURVE",
"375 332 OFFCURVE",
"197 332 CURVE",
"197 335 LINE",
"419 465 LINE",
"419 536 LINE",
"41 536 LINE",
"41 468 LINE",
"185 468 LINE SMOOTH",
"237 468 OFFCURVE",
"295 470 OFFCURVE",
"319 471 CURVE",
"319 467 LINE",
"299 459 OFFCURVE",
"250 436 OFFCURVE",
"210 411 CURVE SMOOTH",
"90 335 LINE",
"90 275 LINE",
"172 275 LINE SMOOTH",
"290 275 OFFCURVE",
"338 250 OFFCURVE",
"338 200 CURVE SMOOTH",
"338 153 OFFCURVE",
"293 111 OFFCURVE",
"154 81 CURVE SMOOTH",
"123 74 OFFCURVE",
"79 69 OFFCURVE",
"44 66 CURVE",
"44 0 LINE"
);
}
);
width = 470;
}
);
unicode = 2C9D;
},
{
glyphname = uni2C9E;
lastChange = "2017-09-06 19:51:29 +0000";
layers = (
{
layerId = UUID0;
paths = (
{
closed = 1;
nodes = (
"606 -10 OFFCURVE",
"720 137 OFFCURVE",
"720 358 CURVE SMOOTH",
"720 580 OFFCURVE",
"606 725 OFFCURVE",
"392 725 CURVE SMOOTH",
"168 725 OFFCURVE",
"61 578 OFFCURVE",
"61 359 CURVE SMOOTH",
"61 138 OFFCURVE",
"168 -10 OFFCURVE",
"391 -10 CURVE SMOOTH"
);
},
{
closed = 1;
nodes = (
"230 68 OFFCURVE",
"156 178 OFFCURVE",
"156 358 CURVE SMOOTH",
"156 538 OFFCURVE",
"230 646 OFFCURVE",
"392 646 CURVE SMOOTH",
"553 646 OFFCURVE",
"625 538 OFFCURVE",
"625 358 CURVE SMOOTH",
"625 178 OFFCURVE",
"553 68 OFFCURVE",
"391 68 CURVE SMOOTH"
);
}
);
width = 781;
}
);
unicode = 2C9E;
},
{
glyphname = uni2C9F;
lastChange = "2017-09-06 19:51:29 +0000";
layers = (
{
layerId = UUID0;
paths = (
{
closed = 1;
nodes = (
"454 -10 OFFCURVE",
"551 91 OFFCURVE",
"551 269 CURVE SMOOTH",
"551 446 OFFCURVE",
"449 546 OFFCURVE",
"304 546 CURVE SMOOTH",
"150 546 OFFCURVE",
"55 446 OFFCURVE",
"55 269 CURVE SMOOTH",
"55 91 OFFCURVE",
"159 -10 OFFCURVE",
"301 -10 CURVE SMOOTH"
);
},
{
closed = 1;
nodes = (
"194 63 OFFCURVE",
"146 142 OFFCURVE",
"146 269 CURVE SMOOTH",
"146 396 OFFCURVE",
"193 472 OFFCURVE",
"302 472 CURVE SMOOTH",
"411 472 OFFCURVE",
"460 396 OFFCURVE",
"460 269 CURVE SMOOTH",
"460 142 OFFCURVE",
"411 63 OFFCURVE",
"303 63 CURVE SMOOTH"
);
}
);
width = 605;
}
);
unicode = 2C9F;
},
{
glyphname = uni2CA0;
lastChange = "2017-09-06 19:51:29 +0000";
layers = (
{
layerId = UUID0;
paths = (
{
closed = 1;
nodes = (
"187 0 LINE",
"187 635 LINE",
"544 635 LINE",
"544 0 LINE",
"633 0 LINE",
"633 714 LINE",
"97 714 LINE",
"97 0 LINE"
);
}
);
width = 731;
}
);
unicode = 2CA0;
},
{
glyphname = uni2CA1;
lastChange = "2017-09-06 19:51:29 +0000";
layers = (
{
layerId = UUID0;
paths = (
{
closed = 1;
nodes = (
"173 0 LINE",
"173 461 LINE",
"450 461 LINE",
"450 0 LINE",
"538 0 LINE",
"538 536 LINE",
"85 536 LINE",
"85 0 LINE"
);
}
);
width = 624;
}
);
unicode = 2CA1;
},
{
glyphname = uni2CA2;
lastChange = "2017-09-06 19:51:29 +0000";
layers = (
{
layerId = UUID0;
paths = (
{
closed = 1;
nodes = (
"187 0 LINE",
"187 278 LINE",
"269 278 LINE SMOOTH",
"483 278 OFFCURVE",
"554 386 OFFCURVE",
"554 504 CURVE SMOOTH",
"554 637 OFFCURVE",
"473 714 OFFCURVE",
"286 714 CURVE SMOOTH",
"97 714 LINE",
"97 0 LINE"
);
},
{
closed = 1;
nodes = (
"187 637 LINE",
"278 637 LINE SMOOTH",
"404 637 OFFCURVE",
"461 592 OFFCURVE",
"461 500 CURVE SMOOTH",
"461 395 OFFCURVE",
"395 355 OFFCURVE",
"259 355 CURVE SMOOTH",
"187 355 LINE"
);
}
);
width = 605;
}
);
unicode = 2CA2;
},
{
glyphname = uni2CA3;
lastChange = "2017-09-06 19:51:29 +0000";
layers = (
{
layerId = UUID0;
paths = (
{
closed = 1;
nodes = (
"175 -240 LINE",
"175 123 LINE",
"252 123 LINE SMOOTH",
"410 123 OFFCURVE",
"490 211 OFFCURVE",
"490 335 CURVE SMOOTH",
"490 444 OFFCURVE",
"426 536 OFFCURVE",
"268 536 CURVE SMOOTH",
"86 536 LINE",
"86 -240 LINE"
);
},
{
closed = 1;
nodes = (
"175 465 LINE",
"255 465 LINE SMOOTH",
"353 465 OFFCURVE",
"399 412 OFFCURVE",
"399 332 CURVE SMOOTH",
"399 241 OFFCURVE",
"345 194 OFFCURVE",
"247 194 CURVE SMOOTH",
"175 194 LINE"
);
}
);
width = 530;
}
);
unicode = 2CA3;
},
{
glyphname = uni2CA4;
lastChange = "2017-09-06 19:51:29 +0000";
layers = (
{
layerId = UUID0;
paths = (
{
closed = 1;
nodes = (
"468 -10 OFFCURVE",
"520 -1 OFFCURVE",
"573 19 CURVE",
"573 97 LINE",
"519 81 OFFCURVE",
"464 69 OFFCURVE",
"402 69 CURVE SMOOTH",
"238 69 OFFCURVE",
"156 180 OFFCURVE",
"156 357 CURVE SMOOTH",
"156 536 OFFCURVE",
"250 645 OFFCURVE",
"403 645 CURVE SMOOTH",
"467 645 OFFCURVE",
"521 626 OFFCURVE",
"565 606 CURVE",
"601 682 LINE",
"547 709 OFFCURVE",
"477 724 OFFCURVE",
"404 724 CURVE SMOOTH",
"183 724 OFFCURVE",
"61 574 OFFCURVE",
"61 358 CURVE SMOOTH",
"61 133 OFFCURVE",
"170 -10 OFFCURVE",
"389 -10 CURVE SMOOTH"
);
}
);
width = 632;
}
);
unicode = 2CA4;
},
{
glyphname = uni2CA5;
lastChange = "2017-09-06 19:51:29 +0000";
layers = (
{
layerId = UUID0;
paths = (
{
closed = 1;
nodes = (
"361 -10 OFFCURVE",
"402 0 OFFCURVE",
"438 19 CURVE",
"438 97 LINE",
"401 80 OFFCURVE",
"357 66 OFFCURVE",
"299 66 CURVE SMOOTH",
"198 66 OFFCURVE",
"146 137 OFFCURVE",
"146 266 CURVE SMOOTH",
"146 400 OFFCURVE",
"197 469 OFFCURVE",
"304 469 CURVE SMOOTH",
"341 469 OFFCURVE",
"388 456 OFFCURVE",
"420 444 CURVE",
"447 517 LINE",
"415 533 OFFCURVE",
"360 546 OFFCURVE",
"306 546 CURVE SMOOTH",
"162 546 OFFCURVE",
"55 463 OFFCURVE",
"55 265 CURVE SMOOTH",
"55 75 OFFCURVE",
"157 -10 OFFCURVE",
"300 -10 CURVE SMOOTH"
);
}
);
width = 480;
}
);
unicode = 2CA5;
},
{
glyphname = uni2CA6;
lastChange = "2017-09-06 19:51:29 +0000";
layers = (
{
layerId = UUID0;
paths = (
{
closed = 1;
nodes = (
"350 0 LINE",
"350 635 LINE",
"452 635 LINE SMOOTH",
"496 635 OFFCURVE",
"513 609 OFFCURVE",
"513 571 CURVE",
"599 571 LINE",
"599 638 OFFCURVE",
"576 714 OFFCURVE",
"457 714 CURVE SMOOTH",
"153 714 LINE SMOOTH",
"34 714 OFFCURVE",
"11 638 OFFCURVE",
"11 571 CURVE",
"97 571 LINE",
"97 609 OFFCURVE",
"114 635 OFFCURVE",
"158 635 CURVE SMOOTH",
"260 635 LINE",
"260 0 LINE"
);
}
);
width = 610;
}
);
unicode = 2CA6;
},
{
glyphname = uni2CA7;
lastChange = "2017-09-06 19:51:29 +0000";
layers = (
{
layerId = UUID0;
paths = (
{
closed = 1;
nodes = (
"328 0 LINE",
"328 462 LINE",
"425 462 LINE SMOOTH",
"456 462 OFFCURVE",
"472 445 OFFCURVE",
"472 415 CURVE",
"551 415 LINE",
"551 465 OFFCURVE",
"534 536 OFFCURVE",
"432 536 CURVE SMOOTH",
"135 536 LINE SMOOTH",
"33 536 OFFCURVE",
"16 465 OFFCURVE",
"16 415 CURVE",
"95 415 LINE",
"95 445 OFFCURVE",
"111 462 OFFCURVE",
"142 462 CURVE SMOOTH",
"239 462 LINE",
"239 0 LINE"
);
}
);
width = 567;
}
);
unicode = 2CA7;
},
{
glyphname = uni2CA8;
lastChange = "2017-09-06 19:51:29 +0000";
layers = (
{
layerId = UUID0;
paths = (
{
closed = 1;
nodes = (
"328 0 LINE",
"328 277 LINE",
"566 714 LINE",
"469 714 LINE",
"283 363 LINE",
"98 714 LINE",
"0 714 LINE",
"238 273 LINE",
"238 0 LINE"
);
}
);
width = 566;
}
);
unicode = 2CA8;
},
{
glyphname = uni2CA9;
lastChange = "2017-09-06 19:51:29 +0000";
layers = (
{
layerId = UUID0;
paths = (
{
closed = 1;
nodes = (
"298 -240 LINE",
"298 134 LINE",
"550 536 LINE",
"444 536 LINE",
"254 220 LINE",
"64 536 LINE",
"-42 536 LINE",
"210 134 LINE",
"210 -240 LINE"
);
}
);
width = 508;
}
);
unicode = 2CA9;
},
{
glyphname = uni2CAA;
lastChange = "2017-09-06 19:51:29 +0000";
layers = (
{
layerId = UUID0;
paths = (
{
closed = 1;
nodes = (
"446 -10 LINE",
"446 100 LINE",
"465 100 LINE SMOOTH",
"679 100 OFFCURVE",
"752 245 OFFCURVE",
"752 370 CURVE SMOOTH",
"752 507 OFFCURVE",
"670 636 OFFCURVE",
"479 636 CURVE SMOOTH",
"446 636 LINE",
"446 724 LINE",
"357 724 LINE",
"357 636 LINE",
"325 636 LINE SMOOTH",
"135 636 OFFCURVE",
"51 503 OFFCURVE",
"51 370 CURVE SMOOTH",
"51 249 OFFCURVE",
"122 100 OFFCURVE",
"336 100 CURVE SMOOTH",
"357 100 LINE",
"357 -10 LINE"
);
},
{
closed = 1;
nodes = (
"209 174 OFFCURVE",
"142 255 OFFCURVE",
"142 371 CURVE SMOOTH",
"142 476 OFFCURVE",
"202 560 OFFCURVE",
"330 560 CURVE SMOOTH",
"357 560 LINE",
"357 174 LINE",
"346 174 LINE SMOOTH"
);
},
{
closed = 1;
nodes = (
"446 560 LINE",
"473 560 LINE SMOOTH",
"601 560 OFFCURVE",
"661 478 OFFCURVE",
"661 371 CURVE SMOOTH",
"661 256 OFFCURVE",
"594 174 OFFCURVE",
"458 174 CURVE SMOOTH",
"446 174 LINE"
);
}
);
width = 804;
}
);
unicode = 2CAA;
},
{
glyphname = uni2CAB;
lastChange = "2017-09-06 19:51:29 +0000";
layers = (
{
layerId = UUID0;
paths = (
{
closed = 1;
nodes = (
"405 -240 LINE",
"405 -8 LINE",
"570 6 OFFCURVE",
"670 106 OFFCURVE",
"670 268 CURVE SMOOTH",
"670 430 OFFCURVE",
"564 529 OFFCURVE",
"405 544 CURVE",
"405 760 LINE",
"322 760 LINE",
"322 544 LINE",
"153 531 OFFCURVE",
"54 431 OFFCURVE",
"54 268 CURVE SMOOTH",
"54 105 OFFCURVE",
"160 5 OFFCURVE",
"319 -8 CURVE",
"319 -240 LINE"
);
},
{
closed = 1;
nodes = (
"200 76 OFFCURVE",
"146 147 OFFCURVE",
"146 268 CURVE SMOOTH",
"146 389 OFFCURVE",
"199 459 OFFCURVE",
"322 471 CURVE",
"322 64 LINE"
);
},
{
closed = 1;
nodes = (
"405 470 LINE",
"523 457 OFFCURVE",
"579 388 OFFCURVE",
"579 268 CURVE SMOOTH",
"579 148 OFFCURVE",
"525 77 OFFCURVE",
"405 64 CURVE"
);
}
);
width = 725;
}
);
unicode = 2CAB;
},
{
glyphname = uni2CAC;
lastChange = "2017-09-06 19:51:29 +0000";
layers = (
{
layerId = UUID0;
paths = (
{
closed = 1;
nodes = (
"99 0 LINE",
"291 310 LINE",
"480 0 LINE",
"582 0 LINE",
"344 374 LINE",
"565 714 LINE",
"470 714 LINE",
"294 434 LINE",
"119 714 LINE",
"19 714 LINE",
"241 372 LINE",
"4 0 LINE"
);
}
);
width = 586;
}
);
unicode = 2CAC;
},
{
glyphname = uni2CAD;
lastChange = "2017-09-06 19:51:29 +0000";
layers = (
{
layerId = UUID0;
paths = (
{
closed = 1;
nodes = (
"117 0 LINE",
"265 214 LINE",
"411 0 LINE",
"511 0 LINE",
"316 274 LINE",
"501 536 LINE",
"402 536 LINE",
"265 334 LINE",
"127 536 LINE",
"27 536 LINE",
"212 274 LINE",
"18 0 LINE"
);
}
);
width = 529;
}
);
unicode = 2CAD;
},
{
glyphname = uni2CAE;
lastChange = "2017-09-06 19:51:29 +0000";
layers = (
{
layerId = UUID0;
paths = (
{
closed = 1;
nodes = (
"460 0 LINE",
"460 227 LINE",
"682 241 OFFCURVE",
"786 398 OFFCURVE",
"786 559 CURVE SMOOTH",
"786 624 LINE",
"694 624 LINE",
"694 568 LINE SMOOTH",
"694 406 OFFCURVE",
"605 316 OFFCURVE",
"460 304 CURVE",
"460 714 LINE",
"372 714 LINE",
"372 304 LINE",
"235 309 OFFCURVE",
"138 401 OFFCURVE",
"138 570 CURVE SMOOTH",
"138 624 LINE",
"48 624 LINE",
"48 560 LINE SMOOTH",
"48 379 OFFCURVE",
"155 239 OFFCURVE",
"372 227 CURVE",
"372 0 LINE"
);
}
);
width = 834;
}
);
unicode = 2CAE;
},
{
glyphname = uni2CAF;
lastChange = "2017-09-06 19:51:29 +0000";
layers = (
{
layerId = UUID0;
paths = (
{
closed = 1;
nodes = (
"391 -240 LINE",
"391 109 LINE",
"587 121 OFFCURVE",
"661 268 OFFCURVE",
"661 405 CURVE SMOOTH",
"661 461 LINE",
"573 461 LINE",
"573 413 LINE SMOOTH",
"573 275 OFFCURVE",
"519 197 OFFCURVE",
"391 187 CURVE",
"391 536 LINE",
"306 536 LINE",
"306 187 LINE",
"185 191 OFFCURVE",
"126 271 OFFCURVE",
"126 415 CURVE SMOOTH",
"126 461 LINE",
"39 461 LINE",
"39 406 LINE SMOOTH",
"39 252 OFFCURVE",
"115 120 OFFCURVE",
"306 109 CURVE",
"306 -240 LINE"
);
}
);
width = 700;
}
);
unicode = 2CAF;
},
{
glyphname = uni2CB0;
lastChange = "2017-09-06 19:51:29 +0000";
layers = (
{
layerId = UUID0;
paths = (
{
closed = 1;
nodes = (
"412 -10 OFFCURVE",
"479 37 OFFCURVE",
"513 141 CURVE",
"516 141 LINE",
"543 38 OFFCURVE",
"618 -10 OFFCURVE",
"703 -10 CURVE SMOOTH",
"861 -10 OFFCURVE",
"971 121 OFFCURVE",
"971 347 CURVE SMOOTH",
"971 502 OFFCURVE",
"913 646 OFFCURVE",
"771 731 CURVE",
"705 674 LINE",
"822 607 OFFCURVE",
"876 488 OFFCURVE",
"876 341 CURVE SMOOTH",
"876 159 OFFCURVE",
"791 72 OFFCURVE",
"702 72 CURVE SMOOTH",
"605 72 OFFCURVE",
"560 143 OFFCURVE",
"560 319 CURVE SMOOTH",
"560 694 LINE",
"470 694 LINE",
"470 319 LINE SMOOTH",
"470 126 OFFCURVE",
"417 72 OFFCURVE",
"329 72 CURVE SMOOTH",
"231 72 OFFCURVE",
"155 168 OFFCURVE",
"155 341 CURVE SMOOTH",
"155 495 OFFCURVE",
"204 599 OFFCURVE",
"322 669 CURVE",
"271 729 LINE",
"128 649 OFFCURVE",
"61 520 OFFCURVE",
"61 341 CURVE SMOOTH",
"61 116 OFFCURVE",
"172 -10 OFFCURVE",
"326 -10 CURVE SMOOTH"
);
}
);
width = 1032;
}
);
unicode = 2CB0;
},
{
glyphname = uni2CB1;
lastChange = "2017-09-06 19:51:29 +0000";
layers = (
{
layerId = UUID0;
paths = (
{
closed = 1;
nodes = (
"338 -10 OFFCURVE",
"381 32 OFFCURVE",
"404 102 CURVE",
"407 102 LINE",
"427 28 OFFCURVE",
"478 -10 OFFCURVE",
"552 -10 CURVE SMOOTH",
"669 -10 OFFCURVE",
"761 102 OFFCURVE",
"761 260 CURVE SMOOTH",
"761 402 OFFCURVE",
"690 508 OFFCURVE",
"627 560 CURVE",
"562 511 LINE",
"622 458 OFFCURVE",
"673 381 OFFCURVE",
"673 260 CURVE SMOOTH",
"673 134 OFFCURVE",
"612 68 OFFCURVE",
"551 68 CURVE SMOOTH",
"479 68 OFFCURVE",
"450 143 OFFCURVE",
"450 224 CURVE SMOOTH",
"450 507 LINE",
"366 507 LINE",
"366 224 LINE SMOOTH",
"366 150 OFFCURVE",
"343 68 OFFCURVE",
"257 68 CURVE SMOOTH",
"194 68 OFFCURVE",
"143 129 OFFCURVE",
"143 257 CURVE SMOOTH",
"143 386 OFFCURVE",
"188 457 OFFCURVE",
"257 511 CURVE",
"194 560 LINE",
"116 502 OFFCURVE",
"55 409 OFFCURVE",
"55 257 CURVE SMOOTH",
"55 83 OFFCURVE",
"148 -10 OFFCURVE",
"249 -10 CURVE SMOOTH"
);
}
);
width = 816;
}
);
unicode = 2CB1;
},
{
glyphname = uni2CB2;
lastChange = "2017-09-06 19:51:29 +0000";
layers = (
{
layerId = UUID0;
paths = (
{
closed = 1;
nodes = (
"637 204 LINE",
"637 291 LINE",
"356 291 LINE",
"356 600 LINE",
"269 600 LINE",
"269 291 LINE",
"10 291 LINE",
"10 204 LINE"
);
}
);
width = 647;
}
);
unicode = 2CB2;
},
{
glyphname = uni2CB3;
lastChange = "2017-09-06 19:51:29 +0000";
layers = (
{
layerId = UUID0;
paths = (
{
closed = 1;
nodes = (
"496 130 LINE",
"496 215 LINE",
"293 215 LINE",
"293 479 LINE",
"209 479 LINE",
"209 215 LINE",
"10 215 LINE",
"10 130 LINE"
);
}
);
width = 506;
}
);
unicode = 2CB3;
},
{
glyphname = uni2CB4;
lastChange = "2017-09-06 19:51:29 +0000";
layers = (
{
layerId = UUID0;
paths = (
{
closed = 1;
nodes = (
"499 0 LINE",
"122 373 LINE",
"488 714 LINE",
"366 714 LINE",
"33 405 LINE",
"33 334 LINE",
"376 0 LINE"
);
},
{
closed = 1;
nodes = (
"483 312 OFFCURVE",
"514 332 OFFCURVE",
"514 376 CURVE SMOOTH",
"514 421 OFFCURVE",
"483 441 OFFCURVE",
"449 441 CURVE SMOOTH",
"412 441 OFFCURVE",
"383 421 OFFCURVE",
"383 376 CURVE SMOOTH",
"383 332 OFFCURVE",
"412 312 OFFCURVE",
"449 312 CURVE SMOOTH"
);
}
);
width = 554;
}
);
unicode = 2CB4;
},
{
glyphname = uni2CB5;
lastChange = "2017-09-06 19:51:29 +0000";
layers = (
{
layerId = UUID0;
paths = (
{
closed = 1;
nodes = (
"461 0 LINE",
"157 289 LINE",
"453 536 LINE",
"323 536 LINE",
"77 325 LINE",
"77 253 LINE",
"336 0 LINE"
);
},
{
closed = 1;
nodes = (
"473 224 OFFCURVE",
"501 243 OFFCURVE",
"501 284 CURVE SMOOTH",
"501 326 OFFCURVE",
"473 344 OFFCURVE",
"441 344 CURVE SMOOTH",
"406 344 OFFCURVE",
"380 326 OFFCURVE",
"380 284 CURVE SMOOTH",
"380 243 OFFCURVE",
"406 224 OFFCURVE",
"441 224 CURVE SMOOTH"
);
}
);
width = 572;
}
);
unicode = 2CB5;
},
{
glyphname = uni2CB6;
lastChange = "2017-09-06 19:51:29 +0000";
layers = (
{
layerId = UUID0;
paths = (
{
closed = 1;
nodes = (
"601 320 LINE",
"601 400 LINE",
"28 400 LINE",
"28 320 LINE"
);
},
{
closed = 1;
nodes = (
"601 0 LINE",
"601 79 LINE",
"28 79 LINE",
"28 0 LINE"
);
},
{
closed = 1;
nodes = (
"601 635 LINE",
"601 714 LINE",
"28 714 LINE",
"28 635 LINE"
);
}
);
width = 630;
}
);
unicode = 2CB6;
},
{
glyphname = uni2CB7;
lastChange = "2017-09-06 19:51:29 +0000";
layers = (
{
layerId = UUID0;
paths = (
{
closed = 1;
nodes = (
"513 459 LINE",
"513 536 LINE",
"34 536 LINE",
"34 459 LINE"
);
},
{
closed = 1;
nodes = (
"513 0 LINE",
"513 77 LINE",
"34 77 LINE",
"34 0 LINE"
);
},
{
closed = 1;
nodes = (
"513 233 LINE",
"513 309 LINE",
"34 309 LINE",
"34 233 LINE"
);
}
);
width = 552;
}
);
unicode = 2CB7;
},
{
glyphname = uni2CB8;
lastChange = "2017-09-06 19:51:29 +0000";
layers = (
{
layerId = UUID0;
paths = (
{
closed = 1;
nodes = (
"526 428 LINE",
"73 714 LINE",
"73 612 LINE",
"427 391 LINE",
"38 92 LINE",
"38 0 LINE",
"382 0 LINE SMOOTH",
"452 0 OFFCURVE",
"467 -29 OFFCURVE",
"468 -91 CURVE",
"555 -91 LINE",
"555 31 OFFCURVE",
"521 80 OFFCURVE",
"404 80 CURVE SMOOTH",
"151 80 LINE",
"526 360 LINE"
);
}
);
width = 572;
}
);
unicode = 2CB8;
},
{
glyphname = uni2CB9;
lastChange = "2017-09-06 19:51:29 +0000";
layers = (
{
layerId = UUID0;
paths = (
{
closed = 1;
nodes = (
"419 336 LINE",
"62 536 LINE",
"62 446 LINE",
"339 293 LINE",
"32 68 LINE",
"32 0 LINE",
"293 0 LINE SMOOTH",
"361 0 OFFCURVE",
"373 -14 OFFCURVE",
"373 -91 CURVE",
"453 -91 LINE",
"451 26 OFFCURVE",
"433 68 OFFCURVE",
"313 68 CURVE SMOOTH",
"145 68 LINE",
"419 260 LINE"
);
}
);
width = 470;
}
);
unicode = 2CB9;
},
{
glyphname = uni2CBA;
lastChange = "2017-09-06 19:51:29 +0000";
layers = (
{
layerId = UUID0;
paths = (
{
closed = 1;
nodes = (
"637 547 LINE",
"637 634 LINE",
"10 634 LINE",
"10 547 LINE"
);
}
);
width = 647;
}
);
unicode = 2CBA;
},
{
glyphname = uni2CBB;
lastChange = "2017-09-06 19:51:29 +0000";
layers = (
{
layerId = UUID0;
paths = (
{
closed = 1;
nodes = (
"496 380 LINE",
"496 465 LINE",
"10 465 LINE",
"10 380 LINE"
);
}
);
width = 506;
}
);
unicode = 2CBB;
},
{
glyphname = uni2CBC;
lastChange = "2017-09-06 19:51:29 +0000";
layers = (
{
layerId = UUID0;
paths = (
{
closed = 1;
nodes = (
"433 0 LINE",
"433 714 LINE",
"353 714 LINE",
"353 0 LINE"
);
},
{
closed = 1;
nodes = (
"176 0 LINE",
"176 714 LINE",
"97 714 LINE",
"97 0 LINE"
);
},
{
closed = 1;
nodes = (
"691 0 LINE",
"691 714 LINE",
"612 714 LINE",
"612 0 LINE"
);
}
);
width = 788;
}
);
unicode = 2CBC;
},
{
glyphname = uni2CBD;
lastChange = "2017-09-06 19:51:29 +0000";
layers = (
{
layerId = UUID0;
paths = (
{
closed = 1;
nodes = (
"621 0 LINE",
"621 536 LINE",
"544 536 LINE",
"544 0 LINE"
);
},
{
closed = 1;
nodes = (
"162 0 LINE",
"162 536 LINE",
"85 536 LINE",
"85 0 LINE"
);
},
{
closed = 1;
nodes = (
"391 0 LINE",
"391 536 LINE",
"315 536 LINE",
"315 0 LINE"
);
}
);
width = 706;
}
);
unicode = 2CBD;
},
{
glyphname = uni2CBE;
lastChange = "2017-09-06 19:51:29 +0000";
layers = (
{
layerId = UUID0;
paths = (
{
closed = 1;
nodes = (
"176 0 LINE",
"176 326 LINE",
"353 326 LINE",
"353 0 LINE",
"433 0 LINE",
"433 326 LINE",
"612 326 LINE",
"612 0 LINE",
"691 0 LINE",
"691 326 LINE",
"806 326 LINE",
"806 398 LINE",
"691 398 LINE",
"691 714 LINE",
"612 714 LINE",
"612 398 LINE",
"433 398 LINE",
"433 714 LINE",
"353 714 LINE",
"353 398 LINE",
"176 398 LINE",
"176 714 LINE",
"97 714 LINE",
"97 0 LINE"
);
}
);
width = 816;
}
);
unicode = 2CBE;
},
{
glyphname = uni2CBF;
lastChange = "2017-09-06 19:51:29 +0000";
layers = (
{
layerId = UUID0;
paths = (
{
closed = 1;
nodes = (
"162 0 LINE",
"162 239 LINE",
"315 239 LINE",
"315 0 LINE",
"391 0 LINE",
"391 239 LINE",
"544 239 LINE",
"544 0 LINE",
"621 0 LINE",
"621 239 LINE",
"733 239 LINE",
"733 311 LINE",
"621 311 LINE",
"621 536 LINE",
"544 536 LINE",
"544 311 LINE",
"391 311 LINE",
"391 536 LINE",
"315 536 LINE",
"315 311 LINE",
"162 311 LINE",
"162 536 LINE",
"85 536 LINE",
"85 0 LINE"
);
}
);
width = 745;
}
);
unicode = 2CBF;
},
{
glyphname = uni2CC0;
lastChange = "2017-09-06 19:51:29 +0000";
layers = (
{
layerId = UUID0;
paths = (
{
closed = 1;
nodes = (
"231 -163 LINE",
"231 65 LINE",
"513 65 LINE",
"513 143 LINE",
"231 143 LINE",
"231 278 LINE",
"313 278 LINE SMOOTH",
"527 278 OFFCURVE",
"598 386 OFFCURVE",
"598 504 CURVE SMOOTH",
"598 637 OFFCURVE",
"517 714 OFFCURVE",
"330 714 CURVE SMOOTH",
"141 714 LINE",
"141 143 LINE",
"2 143 LINE",
"2 65 LINE",
"141 65 LINE",
"141 -163 LINE"
);
},
{
closed = 1;
nodes = (
"231 637 LINE",
"322 637 LINE SMOOTH",
"448 637 OFFCURVE",
"505 592 OFFCURVE",
"505 500 CURVE SMOOTH",
"505 395 OFFCURVE",
"439 355 OFFCURVE",
"303 355 CURVE SMOOTH",
"231 355 LINE"
);
}
);
width = 649;
}
);
unicode = 2CC0;
},
{
glyphname = uni2CC1;
lastChange = "2017-09-06 19:51:29 +0000";
layers = (
{
layerId = UUID0;
paths = (
{
closed = 1;
nodes = (
"183 -240 LINE",
"183 -56 LINE",
"362 -56 LINE",
"362 15 LINE",
"183 15 LINE",
"183 123 LINE",
"260 123 LINE SMOOTH",
"418 123 OFFCURVE",
"498 211 OFFCURVE",
"498 335 CURVE SMOOTH",
"498 444 OFFCURVE",
"434 536 OFFCURVE",
"276 536 CURVE SMOOTH",
"94 536 LINE",
"94 15 LINE",
"-2 15 LINE",
"-2 -56 LINE",
"94 -56 LINE",
"94 -240 LINE"
);
},
{
closed = 1;
nodes = (
"183 465 LINE",
"263 465 LINE SMOOTH",
"361 465 OFFCURVE",
"407 412 OFFCURVE",
"407 332 CURVE SMOOTH",
"407 241 OFFCURVE",
"353 194 OFFCURVE",
"255 194 CURVE SMOOTH",
"183 194 LINE"
);
}
);
width = 538;
}
);
unicode = 2CC1;
},
{
glyphname = uni2CC2;
lastChange = "2017-09-06 19:51:29 +0000";
layers = (
{
layerId = UUID0;
paths = (
{
closed = 1;
nodes = (
"830 -195 OFFCURVE",
"971 25 OFFCURVE",
"971 347 CURVE SMOOTH",
"971 502 OFFCURVE",
"913 646 OFFCURVE",
"771 731 CURVE",
"705 674 LINE",
"822 607 OFFCURVE",
"876 488 OFFCURVE",
"876 341 CURVE SMOOTH",
"876 150 OFFCURVE",
"798 72 OFFCURVE",
"702 72 CURVE SMOOTH",
"605 72 OFFCURVE",
"560 143 OFFCURVE",
"560 319 CURVE SMOOTH",
"560 694 LINE",
"470 694 LINE",
"470 319 LINE SMOOTH",
"470 126 OFFCURVE",
"417 72 OFFCURVE",
"329 72 CURVE SMOOTH",
"231 72 OFFCURVE",
"155 168 OFFCURVE",
"155 341 CURVE SMOOTH",
"155 495 OFFCURVE",
"204 599 OFFCURVE",
"322 669 CURVE",
"271 729 LINE",
"128 649 OFFCURVE",
"61 520 OFFCURVE",
"61 341 CURVE SMOOTH",
"61 116 OFFCURVE",
"172 -10 OFFCURVE",
"326 -10 CURVE SMOOTH",
"412 -10 OFFCURVE",
"479 37 OFFCURVE",
"513 141 CURVE",
"516 141 LINE",
"542 41 OFFCURVE",
"601 -10 OFFCURVE",
"683 -10 CURVE SMOOTH",
"743 -10 OFFCURVE",
"788 8 OFFCURVE",
"833 59 CURVE",
"836 56 LINE",
"785 -46 OFFCURVE",
"704 -115 OFFCURVE",
"568 -115 CURVE SMOOTH",
"529 -115 OFFCURVE",
"494 -109 OFFCURVE",
"471 -102 CURVE",
"471 -182 LINE",
"492 -189 OFFCURVE",
"526 -195 OFFCURVE",
"569 -195 CURVE SMOOTH"
);
},
{
closed = 1;
nodes = (
"394 945 OFFCURVE",
"416 961 OFFCURVE",
"416 995 CURVE SMOOTH",
"416 1030 OFFCURVE",
"394 1044 OFFCURVE",
"369 1044 CURVE SMOOTH",
"343 1044 OFFCURVE",
"322 1030 OFFCURVE",
"322 995 CURVE SMOOTH",
"322 961 OFFCURVE",
"343 945 OFFCURVE",
"369 945 CURVE SMOOTH"
);
},
{
closed = 1;
nodes = (
"549 766 LINE",
"549 836 LINE",
"712 836 LINE",
"712 903 LINE",
"549 903 LINE",
"549 1040 LINE",
"478 1040 LINE",
"478 903 LINE",
"315 903 LINE",
"315 836 LINE",
"478 836 LINE",
"478 766 LINE"
);
},
{
closed = 1;
nodes = (
"681 945 OFFCURVE",
"703 961 OFFCURVE",
"703 995 CURVE SMOOTH",
"703 1030 OFFCURVE",
"681 1044 OFFCURVE",
"656 1044 CURVE SMOOTH",
"631 1044 OFFCURVE",
"610 1030 OFFCURVE",
"610 995 CURVE SMOOTH",
"610 961 OFFCURVE",
"631 945 OFFCURVE",
"656 945 CURVE SMOOTH"
);
}
);
width = 1032;
}
);
unicode = 2CC2;
},
{
glyphname = uni2CC3;
lastChange = "2017-09-06 19:51:29 +0000";
layers = (
{
layerId = UUID0;
paths = (
{
closed = 1;
nodes = (
"596 -190 OFFCURVE",
"761 -58 OFFCURVE",
"761 256 CURVE SMOOTH",
"761 419 OFFCURVE",
"690 508 OFFCURVE",
"627 560 CURVE",
"562 511 LINE",
"622 458 OFFCURVE",
"673 378 OFFCURVE",
"673 257 CURVE SMOOTH",
"673 129 OFFCURVE",
"613 68 OFFCURVE",
"551 68 CURVE SMOOTH",
"479 68 OFFCURVE",
"450 137 OFFCURVE",
"450 223 CURVE SMOOTH",
"450 536 LINE",
"366 536 LINE",
"366 223 LINE SMOOTH",
"366 150 OFFCURVE",
"341 68 OFFCURVE",
"257 68 CURVE SMOOTH",
"194 68 OFFCURVE",
"143 129 OFFCURVE",
"143 257 CURVE SMOOTH",
"143 386 OFFCURVE",
"188 457 OFFCURVE",
"257 511 CURVE",
"194 560 LINE",
"116 502 OFFCURVE",
"55 409 OFFCURVE",
"55 257 CURVE SMOOTH",
"55 80 OFFCURVE",
"148 -10 OFFCURVE",
"249 -10 CURVE SMOOTH",
"330 -10 OFFCURVE",
"383 34 OFFCURVE",
"406 104 CURVE",
"409 104 LINE",
"429 30 OFFCURVE",
"471 -10 OFFCURVE",
"536 -10 CURVE SMOOTH",
"585 -10 OFFCURVE",
"621 11 OFFCURVE",
"652 49 CURVE",
"655 47 LINE",
"608 -59 OFFCURVE",
"548 -109 OFFCURVE",
"446 -109 CURVE SMOOTH",
"417 -109 OFFCURVE",
"390 -105 OFFCURVE",
"373 -100 CURVE",
"373 -180 LINE",
"389 -185 OFFCURVE",
"414 -190 OFFCURVE",
"447 -190 CURVE SMOOTH"
);
},
{
closed = 1;
nodes = (
"288 779 OFFCURVE",
"310 795 OFFCURVE",
"310 829 CURVE SMOOTH",
"310 864 OFFCURVE",
"288 878 OFFCURVE",
"263 878 CURVE SMOOTH",
"237 878 OFFCURVE",
"216 864 OFFCURVE",
"216 829 CURVE SMOOTH",
"216 795 OFFCURVE",
"237 779 OFFCURVE",
"263 779 CURVE SMOOTH"
);
},
{
closed = 1;
nodes = (
"443 600 LINE",
"443 670 LINE",
"606 670 LINE",
"606 737 LINE",
"443 737 LINE",
"443 874 LINE",
"372 874 LINE",
"372 737 LINE",
"209 737 LINE",
"209 670 LINE",
"372 670 LINE",
"372 600 LINE"
);
},
{
closed = 1;
nodes = (
"575 779 OFFCURVE",
"597 795 OFFCURVE",
"597 829 CURVE SMOOTH",
"597 864 OFFCURVE",
"575 878 OFFCURVE",
"550 878 CURVE SMOOTH",
"525 878 OFFCURVE",
"504 864 OFFCURVE",
"504 829 CURVE SMOOTH",
"504 795 OFFCURVE",
"525 779 OFFCURVE",
"550 779 CURVE SMOOTH"
);
}
);
width = 816;
}
);
unicode = 2CC3;
},
{
glyphname = uni2CC4;
lastChange = "2017-09-06 19:51:29 +0000";
layers = (
{
layerId = UUID0;
paths = (
{
closed = 1;
nodes = (
"436 -10 OFFCURVE",
"529 86 OFFCURVE",
"529 221 CURVE SMOOTH",
"529 362 OFFCURVE",
"416 436 OFFCURVE",
"291 440 CURVE",
"499 643 LINE",
"499 714 LINE",
"55 714 LINE",
"55 634 LINE",
"386 634 LINE",
"180 432 LINE",
"180 367 LINE",
"242 367 LINE SMOOTH",
"357 367 OFFCURVE",
"435 322 OFFCURVE",
"435 222 CURVE SMOOTH",
"435 121 OFFCURVE",
"371 64 OFFCURVE",
"242 64 CURVE SMOOTH",
"175 64 OFFCURVE",
"97 81 OFFCURVE",
"35 111 CURVE",
"35 29 LINE",
"95 0 OFFCURVE",
"164 -10 OFFCURVE",
"241 -10 CURVE SMOOTH"
);
}
);
width = 584;
}
);
unicode = 2CC4;
},
{
glyphname = uni2CC5;
lastChange = "2017-09-06 19:51:29 +0000";
layers = (
{
layerId = UUID0;
paths = (
{
closed = 1;
nodes = (
"352 -190 OFFCURVE",
"464 -99 OFFCURVE",
"464 43 CURVE SMOOTH",
"464 188 OFFCURVE",
"362 256 OFFCURVE",
"218 258 CURVE",
"437 472 LINE",
"437 536 LINE",
"28 536 LINE",
"28 462 LINE",
"334 462 LINE",
"115 249 LINE",
"115 188 LINE",
"164 188 LINE SMOOTH",
"285 188 OFFCURVE",
"376 153 OFFCURVE",
"376 41 CURVE SMOOTH",
"376 -62 OFFCURVE",
"298 -117 OFFCURVE",
"195 -117 CURVE SMOOTH",
"117 -117 OFFCURVE",
"56 -95 OFFCURVE",
"14 -77 CURVE",
"14 -157 LINE",
"53 -174 OFFCURVE",
"112 -190 OFFCURVE",
"191 -190 CURVE SMOOTH"
);
}
);
width = 498;
}
);
unicode = 2CC5;
},
{
glyphname = uni2CC6;
lastChange = "2017-09-06 19:51:29 +0000";
layers = (
{
layerId = UUID0;
paths = (
{
closed = 1;
nodes = (
"100 0 LINE",
"426 714 LINE",
"340 714 LINE",
"14 0 LINE"
);
}
);
width = 441;
}
);
unicode = 2CC6;
},
{
glyphname = uni2CC7;
lastChange = "2017-09-06 19:51:29 +0000";
layers = (
{
layerId = UUID0;
paths = (
{
closed = 1;
nodes = (
"96 0 LINE",
"370 536 LINE",
"284 536 LINE",
"10 0 LINE"
);
}
);
width = 380;
}
);
unicode = 2CC7;
},
{
glyphname = uni2CC8;
lastChange = "2017-09-06 19:51:29 +0000";
layers = (
{
layerId = UUID0;
paths = (
{
closed = 1;
nodes = (
"443 -99 OFFCURVE",
"490 -88 OFFCURVE",
"511 -82 CURVE",
"511 2 LINE",
"483 -7 OFFCURVE",
"442 -13 OFFCURVE",
"393 -13 CURVE SMOOTH",
"260 -13 OFFCURVE",
"181 29 OFFCURVE",
"157 123 CURVE",
"300 159 OFFCURVE",
"396 214 OFFCURVE",
"454 282 CURVE",
"542 282 LINE",
"542 344 LINE",
"496 344 LINE",
"519 390 OFFCURVE",
"530 441 OFFCURVE",
"530 496 CURVE SMOOTH",
"530 616 OFFCURVE",
"455 724 OFFCURVE",
"285 724 CURVE SMOOTH",
"148 724 OFFCURVE",
"39 650 OFFCURVE",
"39 517 CURVE SMOOTH",
"39 483 OFFCURVE",
"50 440 OFFCURVE",
"69 409 CURVE",
"152 441 LINE",
"139 464 OFFCURVE",
"132 496 OFFCURVE",
"132 514 CURVE SMOOTH",
"132 598 OFFCURVE",
"190 645 OFFCURVE",
"279 645 CURVE SMOOTH",
"380 645 OFFCURVE",
"434 579 OFFCURVE",
"434 480 CURVE SMOOTH",
"434 429 OFFCURVE",
"422 384 OFFCURVE",
"394 344 CURVE",
"210 344 LINE",
"210 282 LINE",
"336 282 LINE",
"276 237 OFFCURVE",
"181 200 OFFCURVE",
"49 173 CURVE",
"80 -22 OFFCURVE",
"214 -99 OFFCURVE",
"391 -99 CURVE SMOOTH"
);
}
);
width = 549;
}
);
unicode = 2CC8;
},
{
glyphname = uni2CC9;
lastChange = "2017-09-06 19:51:29 +0000";
layers = (
{
layerId = UUID0;
paths = (
{
closed = 1;
nodes = (
"407 -134 OFFCURVE",
"463 -118 OFFCURVE",
"482 -110 CURVE",
"482 -35 LINE",
"453 -49 OFFCURVE",
"400 -61 OFFCURVE",
"354 -61 CURVE SMOOTH",
"229 -61 OFFCURVE",
"163 -16 OFFCURVE",
"143 64 CURVE",
"257 90 OFFCURVE",
"354 129 OFFCURVE",
"412 193 CURVE",
"487 193 LINE",
"487 249 LINE",
"448 249 LINE",
"464 280 OFFCURVE",
"473 316 OFFCURVE",
"473 357 CURVE SMOOTH",
"473 446 OFFCURVE",
"427 546 OFFCURVE",
"275 546 CURVE SMOOTH",
"127 546 OFFCURVE",
"63 454 OFFCURVE",
"63 370 CURVE SMOOTH",
"63 339 OFFCURVE",
"72 308 OFFCURVE",
"90 279 CURVE",
"168 309 LINE",
"156 330 OFFCURVE",
"150 351 OFFCURVE",
"150 368 CURVE SMOOTH",
"150 436 OFFCURVE",
"194 474 OFFCURVE",
"269 474 CURVE SMOOTH",
"352 474 OFFCURVE",
"384 418 OFFCURVE",
"384 354 CURVE SMOOTH",
"384 312 OFFCURVE",
"374 276 OFFCURVE",
"354 249 CURVE",
"175 249 LINE",
"175 193 LINE",
"297 193 LINE",
"242 159 OFFCURVE",
"157 134 OFFCURVE",
"50 113 CURVE",
"77 -56 OFFCURVE",
"171 -134 OFFCURVE",
"342 -134 CURVE SMOOTH"
);
}
);
width = 525;
}
);
unicode = 2CC9;
},
{
glyphname = uni2CCA;
lastChange = "2017-09-06 19:51:29 +0000";
layers = (
{
layerId = UUID0;
paths = (
{
closed = 1;
nodes = (
"323 -10 OFFCURVE",
"532 117 OFFCURVE",
"532 423 CURVE SMOOTH",
"532 645 OFFCURVE",
"415 724 OFFCURVE",
"282 724 CURVE SMOOTH",
"141 724 OFFCURVE",
"45 641 OFFCURVE",
"45 508 CURVE SMOOTH",
"45 377 OFFCURVE",
"141 300 OFFCURVE",
"281 282 CURVE",
"300 358 LINE",
"188 376 OFFCURVE",
"136 424 OFFCURVE",
"136 511 CURVE SMOOTH",
"136 585 OFFCURVE",
"180 648 OFFCURVE",
"282 648 CURVE SMOOTH",
"384 648 OFFCURVE",
"439 563 OFFCURVE",
"439 412 CURVE SMOOTH",
"439 157 OFFCURVE",
"278 72 OFFCURVE",
"99 72 CURVE",
"99 -10 LINE"
);
}
);
width = 572;
}
);
unicode = 2CCA;
},
{
glyphname = uni2CCB;
lastChange = "2017-09-06 19:51:29 +0000";
layers = (
{
layerId = UUID0;
paths = (
{
closed = 1;
nodes = (
"328 -239 OFFCURVE",
"532 -60 OFFCURVE",
"532 238 CURVE SMOOTH",
"532 428 OFFCURVE",
"449 546 OFFCURVE",
"287 546 CURVE SMOOTH",
"138 546 OFFCURVE",
"51 437 OFFCURVE",
"51 312 CURVE SMOOTH",
"51 169 OFFCURVE",
"148 104 OFFCURVE",
"277 73 CURVE",
"308 149 LINE",
"207 176 OFFCURVE",
"142 220 OFFCURVE",
"142 320 CURVE SMOOTH",
"142 398 OFFCURVE",
"186 472 OFFCURVE",
"284 472 CURVE SMOOTH",
"374 472 OFFCURVE",
"439 402 OFFCURVE",
"439 234 CURVE SMOOTH",
"439 -20 OFFCURVE",
"283 -159 OFFCURVE",
"104 -159 CURVE",
"104 -239 LINE"
);
}
);
width = 572;
}
);
unicode = 2CCB;
},
{
glyphname = uni2CCC;
lastChange = "2017-09-06 19:51:29 +0000";
layers = (
{
layerId = UUID0;
paths = (
{
closed = 1;
nodes = (
"438 -10 OFFCURVE",
"534 76 OFFCURVE",
"534 202 CURVE SMOOTH",
"534 296 OFFCURVE",
"470 357 OFFCURVE",
"350 373 CURVE",
"350 377 LINE",
"453 393 OFFCURVE",
"519 450 OFFCURVE",
"519 547 CURVE SMOOTH",
"519 650 OFFCURVE",
"437 724 OFFCURVE",
"283 724 CURVE SMOOTH",
"180 724 OFFCURVE",
"97 691 OFFCURVE",
"41 650 CURVE",
"84 589 LINE",
"140 625 OFFCURVE",
"192 650 OFFCURVE",
"282 650 CURVE SMOOTH",
"367 650 OFFCURVE",
"426 610 OFFCURVE",
"426 538 CURVE SMOOTH",
"426 458 OFFCURVE",
"356 407 OFFCURVE",
"215 407 CURVE SMOOTH",
"118 407 LINE",
"118 332 LINE",
"220 332 LINE SMOOTH",
"358 332 OFFCURVE",
"440 292 OFFCURVE",
"440 202 CURVE SMOOTH",
"440 114 OFFCURVE",
"373 64 OFFCURVE",
"245 64 CURVE SMOOTH",
"179 64 OFFCURVE",
"100 81 OFFCURVE",
"38 111 CURVE",
"38 29 LINE",
"98 0 OFFCURVE",
"169 -10 OFFCURVE",
"246 -10 CURVE SMOOTH"
);
}
);
width = 588;
}
);
unicode = 2CCC;
},
{
glyphname = uni2CCD;
lastChange = "2017-09-06 19:51:29 +0000";
layers = (
{
layerId = UUID0;
paths = (
{
closed = 1;
nodes = (
"378 -190 OFFCURVE",
"466 -96 OFFCURVE",
"466 29 CURVE SMOOTH",
"466 114 OFFCURVE",
"419 184 OFFCURVE",
"295 201 CURVE",
"295 205 LINE",
"376 219 OFFCURVE",
"440 271 OFFCURVE",
"440 368 CURVE SMOOTH",
"440 469 OFFCURVE",
"377 546 OFFCURVE",
"237 546 CURVE SMOOTH",
"147 546 OFFCURVE",
"85 513 OFFCURVE",
"37 473 CURVE",
"76 413 LINE",
"125 448 OFFCURVE",
"166 472 OFFCURVE",
"238 472 CURVE SMOOTH",
"313 472 OFFCURVE",
"355 430 OFFCURVE",
"355 362 CURVE SMOOTH",
"355 286 OFFCURVE",
"304 235 OFFCURVE",
"176 235 CURVE SMOOTH",
"130 235 LINE",
"130 160 LINE",
"175 160 LINE SMOOTH",
"324 160 OFFCURVE",
"377 110 OFFCURVE",
"377 28 CURVE SMOOTH",
"377 -60 OFFCURVE",
"322 -117 OFFCURVE",
"202 -117 CURVE SMOOTH",
"127 -117 OFFCURVE",
"70 -95 OFFCURVE",
"28 -77 CURVE",
"28 -157 LINE",
"67 -174 OFFCURVE",
"122 -190 OFFCURVE",
"201 -190 CURVE SMOOTH"
);
}
);
width = 510;
}
);
unicode = 2CCD;
},
{
glyphname = uni2CCE;
lastChange = "2017-09-06 19:51:29 +0000";
layers = (
{
layerId = UUID0;
paths = (
{
closed = 1;
nodes = (
"95 -163 LINE",
"277 637 LINE",
"306 637 LINE SMOOTH",
"432 637 OFFCURVE",
"489 592 OFFCURVE",
"489 500 CURVE SMOOTH",
"489 395 OFFCURVE",
"423 355 OFFCURVE",
"287 355 CURVE SMOOTH",
"257 355 LINE",
"257 278 LINE",
"297 278 LINE SMOOTH",
"511 278 OFFCURVE",
"582 386 OFFCURVE",
"582 504 CURVE SMOOTH",
"582 637 OFFCURVE",
"501 714 OFFCURVE",
"314 714 CURVE SMOOTH",
"205 714 LINE",
"7 -163 LINE"
);
}
);
width = 617;
}
);
unicode = 2CCE;
},
{
glyphname = uni2CCF;
lastChange = "2017-09-06 19:51:29 +0000";
layers = (
{
layerId = UUID0;
paths = (
{
closed = 1;
nodes = (
"64 -239 LINE",
"227 464 LINE",
"261 464 LINE SMOOTH",
"368 464 OFFCURVE",
"425 422 OFFCURVE",
"425 330 CURVE SMOOTH",
"425 227 OFFCURVE",
"359 192 OFFCURVE",
"241 192 CURVE SMOOTH",
"215 192 LINE",
"215 122 LINE",
"250 122 LINE SMOOTH",
"425 122 OFFCURVE",
"515 201 OFFCURVE",
"515 335 CURVE SMOOTH",
"515 468 OFFCURVE",
"436 537 OFFCURVE",
"266 537 CURVE SMOOTH",
"155 537 LINE",
"-23 -239 LINE"
);
}
);
width = 550;
}
);
unicode = 2CCF;
},
{
glyphname = uni2CD0;
lastChange = "2017-09-06 19:51:29 +0000";
layers = (
{
layerId = UUID0;
paths = (
{
closed = 1;
nodes = (
"499 0 LINE",
"499 80 LINE",
"187 80 LINE",
"187 714 LINE",
"97 714 LINE",
"97 0 LINE"
);
}
);
width = 524;
}
);
unicode = 2CD0;
},
{
glyphname = uni2CD1;
lastChange = "2017-09-06 19:51:29 +0000";
layers = (
{
layerId = UUID0;
paths = (
{
closed = 1;
nodes = (
"417 0 LINE",
"417 73 LINE",
"173 73 LINE",
"173 536 LINE",
"85 536 LINE",
"85 0 LINE"
);
}
);
width = 435;
}
);
unicode = 2CD1;
},
{
glyphname = uni2CD2;
lastChange = "2017-09-06 19:51:29 +0000";
layers = (
{
layerId = UUID0;
paths = (
{
closed = 1;
nodes = (
"431 -10 OFFCURVE",
"527 73 OFFCURVE",
"527 206 CURVE SMOOTH",
"527 337 OFFCURVE",
"431 414 OFFCURVE",
"291 432 CURVE",
"270 356 LINE",
"382 338 OFFCURVE",
"436 290 OFFCURVE",
"436 203 CURVE SMOOTH",
"436 129 OFFCURVE",
"392 66 OFFCURVE",
"290 66 CURVE SMOOTH",
"188 66 OFFCURVE",
"133 148 OFFCURVE",
"133 302 CURVE SMOOTH",
"133 557 OFFCURVE",
"294 642 OFFCURVE",
"473 642 CURVE",
"473 724 LINE",
"249 724 OFFCURVE",
"40 597 OFFCURVE",
"40 291 CURVE SMOOTH",
"40 73 OFFCURVE",
"157 -10 OFFCURVE",
"290 -10 CURVE SMOOTH"
);
}
);
width = 572;
}
);
unicode = 2CD2;
},
{
glyphname = uni2CD3;
lastChange = "2017-09-06 19:51:29 +0000";
layers = (
{
layerId = UUID0;
paths = (
{
closed = 1;
nodes = (
"445 -10 OFFCURVE",
"532 95 OFFCURVE",
"532 218 CURVE SMOOTH",
"532 371 OFFCURVE",
"418 415 OFFCURVE",
"303 443 CURVE",
"276 370 LINE",
"374 343 OFFCURVE",
"444 309 OFFCURVE",
"444 212 CURVE SMOOTH",
"444 134 OFFCURVE",
"397 64 OFFCURVE",
"299 64 CURVE SMOOTH",
"209 64 OFFCURVE",
"143 123 OFFCURVE",
"143 286 CURVE SMOOTH",
"143 540 OFFCURVE",
"300 657 OFFCURVE",
"479 657 CURVE",
"479 738 LINE",
"255 738 OFFCURVE",
"52 580 OFFCURVE",
"52 282 CURVE SMOOTH",
"52 97 OFFCURVE",
"134 -10 OFFCURVE",
"296 -10 CURVE SMOOTH"
);
}
);
width = 572;
}
);
unicode = 2CD3;
},
{
glyphname = uni2CD4;
lastChange = "2017-09-06 19:51:29 +0000";
layers = (
{
layerId = UUID0;
paths = (
{
closed = 1;
nodes = (
"239 -163 LINE",
"239 555 LINE",
"107 555 LINE",
"118 610 OFFCURVE",
"162 649 OFFCURVE",
"248 649 CURVE SMOOTH",
"275 649 OFFCURVE",
"295 646 OFFCURVE",
"308 643 CURVE",
"308 716 LINE",
"294 719 OFFCURVE",
"271 721 OFFCURVE",
"246 721 CURVE SMOOTH",
"115 721 OFFCURVE",
"20 640 OFFCURVE",
"11 487 CURVE",
"149 487 LINE",
"149 -163 LINE"
);
}
);
width = 357;
}
);
unicode = 2CD4;
},
{
glyphname = uni2CD5;
lastChange = "2017-09-06 19:51:29 +0000";
layers = (
{
layerId = UUID0;
paths = (
{
closed = 1;
nodes = (
"241 -240 LINE",
"241 390 LINE",
"117 390 LINE",
"131 442 OFFCURVE",
"171 470 OFFCURVE",
"235 470 CURVE SMOOTH",
"259 470 OFFCURVE",
"283 467 OFFCURVE",
"291 465 CURVE",
"291 537 LINE",
"279 539 OFFCURVE",
"254 541 OFFCURVE",
"233 541 CURVE SMOOTH",
"124 541 OFFCURVE",
"31 474 OFFCURVE",
"19 322 CURVE",
"153 322 LINE",
"153 -240 LINE"
);
}
);
width = 369;
}
);
unicode = 2CD5;
},
{
glyphname = uni2CD6;
lastChange = "2017-09-06 19:51:29 +0000";
layers = (
{
layerId = UUID0;
paths = (
{
closed = 1;
nodes = (
"216 -167 OFFCURVE",
"262 -100 OFFCURVE",
"262 0 CURVE",
"574 0 LINE",
"574 80 LINE",
"262 80 LINE",
"262 714 LINE",
"172 714 LINE",
"172 80 LINE",
"157 80 LINE SMOOTH",
"52 80 OFFCURVE",
"-6 31 OFFCURVE",
"-6 -49 CURVE SMOOTH",
"-6 -111 OFFCURVE",
"30 -167 OFFCURVE",
"113 -167 CURVE SMOOTH"
);
},
{
closed = 1;
nodes = (
"98 -90 OFFCURVE",
"80 -76 OFFCURVE",
"80 -50 CURVE SMOOTH",
"80 -15 OFFCURVE",
"104 0 OFFCURVE",
"154 0 CURVE SMOOTH",
"172 0 LINE",
"172 -14 LINE SMOOTH",
"172 -70 OFFCURVE",
"152 -90 OFFCURVE",
"120 -90 CURVE SMOOTH"
);
}
);
width = 599;
}
);
unicode = 2CD6;
},
{
glyphname = uni2CD7;
lastChange = "2017-09-06 19:51:29 +0000";
layers = (
{
layerId = UUID0;
paths = (
{
closed = 1;
nodes = (
"209 -162 OFFCURVE",
"257 -100 OFFCURVE",
"257 0 CURVE",
"496 0 LINE",
"496 74 LINE",
"257 74 LINE",
"257 536 LINE",
"169 536 LINE",
"169 74 LINE",
"162 74 LINE SMOOTH",
"57 74 OFFCURVE",
"-6 31 OFFCURVE",
"-6 -49 CURVE SMOOTH",
"-6 -111 OFFCURVE",
"27 -162 OFFCURVE",
"110 -162 CURVE SMOOTH"
);
},
{
closed = 1;
nodes = (
"95 -91 OFFCURVE",
"77 -76 OFFCURVE",
"77 -50 CURVE SMOOTH",
"77 -15 OFFCURVE",
"101 0 OFFCURVE",
"151 0 CURVE SMOOTH",
"169 0 LINE",
"169 -14 LINE SMOOTH",
"169 -70 OFFCURVE",
"149 -91 OFFCURVE",
"117 -91 CURVE SMOOTH"
);
}
);
width = 517;
}
);
unicode = 2CD7;
},
{
glyphname = uni2CD8;
lastChange = "2017-09-06 19:51:29 +0000";
layers = (
{
layerId = UUID0;
paths = (
{
closed = 1;
nodes = (
"633 0 LINE",
"633 714 LINE",
"543 714 LINE",
"543 79 LINE",
"186 79 LINE",
"186 714 LINE",
"97 714 LINE",
"97 0 LINE"
);
}
);
width = 731;
}
);
unicode = 2CD8;
},
{
glyphname = uni2CD9;
lastChange = "2017-09-06 19:51:29 +0000";
layers = (
{
layerId = UUID0;
paths = (
{
closed = 1;
nodes = (
"538 0 LINE",
"538 536 LINE",
"450 536 LINE",
"450 75 LINE",
"173 75 LINE",
"173 536 LINE",
"85 536 LINE",
"85 0 LINE"
);
}
);
width = 624;
}
);
unicode = 2CD9;
},
{
glyphname = uni2CDA;
lastChange = "2017-09-06 19:51:29 +0000";
layers = (
{
layerId = UUID0;
paths = (
{
closed = 1;
nodes = (
"799 0 LINE",
"799 79 LINE",
"742 79 OFFCURVE",
"720 87 OFFCURVE",
"684 169 CURVE SMOOTH",
"442 714 LINE",
"342 714 LINE",
"417 555 LINE",
"306 327 LINE",
"175 405 LINE",
"145 359 LINE",
"282 278 LINE",
"184 79 LINE",
"131 79 OFFCURVE",
"101 86 OFFCURVE",
"101 142 CURVE",
"16 142 LINE",
"16 55 OFFCURVE",
"50 0 OFFCURVE",
"156 0 CURVE SMOOTH"
);
},
{
closed = 1;
nodes = (
"273 79 LINE",
"347 236 LINE",
"456 169 LINE SMOOTH",
"509 136 OFFCURVE",
"565 97 OFFCURVE",
"605 77 CURVE",
"603 75 LINE",
"552 79 OFFCURVE",
"490 79 OFFCURVE",
"443 79 CURVE SMOOTH"
);
},
{
closed = 1;
nodes = (
"458 474 LINE",
"543 280 LINE SMOOTH",
"570 218 OFFCURVE",
"594 156 OFFCURVE",
"620 122 CURVE",
"618 120 LINE",
"578 153 OFFCURVE",
"535 184 OFFCURVE",
"495 209 CURVE SMOOTH",
"371 287 LINE"
);
}
);
width = 814;
}
);
unicode = 2CDA;
},
{
glyphname = uni2CDB;
lastChange = "2017-09-06 19:51:29 +0000";
layers = (
{
layerId = UUID0;
paths = (
{
closed = 1;
nodes = (
"648 0 LINE",
"648 71 LINE",
"603 71 OFFCURVE",
"579 78 OFFCURVE",
"551 135 CURVE SMOOTH",
"357 536 LINE",
"262 536 LINE",
"327 405 LINE",
"245 252 LINE",
"163 299 LINE",
"138 257 LINE",
"222 210 LINE",
"146 71 LINE",
"109 71 OFFCURVE",
"85 77 OFFCURVE",
"85 119 CURVE",
"10 119 LINE",
"10 53 OFFCURVE",
"35 0 OFFCURVE",
"115 0 CURVE SMOOTH"
);
},
{
closed = 1;
nodes = (
"433 69 OFFCURVE",
"374 71 OFFCURVE",
"321 71 CURVE SMOOTH",
"233 71 LINE",
"286 174 LINE",
"351 136 LINE SMOOTH",
"388 114 OFFCURVE",
"438 87 OFFCURVE",
"472 71 CURVE",
"471 69 LINE"
);
},
{
closed = 1;
nodes = (
"448 136 OFFCURVE",
"409 160 OFFCURVE",
"378 178 CURVE SMOOTH",
"309 219 LINE",
"368 333 LINE",
"421 221 LINE SMOOTH",
"437 188 OFFCURVE",
"461 145 OFFCURVE",
"476 120 CURVE",
"474 118 LINE"
);
}
);
width = 658;
}
);
unicode = 2CDB;
},
{
glyphname = uni2CDC;
lastChange = "2017-09-06 19:51:29 +0000";
layers = (
{
layerId = UUID0;
paths = (
{
closed = 1;
nodes = (
"470 -10 OFFCURVE",
"558 95 OFFCURVE",
"558 226 CURVE SMOOTH",
"558 362 OFFCURVE",
"464 430 OFFCURVE",
"347 486 CURVE SMOOTH",
"257 529 OFFCURVE",
"206 551 OFFCURVE",
"206 612 CURVE SMOOTH",
"206 646 OFFCURVE",
"237 684 OFFCURVE",
"316 684 CURVE SMOOTH",
"388 684 OFFCURVE",
"448 660 OFFCURVE",
"498 632 CURVE",
"532 706 LINE",
"479 734 OFFCURVE",
"404 763 OFFCURVE",
"319 763 CURVE SMOOTH",
"197 763 OFFCURVE",
"115 698 OFFCURVE",
"115 614 CURVE SMOOTH",
"115 529 OFFCURVE",
"170 488 OFFCURVE",
"253 445 CURVE",
"147 411 OFFCURVE",
"52 343 OFFCURVE",
"52 214 CURVE SMOOTH",
"52 83 OFFCURVE",
"148 -10 OFFCURVE",
"300 -10 CURVE SMOOTH"
);
},
{
closed = 1;
nodes = (
"215 68 OFFCURVE",
"144 117 OFFCURVE",
"144 216 CURVE SMOOTH",
"144 333 OFFCURVE",
"232 378 OFFCURVE",
"329 405 CURVE",
"408 364 OFFCURVE",
"467 315 OFFCURVE",
"467 225 CURVE SMOOTH",
"467 133 OFFCURVE",
"407 68 OFFCURVE",
"299 68 CURVE SMOOTH"
);
}
);
width = 604;
}
);
unicode = 2CDC;
},
{
glyphname = uni2CDD;
lastChange = "2017-09-06 19:51:29 +0000";
layers = (
{
layerId = UUID0;
paths = (
{
closed = 1;
nodes = (
"451 -10 OFFCURVE",
"550 76 OFFCURVE",
"550 236 CURVE SMOOTH",
"550 352 OFFCURVE",
"483 423 OFFCURVE",
"362 489 CURVE SMOOTH",
"263 543 OFFCURVE",
"228 571 OFFCURVE",
"228 619 CURVE SMOOTH",
"228 656 OFFCURVE",
"255 688 OFFCURVE",
"315 688 CURVE SMOOTH",
"383 688 OFFCURVE",
"437 665 OFFCURVE",
"487 637 CURVE",
"525 706 LINE",
"473 732 OFFCURVE",
"411 760 OFFCURVE",
"319 760 CURVE SMOOTH",
"216 760 OFFCURVE",
"139 712 OFFCURVE",
"139 620 CURVE SMOOTH",
"139 546 OFFCURVE",
"188 499 OFFCURVE",
"263 456 CURVE",
"144 421 OFFCURVE",
"54 342 OFFCURVE",
"54 214 CURVE SMOOTH",
"54 71 OFFCURVE",
"157 -10 OFFCURVE",
"300 -10 CURVE SMOOTH"
);
},
{
closed = 1;
nodes = (
"203 63 OFFCURVE",
"146 125 OFFCURVE",
"146 213 CURVE SMOOTH",
"146 348 OFFCURVE",
"251 398 OFFCURVE",
"333 418 CURVE",
"412 377 OFFCURVE",
"459 325 OFFCURVE",
"459 235 CURVE SMOOTH",
"459 124 OFFCURVE",
"402 63 OFFCURVE",
"300 63 CURVE SMOOTH"
);
}
);
width = 604;
}
);
unicode = 2CDD;
},
{
glyphname = uni2CDE;
lastChange = "2017-09-06 19:51:29 +0000";
layers = (
{
layerId = UUID0;
paths = (
{
closed = 1;
nodes = (
"496 0 LINE",
"496 79 LINE",
"187 79 LINE",
"187 635 LINE",
"496 635 LINE",
"496 714 LINE",
"97 714 LINE",
"97 0 LINE"
);
}
);
width = 556;
}
);
unicode = 2CDE;
},
{
glyphname = uni2CDF;
lastChange = "2017-09-06 19:51:29 +0000";
layers = (
{
layerId = UUID0;
paths = (
{
closed = 1;
nodes = (
"437 0 LINE",
"437 73 LINE",
"168 73 LINE",
"168 463 LINE",
"437 463 LINE",
"437 536 LINE",
"85 536 LINE",
"85 0 LINE"
);
}
);
width = 470;
}
);
unicode = 2CDF;
},
{
glyphname = uni2CE0;
lastChange = "2017-09-06 19:51:29 +0000";
layers = (
{
layerId = UUID0;
paths = (
{
closed = 1;
nodes = (
"452 -163 LINE",
"452 175 LINE",
"683 189 OFFCURVE",
"769 341 OFFCURVE",
"769 490 CURVE SMOOTH",
"769 649 OFFCURVE",
"699 724 OFFCURVE",
"567 724 CURVE SMOOTH",
"447 724 OFFCURVE",
"362 644 OFFCURVE",
"362 501 CURVE SMOOTH",
"362 252 LINE",
"241 259 OFFCURVE",
"160 332 OFFCURVE",
"160 474 CURVE SMOOTH",
"160 714 LINE",
"70 714 LINE",
"70 468 LINE SMOOTH",
"70 264 OFFCURVE",
"201 184 OFFCURVE",
"362 175 CURVE",
"362 -163 LINE"
);
},
{
closed = 1;
nodes = (
"452 495 LINE SMOOTH",
"452 609 OFFCURVE",
"498 647 OFFCURVE",
"565 647 CURVE SMOOTH",
"648 647 OFFCURVE",
"676 585 OFFCURVE",
"676 486 CURVE SMOOTH",
"676 347 OFFCURVE",
"605 260 OFFCURVE",
"452 252 CURVE"
);
}
);
width = 824;
}
);
unicode = 2CE0;
},
{
glyphname = uni2CE1;
lastChange = "2017-09-06 19:51:29 +0000";
layers = (
{
layerId = UUID0;
paths = (
{
closed = 1;
nodes = (
"405 -240 LINE",
"405 51 LINE",
"605 67 OFFCURVE",
"686 200 OFFCURVE",
"686 331 CURVE SMOOTH",
"686 475 OFFCURVE",
"623 546 OFFCURVE",
"503 546 CURVE SMOOTH",
"393 546 OFFCURVE",
"320 475 OFFCURVE",
"320 340 CURVE SMOOTH",
"320 129 LINE",
"202 142 OFFCURVE",
"153 210 OFFCURVE",
"153 339 CURVE SMOOTH",
"153 536 LINE",
"66 536 LINE",
"66 324 LINE SMOOTH",
"66 148 OFFCURVE",
"178 60 OFFCURVE",
"320 51 CURVE",
"320 -240 LINE"
);
},
{
closed = 1;
nodes = (
"405 339 LINE SMOOTH",
"405 429 OFFCURVE",
"442 473 OFFCURVE",
"502 473 CURVE SMOOTH",
"564 473 OFFCURVE",
"598 417 OFFCURVE",
"598 332 CURVE SMOOTH",
"598 223 OFFCURVE",
"534 139 OFFCURVE",
"405 128 CURVE"
);
}
);
width = 728;
}
);
unicode = 2CE1;
},
{
glyphname = uni2CE2;
lastChange = "2017-09-06 19:51:29 +0000";
layers = (
{
layerId = UUID0;
paths = (
{
closed = 1;
nodes = (
"468 -139 OFFCURVE",
"613 -7 OFFCURVE",
"613 211 CURVE SMOOTH",
"613 380 OFFCURVE",
"519 481 OFFCURVE",
"394 513 CURVE",
"394 635 LINE",
"610 635 LINE",
"610 714 LINE",
"45 714 LINE",
"45 635 LINE",
"304 635 LINE",
"304 516 LINE",
"138 510 OFFCURVE",
"49 418 OFFCURVE",
"49 280 CURVE SMOOTH",
"49 140 OFFCURVE",
"128 81 OFFCURVE",
"222 81 CURVE SMOOTH",
"324 81 OFFCURVE",
"394 147 OFFCURVE",
"394 277 CURVE SMOOTH",
"394 431 LINE",
"468 401 OFFCURVE",
"524 320 OFFCURVE",
"524 216 CURVE SMOOTH",
"524 38 OFFCURVE",
"421 -59 OFFCURVE",
"219 -83 CURVE",
"219 -163 LINE"
);
},
{
closed = 1;
nodes = (
"176 161 OFFCURVE",
"139 202 OFFCURVE",
"139 278 CURVE SMOOTH",
"139 381 OFFCURVE",
"204 437 OFFCURVE",
"304 442 CURVE",
"304 278 LINE SMOOTH",
"304 191 OFFCURVE",
"277 161 OFFCURVE",
"226 161 CURVE SMOOTH"
);
}
);
width = 658;
}
);
unicode = 2CE2;
},
{
glyphname = uni2CE3;
lastChange = "2017-09-06 19:51:29 +0000";
layers = (
{
layerId = UUID0;
paths = (
{
closed = 1;
nodes = (
"441 -213 OFFCURVE",
"545 -67 OFFCURVE",
"545 100 CURVE SMOOTH",
"545 233 OFFCURVE",
"473 320 OFFCURVE",
"350 357 CURVE",
"350 462 LINE",
"542 462 LINE",
"542 536 LINE",
"61 536 LINE",
"61 462 LINE",
"263 462 LINE",
"263 361 LINE",
"124 350 OFFCURVE",
"40 267 OFFCURVE",
"40 157 CURVE SMOOTH",
"40 71 OFFCURVE",
"87 -6 OFFCURVE",
"191 -6 CURVE SMOOTH",
"284 -6 OFFCURVE",
"350 69 OFFCURVE",
"350 153 CURVE SMOOTH",
"350 274 LINE",
"412 245 OFFCURVE",
"456 177 OFFCURVE",
"456 95 CURVE SMOOTH",
"456 -53 OFFCURVE",
"365 -140 OFFCURVE",
"188 -160 CURVE",
"188 -239 LINE"
);
},
{
closed = 1;
nodes = (
"150 68 OFFCURVE",
"125 114 OFFCURVE",
"125 157 CURVE SMOOTH",
"125 234 OFFCURVE",
"181 280 OFFCURVE",
"263 285 CURVE",
"263 155 LINE SMOOTH",
"263 85 OFFCURVE",
"226 68 OFFCURVE",
"195 68 CURVE SMOOTH"
);
}
);
width = 585;
}
);
unicode = 2CE3;
},
{
glyphname = uni2CE4;
lastChange = "2017-09-06 19:51:29 +0000";
layers = (
{
layerId = UUID0;
paths = (
{
closed = 1;
nodes = (
"523 17 LINE",
"293 307 LINE",
"510 536 LINE",
"407 536 LINE",
"236 355 LINE SMOOTH",
"218 335 OFFCURVE",
"184 292 OFFCURVE",
"172 276 CURVE",
"168 276 LINE",
"169 301 OFFCURVE",
"172 342 OFFCURVE",
"172 363 CURVE SMOOTH",
"172 536 LINE",
"85 536 LINE",
"85 0 LINE",
"172 0 LINE",
"172 197 LINE",
"233 250 LINE",
"408 28 LINE",
"220 -130 LINE",
"272 -194 LINE"
);
}
);
width = 534;
}
);
unicode = 2CE4;
},
{
glyphname = uni2CE5;
lastChange = "2017-09-06 19:51:29 +0000";
layers = (
{
layerId = UUID0;
paths = (
{
closed = 1;
nodes = (
"352 -163 LINE",
"352 -77 LINE",
"407 -62 OFFCURVE",
"451 -18 OFFCURVE",
"478 64 CURVE",
"480 64 LINE",
"484 16 OFFCURVE",
"496 -26 OFFCURVE",
"512 -78 CURVE",
"586 -78 LINE",
"571 -42 OFFCURVE",
"544 41 OFFCURVE",
"525 147 CURVE",
"531 282 LINE",
"442 282 LINE",
"444 147 LINE",
"422 74 OFFCURVE",
"392 23 OFFCURVE",
"352 1 CURVE",
"352 351 LINE",
"457 351 LINE SMOOTH",
"583 351 OFFCURVE",
"699 398 OFFCURVE",
"699 541 CURVE SMOOTH",
"699 653 OFFCURVE",
"629 714 OFFCURVE",
"474 714 CURVE SMOOTH",
"262 714 LINE",
"262 -3 LINE",
"224 12 OFFCURVE",
"196 56 OFFCURVE",
"176 147 CURVE",
"180 282 LINE",
"90 282 LINE",
"94 147 LINE",
"70 53 OFFCURVE",
"43 -23 OFFCURVE",
"20 -78 CURVE",
"93 -78 LINE",
"108 -30 OFFCURVE",
"125 9 OFFCURVE",
"132 64 CURVE",
"133 64 LINE",
"152 -23 OFFCURVE",
"203 -67 OFFCURVE",
"262 -80 CURVE",
"262 -163 LINE"
);
},
{
closed = 1;
nodes = (
"352 637 LINE",
"466 637 LINE SMOOTH",
"576 637 OFFCURVE",
"606 593 OFFCURVE",
"606 535 CURVE SMOOTH",
"606 464 OFFCURVE",
"563 428 OFFCURVE",
"456 428 CURVE SMOOTH",
"352 428 LINE"
);
}
);
width = 749;
}
);
unicode = 2CE5;
},
{
glyphname = uni2CE6;
lastChange = "2017-09-06 19:51:29 +0000";
layers = (
{
layerId = UUID0;
paths = (
{
closed = 1;
nodes = (
"331 -163 LINE",
"331 219 LINE",
"435 219 LINE",
"435 -87 LINE",
"523 -87 LINE",
"523 291 LINE",
"331 291 LINE",
"331 351 LINE",
"436 351 LINE SMOOTH",
"562 351 OFFCURVE",
"678 398 OFFCURVE",
"678 541 CURVE SMOOTH",
"678 653 OFFCURVE",
"608 714 OFFCURVE",
"453 714 CURVE SMOOTH",
"241 714 LINE",
"241 291 LINE",
"50 291 LINE",
"50 -87 LINE",
"138 -87 LINE",
"138 219 LINE",
"241 219 LINE",
"241 -163 LINE"
);
},
{
closed = 1;
nodes = (
"331 637 LINE",
"445 637 LINE SMOOTH",
"555 637 OFFCURVE",
"585 593 OFFCURVE",
"585 535 CURVE SMOOTH",
"585 464 OFFCURVE",
"542 428 OFFCURVE",
"435 428 CURVE SMOOTH",
"331 428 LINE"
);
}
);
width = 728;
}
);
unicode = 2CE6;
},
{
glyphname = uni2CE7;
lastChange = "2017-09-06 19:51:29 +0000";
layers = (
{
layerId = UUID0;
paths = (
{
closed = 1;
nodes = (
"469 -163 LINE",
"469 227 LINE",
"821 227 LINE",
"821 299 LINE",
"469 299 LINE",
"469 351 LINE",
"574 351 LINE SMOOTH",
"700 351 OFFCURVE",
"816 398 OFFCURVE",
"816 541 CURVE SMOOTH",
"816 653 OFFCURVE",
"746 714 OFFCURVE",
"591 714 CURVE SMOOTH",
"379 714 LINE",
"379 299 LINE",
"53 299 LINE",
"53 227 LINE",
"379 227 LINE",
"379 -163 LINE"
);
},
{
closed = 1;
nodes = (
"255 -165 OFFCURVE",
"283 -159 OFFCURVE",
"310 -144 CURVE",
"310 -83 LINE",
"280 -96 OFFCURVE",
"248 -106 OFFCURVE",
"212 -106 CURVE SMOOTH",
"154 -106 OFFCURVE",
"123 -64 OFFCURVE",
"123 11 CURVE SMOOTH",
"123 90 OFFCURVE",
"154 131 OFFCURVE",
"215 131 CURVE SMOOTH",
"238 131 OFFCURVE",
"271 122 OFFCURVE",
"295 113 CURVE",
"317 170 LINE",
"292 182 OFFCURVE",
"253 192 OFFCURVE",
"217 192 CURVE SMOOTH",
"120 192 OFFCURVE",
"48 138 OFFCURVE",
"48 11 CURVE SMOOTH",
"48 -111 OFFCURVE",
"117 -165 OFFCURVE",
"213 -165 CURVE SMOOTH"
);
},
{
closed = 1;
nodes = (
"743 -165 OFFCURVE",
"771 -159 OFFCURVE",
"798 -144 CURVE",
"798 -83 LINE",
"768 -96 OFFCURVE",
"736 -106 OFFCURVE",
"700 -106 CURVE SMOOTH",
"642 -106 OFFCURVE",
"611 -64 OFFCURVE",
"611 11 CURVE SMOOTH",
"611 90 OFFCURVE",
"642 131 OFFCURVE",
"703 131 CURVE SMOOTH",
"726 131 OFFCURVE",
"759 122 OFFCURVE",
"783 113 CURVE",
"805 170 LINE",
"780 182 OFFCURVE",
"741 192 OFFCURVE",
"705 192 CURVE SMOOTH",
"608 192 OFFCURVE",
"536 138 OFFCURVE",
"536 11 CURVE SMOOTH",
"536 -111 OFFCURVE",
"605 -165 OFFCURVE",
"701 -165 CURVE SMOOTH"
);
},
{
closed = 1;
nodes = (
"469 637 LINE",
"583 637 LINE SMOOTH",
"693 637 OFFCURVE",
"723 593 OFFCURVE",
"723 535 CURVE SMOOTH",
"723 464 OFFCURVE",
"680 428 OFFCURVE",
"573 428 CURVE SMOOTH",
"469 428 LINE"
);
}
);
width = 871;
}
);
unicode = 2CE7;
},
{
glyphname = uni2CE8;
lastChange = "2017-09-06 19:51:29 +0000";
layers = (
{
layerId = UUID0;
paths = (
{
closed = 1;
nodes = (
"296 -163 LINE",
"296 187 LINE",
"497 187 LINE",
"497 259 LINE",
"296 259 LINE",
"296 351 LINE",
"401 351 LINE SMOOTH",
"527 351 OFFCURVE",
"643 398 OFFCURVE",
"643 541 CURVE SMOOTH",
"643 653 OFFCURVE",
"573 714 OFFCURVE",
"418 714 CURVE SMOOTH",
"206 714 LINE",
"206 259 LINE",
"12 259 LINE",
"12 187 LINE",
"206 187 LINE",
"206 -163 LINE"
);
},
{
closed = 1;
nodes = (
"296 637 LINE",
"410 637 LINE SMOOTH",
"520 637 OFFCURVE",
"550 593 OFFCURVE",
"550 535 CURVE SMOOTH",
"550 464 OFFCURVE",
"507 428 OFFCURVE",
"400 428 CURVE SMOOTH",
"296 428 LINE"
);
}
);
width = 693;
}
);
unicode = 2CE8;
},
{
glyphname = uni2CE9;
lastChange = "2017-09-06 19:51:29 +0000";
layers = (
{
layerId = UUID0;
paths = (
{
closed = 1;
nodes = (
"296 -163 LINE",
"296 14 LINE",
"383 -87 LINE",
"487 -87 LINE",
"298 106 LINE",
"497 291 LINE",
"386 291 LINE",
"296 193 LINE",
"296 351 LINE",
"401 351 LINE SMOOTH",
"527 351 OFFCURVE",
"643 398 OFFCURVE",
"643 541 CURVE SMOOTH",
"643 653 OFFCURVE",
"573 714 OFFCURVE",
"418 714 CURVE SMOOTH",
"206 714 LINE",
"206 193 LINE",
"117 291 LINE",
"13 291 LINE",
"202 106 LINE",
"8 -87 LINE",
"111 -87 LINE",
"206 17 LINE",
"206 -163 LINE"
);
},
{
closed = 1;
nodes = (
"296 637 LINE",
"410 637 LINE SMOOTH",
"520 637 OFFCURVE",
"550 593 OFFCURVE",
"550 535 CURVE SMOOTH",
"550 464 OFFCURVE",
"507 428 OFFCURVE",
"400 428 CURVE SMOOTH",
"296 428 LINE"
);
}
);
width = 693;
}
);
unicode = 2CE9;
},
{
glyphname = uni2CEA;
lastChange = "2017-09-06 19:51:29 +0000";
layers = (
{
layerId = UUID0;
paths = (
{
closed = 1;
nodes = (
"454 -10 OFFCURVE",
"551 86 OFFCURVE",
"551 264 CURVE SMOOTH",
"551 349 OFFCURVE",
"524 424 OFFCURVE",
"476 462 CURVE",
"692 462 LINE",
"645 422 OFFCURVE",
"620 352 OFFCURVE",
"620 260 CURVE SMOOTH",
"620 70 OFFCURVE",
"722 -10 OFFCURVE",
"865 -10 CURVE SMOOTH",
"926 -10 OFFCURVE",
"967 0 OFFCURVE",
"1003 19 CURVE",
"1003 97 LINE",
"966 80 OFFCURVE",
"922 66 OFFCURVE",
"864 66 CURVE SMOOTH",
"763 66 OFFCURVE",
"711 132 OFFCURVE",
"711 261 CURVE SMOOTH",
"711 395 OFFCURVE",
"762 459 OFFCURVE",
"869 459 CURVE SMOOTH",
"906 459 OFFCURVE",
"953 446 OFFCURVE",
"985 434 CURVE",
"1012 507 LINE",
"980 523 OFFCURVE",
"925 536 OFFCURVE",
"871 536 CURVE SMOOTH",
"304 536 LINE SMOOTH",
"150 536 OFFCURVE",
"55 441 OFFCURVE",
"55 264 CURVE SMOOTH",
"55 86 OFFCURVE",
"159 -10 OFFCURVE",
"301 -10 CURVE SMOOTH"
);
},
{
closed = 1;
nodes = (
"194 63 OFFCURVE",
"146 137 OFFCURVE",
"146 264 CURVE SMOOTH",
"146 391 OFFCURVE",
"193 462 OFFCURVE",
"302 462 CURVE SMOOTH",
"411 462 OFFCURVE",
"460 391 OFFCURVE",
"460 264 CURVE SMOOTH",
"460 137 OFFCURVE",
"411 63 OFFCURVE",
"303 63 CURVE SMOOTH"
);
}
);
width = 1045;
}
);
unicode = 2CEA;
},
{
glyphname = uni2CEB;
lastChange = "2017-09-06 19:51:29 +0000";
layers = (
{
layerId = UUID0;
paths = (
{
closed = 1;
nodes = (
"716 304 OFFCURVE",
"778 379 OFFCURVE",
"778 493 CURVE SMOOTH",
"778 606 OFFCURVE",
"716 681 OFFCURVE",
"602 681 CURVE SMOOTH",
"482 681 OFFCURVE",
"425 606 OFFCURVE",
"425 493 CURVE SMOOTH",
"425 380 OFFCURVE",
"482 304 OFFCURVE",
"601 304 CURVE SMOOTH"
);
},
{
closed = 1;
nodes = (
"778 174 LINE",
"778 261 LINE",
"40 261 LINE",
"40 174 LINE"
);
},
{
closed = 1;
nodes = (
"331 304 OFFCURVE",
"393 379 OFFCURVE",
"393 493 CURVE SMOOTH",
"393 606 OFFCURVE",
"331 681 OFFCURVE",
"217 681 CURVE SMOOTH",
"97 681 OFFCURVE",
"40 606 OFFCURVE",
"40 493 CURVE SMOOTH",
"40 380 OFFCURVE",
"97 304 OFFCURVE",
"216 304 CURVE SMOOTH"
);
},
{
closed = 1;
nodes = (
"148 370 OFFCURVE",
"117 416 OFFCURVE",
"117 493 CURVE SMOOTH",
"117 569 OFFCURVE",
"148 615 OFFCURVE",
"217 615 CURVE SMOOTH",
"285 615 OFFCURVE",
"315 569 OFFCURVE",
"315 493 CURVE SMOOTH",
"315 416 OFFCURVE",
"285 370 OFFCURVE",
"216 370 CURVE SMOOTH"
);
},
{
closed = 1;
nodes = (
"533 370 OFFCURVE",
"502 416 OFFCURVE",
"502 493 CURVE SMOOTH",
"502 569 OFFCURVE",
"533 615 OFFCURVE",
"602 615 CURVE SMOOTH",
"670 615 OFFCURVE",
"700 569 OFFCURVE",
"700 493 CURVE SMOOTH",
"700 416 OFFCURVE",
"670 370 OFFCURVE",
"601 370 CURVE SMOOTH"
);
}
);
width = 818;
}
);
unicode = 2CEB;
},
{
glyphname = uni2CEC;
lastChange = "2017-09-06 19:51:29 +0000";
layers = (
{
layerId = UUID0;
paths = (
{
closed = 1;
nodes = (
"509 221 OFFCURVE",
"558 270 OFFCURVE",
"558 356 CURVE SMOOTH",
"558 440 OFFCURVE",
"506 488 OFFCURVE",
"434 488 CURVE SMOOTH",
"356 488 OFFCURVE",
"308 440 OFFCURVE",
"308 356 CURVE SMOOTH",
"308 270 OFFCURVE",
"361 221 OFFCURVE",
"432 221 CURVE SMOOTH"
);
},
{
closed = 1;
nodes = (
"558 100 LINE",
"558 185 LINE",
"34 185 LINE",
"34 100 LINE"
);
},
{
closed = 1;
nodes = (
"235 221 OFFCURVE",
"284 270 OFFCURVE",
"284 356 CURVE SMOOTH",
"284 440 OFFCURVE",
"232 488 OFFCURVE",
"160 488 CURVE SMOOTH",
"82 488 OFFCURVE",
"34 440 OFFCURVE",
"34 356 CURVE SMOOTH",
"34 270 OFFCURVE",
"87 221 OFFCURVE",
"158 221 CURVE SMOOTH"
);
},
{
closed = 1;
nodes = (
"118 276 OFFCURVE",
"100 305 OFFCURVE",
"100 356 CURVE SMOOTH",
"100 404 OFFCURVE",
"117 433 OFFCURVE",
"159 433 CURVE SMOOTH",
"200 433 OFFCURVE",
"219 404 OFFCURVE",
"219 356 CURVE SMOOTH",
"219 305 OFFCURVE",
"200 276 OFFCURVE",
"159 276 CURVE SMOOTH"
);
},
{
closed = 1;
nodes = (
"392 276 OFFCURVE",
"374 305 OFFCURVE",
"374 356 CURVE SMOOTH",
"374 404 OFFCURVE",
"391 433 OFFCURVE",
"433 433 CURVE SMOOTH",
"474 433 OFFCURVE",
"493 404 OFFCURVE",
"493 356 CURVE SMOOTH",
"493 305 OFFCURVE",
"474 276 OFFCURVE",
"433 276 CURVE SMOOTH"
);
}
);
width = 592;
}
);
unicode = 2CEC;
},
{
glyphname = uni2CED;
lastChange = "2017-09-06 19:51:29 +0000";
layers = (
{
layerId = UUID0;
paths = (
{
closed = 1;
nodes = (
"185 0 LINE",
"377 285 LINE",
"558 0 LINE",
"663 0 LINE",
"663 714 LINE",
"573 714 LINE",
"383 427 LINE",
"201 714 LINE",
"97 714 LINE",
"97 0 LINE"
);
},
{
closed = 1;
nodes = (
"180 596 LINE",
"334 353 LINE",
"180 120 LINE"
);
},
{
closed = 1;
nodes = (
"426 359 LINE",
"579 585 LINE",
"579 118 LINE"
);
}
);
width = 760;
}
);
unicode = 2CED;
},
{
glyphname = uni2CEE;
lastChange = "2017-09-06 19:51:29 +0000";
layers = (
{
layerId = UUID0;
paths = (
{
closed = 1;
nodes = (
"173 0 LINE",
"328 207 LINE",
"474 0 LINE",
"576 0 LINE",
"576 536 LINE",
"486 536 LINE",
"333 326 LINE",
"187 536 LINE",
"85 536 LINE",
"85 0 LINE"
);
},
{
closed = 1;
nodes = (
"164 437 LINE",
"284 264 LINE",
"164 100 LINE"
);
},
{
closed = 1;
nodes = (
"377 269 LINE",
"496 429 LINE",
"496 99 LINE"
);
}
);
width = 661;
}
);
unicode = 2CEE;
},
{
glyphname = uni2CEF;
lastChange = "2017-09-06 19:51:29 +0000";
layers = (
{
layerId = UUID0;
paths = (
{
closed = 1;
nodes = (
"-61 568 LINE",
"-61 636 OFFCURVE",
"-83 668 OFFCURVE",
"-156 668 CURVE SMOOTH",
"-368 668 LINE SMOOTH",
"-404 668 OFFCURVE",
"-418 680 OFFCURVE",
"-418 716 CURVE",
"-472 716 LINE",
"-472 648 OFFCURVE",
"-450 616 OFFCURVE",
"-377 616 CURVE SMOOTH",
"-165 616 LINE SMOOTH",
"-129 616 OFFCURVE",
"-115 604 OFFCURVE",
"-115 568 CURVE"
);
}
);
width = 0;
}
);
unicode = 2CEF;
},
{
glyphname = uni2CF0;
lastChange = "2017-09-06 19:51:29 +0000";
layers = (
{
layerId = UUID0;
paths = (
{
closed = 1;
nodes = (
"-407 560 LINE",
"-407 616 LINE",
"-187 616 LINE",
"-187 668 LINE",
"-407 668 LINE",
"-407 724 LINE",
"-459 724 LINE",
"-459 560 LINE"
);
}
);
width = 0;
}
);
unicode = 2CF0;
},
{
glyphname = uni2CF1;
lastChange = "2017-09-06 19:51:29 +0000";
layers = (
{
layerId = UUID0;
paths = (
{
closed = 1;
nodes = (
"-187 560 LINE",
"-187 724 LINE",
"-239 724 LINE",
"-239 668 LINE",
"-459 668 LINE",
"-459 616 LINE",
"-239 616 LINE",
"-239 560 LINE"
);
}
);
width = 0;
}
);
unicode = 2CF1;
},
{
glyphname = uni2CF2;
lastChange = "2017-09-06 19:51:29 +0000";
layers = (
{
layerId = UUID0;
paths = (
{
closed = 1;
nodes = (
"242 772 LINE SMOOTH",
"267 772 OFFCURVE",
"279 759 OFFCURVE",
"279 734 CURVE SMOOTH",
"279 708 OFFCURVE",
"267 683 OFFCURVE",
"231 632 CURVE",
"231 557 LINE",
"310 557 LINE SMOOTH",
"488 557 OFFCURVE",
"574 479 OFFCURVE",
"574 316 CURVE SMOOTH",
"574 164 OFFCURVE",
"474 67 OFFCURVE",
"317 67 CURVE SMOOTH",
"217 67 OFFCURVE",
"187 94 OFFCURVE",
"187 180 CURVE SMOOTH",
"187 557 LINE",
"97 557 LINE",
"97 161 LINE SMOOTH",
"97 41 OFFCURVE",
"167 -10 OFFCURVE",
"309 -10 CURVE SMOOTH",
"524 -10 OFFCURVE",
"669 121 OFFCURVE",
"669 323 CURVE SMOOTH",
"669 522 OFFCURVE",
"547 634 OFFCURVE",
"332 634 CURVE SMOOTH",
"313 634 LINE",
"344 678 OFFCURVE",
"359 718 OFFCURVE",
"359 754 CURVE SMOOTH",
"359 805 OFFCURVE",
"330 839 OFFCURVE",
"263 839 CURVE SMOOTH",
"246 839 OFFCURVE",
"234 838 OFFCURVE",
"227 837 CURVE",
"227 771 LINE"
);
}
);
width = 730;
}
);
unicode = 2CF2;
},
{
glyphname = uni2CF3;
lastChange = "2017-09-06 19:51:29 +0000";
layers = (
{
layerId = UUID0;
paths = (
{
closed = 1;
nodes = (
"222 696 LINE SMOOTH",
"247 696 OFFCURVE",
"261 681 OFFCURVE",
"261 654 CURVE SMOOTH",
"261 622 OFFCURVE",
"248 592 OFFCURVE",
"209 536 CURVE",
"209 467 LINE",
"256 467 LINE SMOOTH",
"398 467 OFFCURVE",
"469 404 OFFCURVE",
"469 269 CURVE SMOOTH",
"469 152 OFFCURVE",
"402 63 OFFCURVE",
"279 63 CURVE SMOOTH",
"202 63 OFFCURVE",
"173 95 OFFCURVE",
"173 161 CURVE SMOOTH",
"173 467 LINE",
"85 467 LINE",
"85 144 LINE SMOOTH",
"85 42 OFFCURVE",
"146 -10 OFFCURVE",
"266 -10 CURVE SMOOTH",
"449 -10 OFFCURVE",
"560 107 OFFCURVE",
"560 278 CURVE SMOOTH",
"560 440 OFFCURVE",
"464 536 OFFCURVE",
"302 536 CURVE SMOOTH",
"296 536 LINE",
"330 595 OFFCURVE",
"343 638 OFFCURVE",
"343 674 CURVE SMOOTH",
"343 727 OFFCURVE",
"310 762 OFFCURVE",
"255 762 CURVE SMOOTH",
"231 762 OFFCURVE",
"215 761 OFFCURVE",
"209 760 CURVE",
"209 696 LINE"
);
}
);
width = 615;
}
);
unicode = 2CF3;
},
{
glyphname = uni2CF9;
lastChange = "2017-09-06 19:51:29 +0000";
layers = (
{
layerId = UUID0;
paths = (
{
closed = 1;
nodes = (
"811 90 LINE",
"458 520 LINE SMOOTH",
"434 549 OFFCURVE",
"409 562 OFFCURVE",
"376 562 CURVE SMOOTH",
"335 562 OFFCURVE",
"306 536 OFFCURVE",
"306 494 CURVE SMOOTH",
"306 457 OFFCURVE",
"330 425 OFFCURVE",
"375 425 CURVE SMOOTH",
"393 425 OFFCURVE",
"410 431 OFFCURVE",
"422 440 CURVE",
"750 40 LINE"
);
},
{
closed = 1;
nodes = (
"529 90 LINE",
"176 520 LINE SMOOTH",
"152 549 OFFCURVE",
"127 562 OFFCURVE",
"94 562 CURVE SMOOTH",
"53 562 OFFCURVE",
"24 536 OFFCURVE",
"24 494 CURVE SMOOTH",
"24 457 OFFCURVE",
"48 425 OFFCURVE",
"93 425 CURVE SMOOTH",
"111 425 OFFCURVE",
"128 431 OFFCURVE",
"140 440 CURVE",
"468 40 LINE"
);
}
);
width = 836;
}
);
unicode = 2CF9;
},
{
glyphname = uni2CFA;
lastChange = "2017-09-06 19:51:29 +0000";
layers = (
{
layerId = UUID0;
paths = (
{
closed = 1;
nodes = (
"414 440 LINE",
"426 431 OFFCURVE",
"443 425 OFFCURVE",
"461 425 CURVE SMOOTH",
"506 425 OFFCURVE",
"530 457 OFFCURVE",
"530 494 CURVE SMOOTH",
"530 536 OFFCURVE",
"501 562 OFFCURVE",
"460 562 CURVE SMOOTH",
"427 562 OFFCURVE",
"402 549 OFFCURVE",
"378 520 CURVE SMOOTH",
"25 90 LINE",
"86 40 LINE"
);
},
{
closed = 1;
nodes = (
"346 45 OFFCURVE",
"375 65 OFFCURVE",
"375 113 CURVE SMOOTH",
"375 162 OFFCURVE",
"346 180 OFFCURVE",
"312 180 CURVE SMOOTH",
"278 180 OFFCURVE",
"251 162 OFFCURVE",
"251 113 CURVE SMOOTH",
"251 65 OFFCURVE",
"278 45 OFFCURVE",
"312 45 CURVE SMOOTH"
);
}
);
width = 554;
}
);
unicode = 2CFA;
},
{
glyphname = uni2CFB;
lastChange = "2017-09-06 19:51:29 +0000";
layers = (
{
layerId = UUID0;
paths = (
{
closed = 1;
nodes = (
"529 90 LINE",
"176 520 LINE SMOOTH",
"152 549 OFFCURVE",
"127 562 OFFCURVE",
"94 562 CURVE SMOOTH",
"53 562 OFFCURVE",
"24 536 OFFCURVE",
"24 494 CURVE SMOOTH",
"24 457 OFFCURVE",
"48 425 OFFCURVE",
"93 425 CURVE SMOOTH",
"111 425 OFFCURVE",
"128 431 OFFCURVE",
"140 440 CURVE",
"468 40 LINE"
);
},
{
closed = 1;
nodes = (
"276 45 OFFCURVE",
"303 65 OFFCURVE",
"303 113 CURVE SMOOTH",
"303 162 OFFCURVE",
"276 180 OFFCURVE",
"242 180 CURVE SMOOTH",
"208 180 OFFCURVE",
"179 162 OFFCURVE",
"179 113 CURVE SMOOTH",
"179 65 OFFCURVE",
"208 45 OFFCURVE",
"242 45 CURVE SMOOTH"
);
}
);
width = 554;
}
);
unicode = 2CFB;
},
{
glyphname = uni2CFC;
lastChange = "2017-09-06 19:51:29 +0000";
layers = (
{
layerId = UUID0;
paths = (
{
closed = 1;
nodes = (
"696 440 LINE",
"708 431 OFFCURVE",
"725 425 OFFCURVE",
"743 425 CURVE SMOOTH",
"788 425 OFFCURVE",
"812 457 OFFCURVE",
"812 494 CURVE SMOOTH",
"812 536 OFFCURVE",
"783 562 OFFCURVE",
"742 562 CURVE SMOOTH",
"709 562 OFFCURVE",
"684 549 OFFCURVE",
"660 520 CURVE SMOOTH",
"307 90 LINE",
"368 40 LINE"
);
},
{
closed = 1;
nodes = (
"414 440 LINE",
"426 431 OFFCURVE",
"443 425 OFFCURVE",
"461 425 CURVE SMOOTH",
"506 425 OFFCURVE",
"530 457 OFFCURVE",
"530 494 CURVE SMOOTH",
"530 536 OFFCURVE",
"501 562 OFFCURVE",
"460 562 CURVE SMOOTH",
"427 562 OFFCURVE",
"402 549 OFFCURVE",
"378 520 CURVE SMOOTH",
"25 90 LINE",
"86 40 LINE"
);
}
);
width = 836;
}
);
unicode = 2CFC;
},
{
glyphname = uni2CFD;
lastChange = "2017-09-06 19:51:29 +0000";
layers = (
{
layerId = UUID0;
paths = (
{
closed = 1;
nodes = (
"195 16 OFFCURVE",
"255 84 OFFCURVE",
"255 172 CURVE SMOOTH",
"255 270 OFFCURVE",
"185 297 OFFCURVE",
"185 366 CURVE SMOOTH",
"185 427 OFFCURVE",
"234 448 OFFCURVE",
"316 448 CURVE",
"316 521 LINE",
"164 521 OFFCURVE",
"99 450 OFFCURVE",
"99 363 CURVE SMOOTH",
"99 273 OFFCURVE",
"169 247 OFFCURVE",
"169 168 CURVE SMOOTH",
"169 123 OFFCURVE",
"139 91 OFFCURVE",
"30 91 CURVE",
"30 16 LINE"
);
}
);
width = 346;
}
);
unicode = 2CFD;
},
{
glyphname = uni2CFE;
lastChange = "2017-09-06 19:51:29 +0000";
layers = (
{
layerId = UUID0;
paths = (
{
closed = 1;
nodes = (
"291 0 LINE",
"291 31 LINE SMOOTH",
"291 150 OFFCURVE",
"197 166 OFFCURVE",
"197 268 CURVE",
"125 268 LINE",
"125 242 LINE SMOOTH",
"125 141 OFFCURVE",
"223 122 OFFCURVE",
"223 0 CURVE"
);
},
{
closed = 1;
nodes = (
"108 75 OFFCURVE",
"130 91 OFFCURVE",
"130 127 CURVE SMOOTH",
"130 164 OFFCURVE",
"108 178 OFFCURVE",
"82 178 CURVE SMOOTH",
"55 178 OFFCURVE",
"35 164 OFFCURVE",
"35 127 CURVE SMOOTH",
"35 91 OFFCURVE",
"55 75 OFFCURVE",
"82 75 CURVE SMOOTH"
);
},
{
closed = 1;
nodes = (
"368 79 OFFCURVE",
"391 97 OFFCURVE",
"391 132 CURVE SMOOTH",
"391 168 OFFCURVE",
"368 183 OFFCURVE",
"343 183 CURVE SMOOTH",
"316 183 OFFCURVE",
"296 168 OFFCURVE",
"296 132 CURVE SMOOTH",
"296 97 OFFCURVE",
"316 79 OFFCURVE",
"343 79 CURVE SMOOTH"
);
}
);
width = 426;
}
);
unicode = 2CFE;
},
{
glyphname = uni2CFF;
lastChange = "2017-09-06 19:51:29 +0000";
layers = (
{
layerId = UUID0;
paths = (
{
closed = 1;
nodes = (
"259 495 LINE",
"259 561 LINE",
"212 627 OFFCURVE",
"139 667 OFFCURVE",
"64 681 CURVE",
"49 681 LINE",
"49 595 LINE",
"117 589 OFFCURVE",
"182 549 OFFCURVE",
"236 495 CURVE"
);
}
);
width = 300;
}
);
unicode = 2CFF;
},
{
glyphname = uniFE24;
lastChange = "2017-09-06 19:51:29 +0000";
layers = (
{
layerId = UUID0;
paths = (
{
closed = 1;
nodes = (
"0 606 LINE",
"0 677 LINE",
"-297 677 LINE",
"-297 606 LINE"
);
}
);
width = 0;
}
);
unicode = FE24;
},
{
glyphname = uniFE25;
lastChange = "2017-09-06 19:51:29 +0000";
layers = (
{
layerId = UUID0;
paths = (
{
closed = 1;
nodes = (
"297 606 LINE",
"297 677 LINE",
"0 677 LINE",
"0 606 LINE"
);
}
);
width = 0;
}
);
unicode = FE25;
},
{
glyphname = uniFE26;
lastChange = "2017-09-06 19:51:29 +0000";
layers = (
{
layerId = UUID0;
paths = (
{
closed = 1;
nodes = (
"313 606 LINE",
"313 677 LINE",
"-313 677 LINE",
"-313 606 LINE"
);
}
);
width = 0;
}
);
unicode = FE26;
},
{
glyphname = u102E0;
lastChange = "2017-09-06 19:51:29 +0000";
layers = (
{
layerId = UUID0;
paths = (
{
closed = 1;
nodes = (
"160 -115 LINE",
"160 -42 LINE",
"-160 -162 LINE",
"-160 -235 LINE"
);
}
);
width = 0;
}
);
unicode = 102E0;
category = Mark;
subCategory = Nonspacing;
},
{
glyphname = u102E1;
lastChange = "2017-09-06 19:51:29 +0000";
layers = (
{
layerId = UUID0;
paths = (
{
closed = 1;
nodes = (
"121 0 LINE SMOOTH",
"249 0 OFFCURVE",
"318 15 OFFCURVE",
"318 108 CURVE SMOOTH",
"318 181 OFFCURVE",
"237 291 OFFCURVE",
"165 375 CURVE",
"95 328 LINE",
"167 244 OFFCURVE",
"231 149 OFFCURVE",
"231 111 CURVE SMOOTH",
"231 85 OFFCURVE",
"216 72 OFFCURVE",
"123 72 CURVE SMOOTH",
"20 72 LINE",
"20 0 LINE"
);
}
);
width = 368;
}
);
unicode = 102E1;
},
{
glyphname = u102E2;
lastChange = "2017-09-06 19:51:29 +0000";
layers = (
{
layerId = UUID0;
paths = (
{
closed = 1;
nodes = (
"255 -10 OFFCURVE",
"304 25 OFFCURVE",
"319 89 CURVE",
"323 89 LINE",
"343 15 OFFCURVE",
"397 -10 OFFCURVE",
"450 -10 CURVE SMOOTH",
"545 -10 OFFCURVE",
"593 55 OFFCURVE",
"593 186 CURVE SMOOTH",
"593 219 OFFCURVE",
"588 280 OFFCURVE",
"581 325 CURVE",
"494 325 LINE",
"501 279 OFFCURVE",
"505 220 OFFCURVE",
"505 185 CURVE SMOOTH",
"505 115 OFFCURVE",
"487 68 OFFCURVE",
"447 68 CURVE SMOOTH",
"395 68 OFFCURVE",
"364 135 OFFCURVE",
"364 234 CURVE SMOOTH",
"364 325 LINE",
"280 325 LINE",
"280 234 LINE SMOOTH",
"280 135 OFFCURVE",
"248 68 OFFCURVE",
"198 68 CURVE SMOOTH",
"167 68 OFFCURVE",
"138 91 OFFCURVE",
"138 185 CURVE SMOOTH",
"138 226 OFFCURVE",
"143 287 OFFCURVE",
"150 325 CURVE",
"63 325 LINE",
"56 284 OFFCURVE",
"50 226 OFFCURVE",
"50 186 CURVE SMOOTH",
"50 33 OFFCURVE",
"114 -10 OFFCURVE",
"193 -10 CURVE SMOOTH"
);
}
);
width = 643;
}
);
unicode = 102E2;
},
{
glyphname = u102E3;
lastChange = "2017-09-06 19:51:29 +0000";
layers = (
{
layerId = UUID0;
paths = (
{
closed = 1;
nodes = (
"281 0 LINE",
"402 198 LINE",
"437 169 OFFCURVE",
"514 151 OFFCURVE",
"576 151 CURVE SMOOTH",
"726 151 OFFCURVE",
"826 254 OFFCURVE",
"869 330 CURVE",
"772 330 LINE",
"729 276 OFFCURVE",
"669 229 OFFCURVE",
"574 229 CURVE SMOOTH",
"518 229 OFFCURVE",
"451 250 OFFCURVE",
"412 310 CURVE",
"372 310 LINE",
"250 107 LINE",
"91 375 LINE",
"20 328 LINE",
"213 0 LINE"
);
}
);
width = 879;
}
);
unicode = 102E3;
},
{
glyphname = u102E4;
lastChange = "2017-09-06 19:51:29 +0000";
layers = (
{
layerId = UUID0;
paths = (
{
closed = 1;
nodes = (
"203 -45 OFFCURVE",
"348 124 OFFCURVE",
"348 263 CURVE SMOOTH",
"348 323 OFFCURVE",
"316 375 OFFCURVE",
"238 375 CURVE SMOOTH",
"171 375 OFFCURVE",
"112 312 OFFCURVE",
"112 256 CURVE SMOOTH",
"112 234 OFFCURVE",
"126 210 OFFCURVE",
"157 210 CURVE SMOOTH",
"190 210 OFFCURVE",
"215 216 OFFCURVE",
"246 230 CURVE",
"237 134 OFFCURVE",
"123 21 OFFCURVE",
"-40 -24 CURVE",
"-19 -93 LINE"
);
}
);
width = 398;
}
);
unicode = 102E4;
},
{
glyphname = u102E5;
lastChange = "2017-09-06 19:51:29 +0000";
layers = (
{
layerId = UUID0;
paths = (
{
closed = 1;
nodes = (
"273 -10 OFFCURVE",
"327 4 OFFCURVE",
"363 26 CURVE",
"347 95 LINE",
"318 76 OFFCURVE",
"273 64 OFFCURVE",
"237 64 CURVE SMOOTH",
"186 64 OFFCURVE",
"137 81 OFFCURVE",
"137 124 CURVE SMOOTH",
"137 177 OFFCURVE",
"187 190 OFFCURVE",
"254 190 CURVE SMOOTH",
"312 190 LINE",
"312 260 LINE",
"259 260 LINE SMOOTH",
"212 260 OFFCURVE",
"152 278 OFFCURVE",
"152 324 CURVE SMOOTH",
"152 364 OFFCURVE",
"186 380 OFFCURVE",
"251 380 CURVE SMOOTH",
"290 380 OFFCURVE",
"319 373 OFFCURVE",
"343 363 CURVE",
"355 437 LINE",
"323 446 OFFCURVE",
"288 454 OFFCURVE",
"247 454 CURVE SMOOTH",
"137 454 OFFCURVE",
"68 413 OFFCURVE",
"68 333 CURVE SMOOTH",
"68 283 OFFCURVE",
"97 248 OFFCURVE",
"159 231 CURVE",
"159 227 LINE",
"87 222 OFFCURVE",
"50 173 OFFCURVE",
"50 117 CURVE SMOOTH",
"50 26 OFFCURVE",
"138 -10 OFFCURVE",
"218 -10 CURVE SMOOTH"
);
}
);
width = 393;
}
);
unicode = 102E5;
},
{
glyphname = u102E6;
lastChange = "2017-09-06 19:51:29 +0000";
layers = (
{
layerId = UUID0;
paths = (
{
closed = 1;
nodes = (
"273 -10 OFFCURVE",
"327 4 OFFCURVE",
"363 26 CURVE",
"347 95 LINE",
"318 76 OFFCURVE",
"273 64 OFFCURVE",
"237 64 CURVE SMOOTH",
"186 64 OFFCURVE",
"137 81 OFFCURVE",
"137 124 CURVE SMOOTH",
"137 177 OFFCURVE",
"187 190 OFFCURVE",
"254 190 CURVE SMOOTH",
"312 190 LINE",
"312 260 LINE",
"259 260 LINE SMOOTH",
"212 260 OFFCURVE",
"152 278 OFFCURVE",
"152 324 CURVE SMOOTH",
"152 364 OFFCURVE",
"186 374 OFFCURVE",
"251 374 CURVE SMOOTH",
"328 374 LINE SMOOTH",
"404 374 OFFCURVE",
"492 384 OFFCURVE",
"570 420 CURVE",
"557 484 LINE",
"494 461 OFFCURVE",
"426 444 OFFCURVE",
"333 444 CURVE SMOOTH",
"247 444 LINE SMOOTH",
"137 444 OFFCURVE",
"68 413 OFFCURVE",
"68 333 CURVE SMOOTH",
"68 283 OFFCURVE",
"97 248 OFFCURVE",
"159 231 CURVE",
"159 227 LINE",
"87 222 OFFCURVE",
"50 173 OFFCURVE",
"50 117 CURVE SMOOTH",
"50 26 OFFCURVE",
"138 -10 OFFCURVE",
"218 -10 CURVE SMOOTH"
);
}
);
width = 595;
}
);
unicode = 102E6;
},
{
glyphname = u102E7;
lastChange = "2017-09-06 19:51:29 +0000";
layers = (
{
layerId = UUID0;
paths = (
{
closed = 1;
nodes = (
"138 -53 OFFCURVE",
"335 -5 OFFCURVE",
"335 126 CURVE SMOOTH",
"335 172 OFFCURVE",
"298 222 OFFCURVE",
"226 227 CURVE",
"226 231 LINE",
"288 248 OFFCURVE",
"317 284 OFFCURVE",
"317 334 CURVE SMOOTH",
"317 414 OFFCURVE",
"248 454 OFFCURVE",
"138 454 CURVE SMOOTH",
"97 454 OFFCURVE",
"62 446 OFFCURVE",
"30 437 CURVE",
"42 364 LINE",
"66 374 OFFCURVE",
"95 381 OFFCURVE",
"134 381 CURVE SMOOTH",
"199 381 OFFCURVE",
"233 365 OFFCURVE",
"233 325 CURVE SMOOTH",
"233 279 OFFCURVE",
"173 260 OFFCURVE",
"126 260 CURVE SMOOTH",
"73 260 LINE",
"73 190 LINE",
"131 190 LINE SMOOTH",
"198 190 OFFCURVE",
"248 176 OFFCURVE",
"248 123 CURVE SMOOTH",
"248 51 OFFCURVE",
"115 14 OFFCURVE",
"35 6 CURVE",
"55 -63 LINE"
);
}
);
width = 385;
}
);
unicode = 102E7;
},
{
glyphname = u102E8;
lastChange = "2017-09-06 19:51:29 +0000";
layers = (
{
layerId = UUID0;
paths = (
{
closed = 1;
nodes = (
"201 20 LINE SMOOTH",
"341 42 OFFCURVE",
"394 111 OFFCURVE",
"394 174 CURVE SMOOTH",
"394 232 OFFCURVE",
"355 286 OFFCURVE",
"267 286 CURVE SMOOTH",
"232 286 OFFCURVE",
"188 263 OFFCURVE",
"164 234 CURVE",
"164 524 LINE",
"80 524 LINE",
"80 69 LINE",
"15 58 LINE",
"28 -7 LINE"
);
},
{
closed = 1;
nodes = (
"164 131 LINE",
"171 168 OFFCURVE",
"210 215 OFFCURVE",
"252 215 CURVE SMOOTH",
"290 215 OFFCURVE",
"310 195 OFFCURVE",
"310 170 CURVE SMOOTH",
"310 141 OFFCURVE",
"283 106 OFFCURVE",
"194 88 CURVE SMOOTH",
"164 82 LINE"
);
}
);
width = 434;
}
);
unicode = 102E8;
},
{
glyphname = u102E9;
lastChange = "2017-09-06 19:51:29 +0000";
layers = (
{
layerId = UUID0;
paths = (
{
closed = 1;
nodes = (
"309 -10 OFFCURVE",
"346 70 OFFCURVE",
"347 271 CURVE",
"371 277 OFFCURVE",
"395 284 OFFCURVE",
"417 294 CURVE",
"393 363 LINE",
"378 356 OFFCURVE",
"361 350 OFFCURVE",
"345 345 CURVE",
"335 486 OFFCURVE",
"291 544 OFFCURVE",
"199 544 CURVE SMOOTH",
"89 544 OFFCURVE",
"50 467 OFFCURVE",
"50 269 CURVE SMOOTH",
"50 72 OFFCURVE",
"95 -10 OFFCURVE",
"199 -10 CURVE SMOOTH"
);
},
{
closed = 1;
nodes = (
"151 62 OFFCURVE",
"135 99 OFFCURVE",
"134 253 CURVE",
"164 253 LINE SMOOTH",
"194 253 OFFCURVE",
"228 254 OFFCURVE",
"263 257 CURVE",
"262 99 OFFCURVE",
"249 62 OFFCURVE",
"199 62 CURVE SMOOTH"
);
},
{
closed = 1;
nodes = (
"138 444 OFFCURVE",
"155 472 OFFCURVE",
"199 472 CURVE SMOOTH",
"240 472 OFFCURVE",
"258 444 OFFCURVE",
"262 328 CURVE",
"226 324 OFFCURVE",
"191 323 OFFCURVE",
"164 323 CURVE SMOOTH",
"134 323 LINE"
);
}
);
width = 412;
}
);
unicode = 102E9;
},
{
glyphname = u102EA;
lastChange = "2017-09-06 19:51:29 +0000";
layers = (
{
layerId = UUID0;
paths = (
{
closed = 1;
nodes = (
"256 0 LINE",
"256 70 LINE",
"184 70 LINE SMOOTH",
"167 70 OFFCURVE",
"164 78 OFFCURVE",
"164 94 CURVE SMOOTH",
"164 524 LINE",
"80 524 LINE",
"80 66 LINE SMOOTH",
"80 31 OFFCURVE",
"87 0 OFFCURVE",
"140 0 CURVE SMOOTH"
);
}
);
width = 276;
}
);
unicode = 102EA;
},
{
glyphname = u102EB;
lastChange = "2017-09-06 19:51:29 +0000";
layers = (
{
layerId = UUID0;
paths = (
{
closed = 1;
nodes = (
"285 -10 OFFCURVE",
"334 25 OFFCURVE",
"349 89 CURVE",
"353 89 LINE",
"373 15 OFFCURVE",
"427 -10 OFFCURVE",
"480 -10 CURVE SMOOTH",
"575 -10 OFFCURVE",
"623 55 OFFCURVE",
"623 186 CURVE SMOOTH",
"623 219 OFFCURVE",
"618 280 OFFCURVE",
"611 325 CURVE",
"524 325 LINE",
"531 279 OFFCURVE",
"535 220 OFFCURVE",
"535 185 CURVE SMOOTH",
"535 115 OFFCURVE",
"517 68 OFFCURVE",
"477 68 CURVE SMOOTH",
"425 68 OFFCURVE",
"394 135 OFFCURVE",
"394 234 CURVE SMOOTH",
"394 325 LINE",
"310 325 LINE",
"310 234 LINE SMOOTH",
"310 135 OFFCURVE",
"278 68 OFFCURVE",
"228 68 CURVE SMOOTH",
"197 68 OFFCURVE",
"164 91 OFFCURVE",
"164 185 CURVE SMOOTH",
"164 524 LINE",
"80 524 LINE",
"80 186 LINE",
"80 33 OFFCURVE",
"144 -10 OFFCURVE",
"223 -10 CURVE SMOOTH"
);
}
);
width = 673;
}
);
unicode = 102EB;
},
{
glyphname = u102EC;
lastChange = "2017-09-06 19:51:29 +0000";
layers = (
{
layerId = UUID0;
paths = (
{
closed = 1;
nodes = (
"208 -125 OFFCURVE",
"277 -98 OFFCURVE",
"291 0 CURVE",
"386 0 LINE",
"386 70 LINE",
"294 70 LINE",
"294 325 LINE",
"210 325 LINE",
"210 32 LINE SMOOTH",
"210 -27 OFFCURVE",
"180 -53 OFFCURVE",
"134 -53 CURVE SMOOTH",
"100 -53 OFFCURVE",
"77 -20 OFFCURVE",
"68 12 CURVE",
"-5 -8 LINE",
"11 -76 OFFCURVE",
"45 -125 OFFCURVE",
"133 -125 CURVE SMOOTH"
);
}
);
width = 406;
}
);
unicode = 102EC;
},
{
glyphname = u102ED;
lastChange = "2017-09-06 19:51:29 +0000";
layers = (
{
layerId = UUID0;
paths = (
{
closed = 1;
nodes = (
"383 -160 LINE SMOOTH",
"448 -160 OFFCURVE",
"529 -153 OFFCURVE",
"560 -134 CURVE",
"560 -64 LINE",
"519 -86 OFFCURVE",
"450 -90 OFFCURVE",
"384 -90 CURVE SMOOTH",
"231 -90 LINE SMOOTH",
"221 -90 OFFCURVE",
"213 -88 OFFCURVE",
"213 -81 CURVE SMOOTH",
"213 -77 OFFCURVE",
"218 -69 OFFCURVE",
"225 -59 CURVE SMOOTH",
"278 15 LINE SMOOTH",
"298 42 OFFCURVE",
"312 67 OFFCURVE",
"319 89 CURVE",
"323 89 LINE",
"343 15 OFFCURVE",
"397 -10 OFFCURVE",
"450 -10 CURVE SMOOTH",
"545 -10 OFFCURVE",
"593 55 OFFCURVE",
"593 186 CURVE SMOOTH",
"593 219 OFFCURVE",
"588 280 OFFCURVE",
"581 325 CURVE",
"494 325 LINE",
"501 279 OFFCURVE",
"505 220 OFFCURVE",
"505 185 CURVE SMOOTH",
"505 115 OFFCURVE",
"487 68 OFFCURVE",
"447 68 CURVE SMOOTH",
"395 68 OFFCURVE",
"364 135 OFFCURVE",
"364 234 CURVE SMOOTH",
"364 325 LINE",
"280 325 LINE",
"280 234 LINE SMOOTH",
"280 135 OFFCURVE",
"248 68 OFFCURVE",
"198 68 CURVE SMOOTH",
"167 68 OFFCURVE",
"138 91 OFFCURVE",
"138 185 CURVE SMOOTH",
"138 226 OFFCURVE",
"143 287 OFFCURVE",
"150 325 CURVE",
"63 325 LINE",
"56 284 OFFCURVE",
"50 226 OFFCURVE",
"50 186 CURVE SMOOTH",
"50 42 OFFCURVE",
"106 -4 OFFCURVE",
"178 -9 CURVE",
"157 -41 LINE SMOOTH",
"131 -81 OFFCURVE",
"117 -103 OFFCURVE",
"117 -124 CURVE SMOOTH",
"117 -146 OFFCURVE",
"134 -160 OFFCURVE",
"183 -160 CURVE SMOOTH"
);
}
);
width = 643;
}
);
unicode = 102ED;
},
{
glyphname = u102EE;
lastChange = "2017-09-06 19:51:29 +0000";
layers = (
{
layerId = UUID0;
paths = (
{
closed = 1;
nodes = (
"79 0 LINE SMOOTH",
"266 0 OFFCURVE",
"475 78 OFFCURVE",
"475 334 CURVE SMOOTH",
"475 444 LINE",
"387 444 LINE",
"387 330 LINE SMOOTH",
"387 173 OFFCURVE",
"294 111 OFFCURVE",
"185 86 CURVE",
"211 125 OFFCURVE",
"227 177 OFFCURVE",
"227 240 CURVE SMOOTH",
"227 286 OFFCURVE",
"215 357 OFFCURVE",
"181 408 CURVE",
"103 374 LINE",
"129 325 OFFCURVE",
"139 279 OFFCURVE",
"139 238 CURVE SMOOTH",
"139 121 OFFCURVE",
"79 72 OFFCURVE",
"20 69 CURVE",
"20 0 LINE"
);
}
);
width = 535;
}
);
unicode = 102EE;
},
{
glyphname = u102EF;
lastChange = "2017-09-06 19:51:29 +0000";
layers = (
{
layerId = UUID0;
paths = (
{
closed = 1;
nodes = (
"59 0 LINE SMOOTH",
"163 0 OFFCURVE",
"464 5 OFFCURVE",
"464 249 CURVE SMOOTH",
"464 410 OFFCURVE",
"277 444 OFFCURVE",
"148 444 CURVE SMOOTH",
"94 444 LINE",
"94 374 LINE",
"114 374 LINE SMOOTH",
"147 374 OFFCURVE",
"186 373 OFFCURVE",
"223 369 CURVE",
"20 70 LINE",
"20 0 LINE"
);
},
{
closed = 1;
nodes = (
"305 349 LINE",
"349 331 OFFCURVE",
"380 300 OFFCURVE",
"380 248 CURVE SMOOTH",
"380 117 OFFCURVE",
"233 82 OFFCURVE",
"116 73 CURVE"
);
}
);
width = 514;
}
);
unicode = 102EF;
},
{
glyphname = u102F0;
lastChange = "2017-09-06 19:51:29 +0000";
layers = (
{
layerId = UUID0;
paths = (
{
closed = 1;
nodes = (
"389 -10 OFFCURVE",
"454 77 OFFCURVE",
"454 189 CURVE SMOOTH",
"454 343 OFFCURVE",
"292 408 OFFCURVE",
"133 475 CURVE",
"99 406 LINE",
"135 392 OFFCURVE",
"168 378 OFFCURVE",
"197 365 CURVE",
"125 326 OFFCURVE",
"50 258 OFFCURVE",
"50 166 CURVE SMOOTH",
"50 61 OFFCURVE",
"122 -10 OFFCURVE",
"252 -10 CURVE SMOOTH"
);
},
{
closed = 1;
nodes = (
"186 64 OFFCURVE",
"134 99 OFFCURVE",
"134 172 CURVE SMOOTH",
"134 234 OFFCURVE",
"189 285 OFFCURVE",
"273 324 CURVE",
"338 283 OFFCURVE",
"370 240 OFFCURVE",
"370 188 CURVE SMOOTH",
"370 104 OFFCURVE",
"318 64 OFFCURVE",
"249 64 CURVE SMOOTH"
);
}
);
width = 504;
}
);
unicode = 102F0;
},
{
glyphname = u102F1;
lastChange = "2017-09-06 19:51:29 +0000";
layers = (
{
layerId = UUID0;
paths = (
{
closed = 1;
nodes = (
"227 -10 OFFCURVE",
"255 15 OFFCURVE",
"273 43 CURVE",
"277 44 LINE",
"291 3 OFFCURVE",
"339 -9 OFFCURVE",
"373 -9 CURVE SMOOTH",
"454 -9 OFFCURVE",
"506 59 OFFCURVE",
"506 151 CURVE SMOOTH",
"506 217 OFFCURVE",
"474 290 OFFCURVE",
"405 337 CURVE",
"506 389 LINE",
"506 471 LINE",
"30 222 LINE",
"30 142 LINE",
"69 162 LINE",
"65 145 OFFCURVE",
"65 126 OFFCURVE",
"65 109 CURVE SMOOTH",
"65 28 OFFCURVE",
"118 -10 OFFCURVE",
"177 -10 CURVE SMOOTH"
);
},
{
closed = 1;
nodes = (
"165 68 OFFCURVE",
"148 77 OFFCURVE",
"148 130 CURVE SMOOTH",
"148 143 OFFCURVE",
"150 180 OFFCURVE",
"162 210 CURVE",
"324 295 LINE",
"383 278 OFFCURVE",
"423 199 OFFCURVE",
"423 139 CURVE SMOOTH",
"423 100 OFFCURVE",
"406 69 OFFCURVE",
"366 69 CURVE SMOOTH",
"337 69 OFFCURVE",
"312 95 OFFCURVE",
"311 161 CURVE",
"238 153 LINE",
"238 111 OFFCURVE",
"227 68 OFFCURVE",
"189 68 CURVE SMOOTH"
);
}
);
width = 546;
}
);
unicode = 102F1;
},
{
glyphname = u102F2;
lastChange = "2017-09-06 19:51:29 +0000";
layers = (
{
layerId = UUID0;
paths = (
{
closed = 1;
nodes = (
"115 -155 LINE SMOOTH",
"202 -155 OFFCURVE",
"365 -140 OFFCURVE",
"430 -7 CURVE",
"542 10 LINE SMOOTH",
"682 31 OFFCURVE",
"735 101 OFFCURVE",
"735 164 CURVE SMOOTH",
"735 222 OFFCURVE",
"696 276 OFFCURVE",
"619 276 CURVE SMOOTH",
"570 276 OFFCURVE",
"511 248 OFFCURVE",
"443 149 CURVE",
"374 149 LINE",
"374 103 LINE SMOOTH",
"374 -61 OFFCURVE",
"200 -85 OFFCURVE",
"117 -85 CURVE SMOOTH",
"105 -85 LINE SMOOTH",
"30 -85 OFFCURVE",
"-14 -68 OFFCURVE",
"-40 -57 CURVE",
"-40 -128 LINE",
"-6 -145 OFFCURVE",
"49 -155 OFFCURVE",
"87 -155 CURVE SMOOTH"
);
},
{
closed = 1;
nodes = (
"497 133 OFFCURVE",
"557 205 OFFCURVE",
"604 205 CURVE SMOOTH",
"631 205 OFFCURVE",
"651 185 OFFCURVE",
"651 160 CURVE SMOOTH",
"651 130 OFFCURVE",
"620 92 OFFCURVE",
"525 76 CURVE SMOOTH",
"461 65 LINE"
);
}
);
width = 775;
}
);
unicode = 102F2;
},
{
glyphname = u102F3;
lastChange = "2017-09-06 19:51:29 +0000";
layers = (
{
layerId = UUID0;
paths = (
{
closed = 1;
nodes = (
"233 0 LINE SMOOTH",
"321 0 OFFCURVE",
"421 20 OFFCURVE",
"477 45 CURVE",
"477 116 LINE",
"417 93 OFFCURVE",
"330 70 OFFCURVE",
"234 70 CURVE SMOOTH",
"168 70 LINE SMOOTH",
"138 70 OFFCURVE",
"120 73 OFFCURVE",
"120 86 CURVE SMOOTH",
"120 99 OFFCURVE",
"146 111 OFFCURVE",
"203 142 CURVE SMOOTH",
"297 193 LINE SMOOTH",
"365 230 OFFCURVE",
"393 250 OFFCURVE",
"393 278 CURVE SMOOTH",
"393 298 OFFCURVE",
"378 325 OFFCURVE",
"356 365 CURVE SMOOTH",
"293 477 LINE",
"224 439 LINE",
"296 312 LINE SMOOTH",
"301 303 OFFCURVE",
"304 297 OFFCURVE",
"304 291 CURVE SMOOTH",
"304 280 OFFCURVE",
"293 273 OFFCURVE",
"261 255 CURVE SMOOTH",
"120 177 LINE SMOOTH",
"56 142 OFFCURVE",
"30 107 OFFCURVE",
"30 74 CURVE SMOOTH",
"30 33 OFFCURVE",
"70 0 OFFCURVE",
"142 0 CURVE SMOOTH"
);
}
);
width = 497;
}
);
unicode = 102F3;
},
{
glyphname = u102F4;
lastChange = "2017-09-06 19:51:29 +0000";
layers = (
{
layerId = UUID0;
paths = (
{
closed = 1;
nodes = (
"380 -10 OFFCURVE",
"442 37 OFFCURVE",
"470 107 CURVE",
"401 140 LINE",
"381 86 OFFCURVE",
"320 64 OFFCURVE",
"262 64 CURVE SMOOTH",
"189 64 OFFCURVE",
"134 119 OFFCURVE",
"134 206 CURVE SMOOTH",
"134 289 OFFCURVE",
"183 374 OFFCURVE",
"346 374 CURVE SMOOTH",
"399 374 LINE SMOOTH",
"475 374 OFFCURVE",
"583 383 OFFCURVE",
"661 419 CURVE",
"648 484 LINE",
"585 461 OFFCURVE",
"497 444 OFFCURVE",
"404 444 CURVE SMOOTH",
"349 444 LINE SMOOTH",
"183 444 OFFCURVE",
"50 368 OFFCURVE",
"50 200 CURVE SMOOTH",
"50 95 OFFCURVE",
"108 -10 OFFCURVE",
"262 -10 CURVE SMOOTH"
);
}
);
width = 681;
}
);
unicode = 102F4;
},
{
glyphname = u102F5;
lastChange = "2017-09-06 19:51:29 +0000";
layers = (
{
layerId = UUID0;
paths = (
{
closed = 1;
nodes = (
"415 0 LINE",
"415 70 LINE",
"143 70 LINE",
"384 378 LINE",
"384 444 LINE",
"170 444 LINE SMOOTH",
"60 444 OFFCURVE",
"26 392 OFFCURVE",
"25 318 CURVE",
"103 318 LINE",
"106 357 OFFCURVE",
"124 374 OFFCURVE",
"181 374 CURVE SMOOTH",
"297 374 LINE",
"52 58 LINE",
"52 0 LINE"
);
}
);
width = 435;
}
);
unicode = 102F5;
},
{
glyphname = u102F6;
lastChange = "2017-09-06 19:51:29 +0000";
layers = (
{
layerId = UUID0;
paths = (
{
closed = 1;
nodes = (
"416 0 LINE",
"416 70 LINE",
"261 70 LINE SMOOTH",
"189 70 OFFCURVE",
"134 104 OFFCURVE",
"134 173 CURVE SMOOTH",
"134 284 OFFCURVE",
"219 344 OFFCURVE",
"359 374 CURVE",
"359 454 LINE",
"219 432 OFFCURVE",
"50 336 OFFCURVE",
"50 167 CURVE SMOOTH",
"50 65 OFFCURVE",
"123 0 OFFCURVE",
"265 0 CURVE SMOOTH"
);
},
{
closed = 1;
nodes = (
"430 219 OFFCURVE",
"455 236 OFFCURVE",
"455 273 CURVE SMOOTH",
"455 311 OFFCURVE",
"430 327 OFFCURVE",
"401 327 CURVE SMOOTH",
"369 327 OFFCURVE",
"346 311 OFFCURVE",
"346 273 CURVE SMOOTH",
"346 236 OFFCURVE",
"369 219 OFFCURVE",
"401 219 CURVE SMOOTH"
);
}
);
width = 485;
}
);
unicode = 102F6;
},
{
glyphname = u102F7;
lastChange = "2017-09-06 19:51:29 +0000";
layers = (
{
layerId = UUID0;
paths = (
{
closed = 1;
nodes = (
"363 -160 LINE SMOOTH",
"428 -160 OFFCURVE",
"510 -153 OFFCURVE",
"541 -134 CURVE",
"541 -64 LINE",
"500 -86 OFFCURVE",
"430 -90 OFFCURVE",
"364 -90 CURVE SMOOTH",
"211 -90 LINE SMOOTH",
"201 -90 OFFCURVE",
"193 -88 OFFCURVE",
"193 -81 CURVE SMOOTH",
"193 -77 OFFCURVE",
"202 -63 OFFCURVE",
"208 -55 CURVE SMOOTH",
"259 15 LINE",
"427 16 OFFCURVE",
"580 76 OFFCURVE",
"580 195 CURVE SMOOTH",
"580 266 OFFCURVE",
"517 320 OFFCURVE",
"377 320 CURVE SMOOTH",
"181 320 OFFCURVE",
"50 208 OFFCURVE",
"50 119 CURVE SMOOTH",
"50 70 OFFCURVE",
"99 34 OFFCURVE",
"179 21 CURVE",
"137 -41 LINE SMOOTH",
"118 -69 OFFCURVE",
"98 -103 OFFCURVE",
"98 -124 CURVE SMOOTH",
"98 -146 OFFCURVE",
"115 -160 OFFCURVE",
"164 -160 CURVE SMOOTH"
);
},
{
closed = 1;
nodes = (
"201 87 OFFCURVE",
"134 103 OFFCURVE",
"134 134 CURVE SMOOTH",
"134 172 OFFCURVE",
"196 213 OFFCURVE",
"271 234 CURVE",
"271 87 LINE",
"264 87 LINE SMOOTH"
);
},
{
closed = 1;
nodes = (
"351 247 LINE",
"357 248 OFFCURVE",
"363 248 OFFCURVE",
"369 248 CURVE SMOOTH",
"467 248 OFFCURVE",
"496 217 OFFCURVE",
"496 187 CURVE SMOOTH",
"496 127 OFFCURVE",
"420 102 OFFCURVE",
"351 93 CURVE"
);
}
);
width = 630;
}
);
unicode = 102F7;
},
{
glyphname = u102F8;
lastChange = "2017-09-06 19:51:29 +0000";
layers = (
{
layerId = UUID0;
paths = (
{
closed = 1;
nodes = (
"221 -125 OFFCURVE",
"294 -85 OFFCURVE",
"294 38 CURVE SMOOTH",
"294 86 LINE",
"387 60 LINE",
"387 135 LINE",
"294 153 LINE",
"294 230 LINE",
"387 254 LINE",
"387 328 LINE",
"294 296 LINE",
"294 444 LINE",
"210 444 LINE",
"210 267 LINE",
"50 212 LINE",
"50 156 LINE",
"210 110 LINE",
"210 32 LINE SMOOTH",
"210 -27 OFFCURVE",
"180 -53 OFFCURVE",
"134 -53 CURVE SMOOTH",
"100 -53 OFFCURVE",
"77 -20 OFFCURVE",
"68 12 CURVE",
"-5 -8 LINE",
"11 -76 OFFCURVE",
"51 -125 OFFCURVE",
"139 -125 CURVE SMOOTH"
);
},
{
closed = 1;
nodes = (
"134 185 LINE",
"210 208 LINE",
"210 169 LINE"
);
}
);
width = 437;
}
);
unicode = 102F8;
},
{
glyphname = u102F9;
lastChange = "2017-09-06 19:51:29 +0000";
layers = (
{
layerId = UUID0;
paths = (
{
closed = 1;
nodes = (
"233 0 LINE SMOOTH",
"331 0 OFFCURVE",
"421 20 OFFCURVE",
"477 45 CURVE",
"477 116 LINE",
"417 93 OFFCURVE",
"330 70 OFFCURVE",
"234 70 CURVE SMOOTH",
"168 70 LINE SMOOTH",
"138 70 OFFCURVE",
"118 74 OFFCURVE",
"118 87 CURVE SMOOTH",
"118 100 OFFCURVE",
"138 112 OFFCURVE",
"199 143 CURVE SMOOTH",
"294 191 LINE SMOOTH",
"355 222 OFFCURVE",
"372 241 OFFCURVE",
"374 302 CURVE",
"461 302 LINE",
"461 368 LINE",
"374 368 LINE",
"374 444 LINE",
"290 444 LINE",
"290 368 LINE",
"205 368 LINE",
"205 302 LINE",
"289 302 LINE",
"289 271 OFFCURVE",
"279 259 OFFCURVE",
"260 249 CURVE SMOOTH",
"118 176 LINE SMOOTH",
"54 143 OFFCURVE",
"30 111 OFFCURVE",
"30 74 CURVE SMOOTH",
"30 35 OFFCURVE",
"70 0 OFFCURVE",
"142 0 CURVE SMOOTH"
);
}
);
width = 507;
}
);
unicode = 102F9;
},
{
glyphname = u102FA;
lastChange = "2017-09-06 19:51:29 +0000";
layers = (
{
layerId = UUID0;
paths = (
{
closed = 1;
nodes = (
"255 -10 OFFCURVE",
"304 25 OFFCURVE",
"319 89 CURVE",
"323 89 LINE",
"343 15 OFFCURVE",
"397 -10 OFFCURVE",
"450 -10 CURVE SMOOTH",
"545 -10 OFFCURVE",
"593 55 OFFCURVE",
"593 186 CURVE SMOOTH",
"593 219 OFFCURVE",
"588 280 OFFCURVE",
"581 325 CURVE",
"494 325 LINE",
"501 279 OFFCURVE",
"505 220 OFFCURVE",
"505 185 CURVE SMOOTH",
"505 115 OFFCURVE",
"487 68 OFFCURVE",
"447 68 CURVE SMOOTH",
"395 68 OFFCURVE",
"364 135 OFFCURVE",
"364 234 CURVE SMOOTH",
"364 325 LINE",
"280 325 LINE",
"280 234 LINE SMOOTH",
"280 135 OFFCURVE",
"248 68 OFFCURVE",
"198 68 CURVE SMOOTH",
"167 68 OFFCURVE",
"138 91 OFFCURVE",
"138 185 CURVE SMOOTH",
"138 226 OFFCURVE",
"143 287 OFFCURVE",
"150 325 CURVE",
"63 325 LINE",
"56 284 OFFCURVE",
"50 226 OFFCURVE",
"50 186 CURVE SMOOTH",
"50 33 OFFCURVE",
"114 -10 OFFCURVE",
"193 -10 CURVE SMOOTH"
);
},
{
closed = 1;
nodes = (
"266 368 OFFCURVE",
"291 385 OFFCURVE",
"291 422 CURVE SMOOTH",
"291 460 OFFCURVE",
"266 476 OFFCURVE",
"237 476 CURVE SMOOTH",
"205 476 OFFCURVE",
"182 460 OFFCURVE",
"182 422 CURVE SMOOTH",
"182 385 OFFCURVE",
"205 368 OFFCURVE",
"237 368 CURVE SMOOTH"
);
},
{
closed = 1;
nodes = (
"438 368 OFFCURVE",
"463 385 OFFCURVE",
"463 422 CURVE SMOOTH",
"463 460 OFFCURVE",
"438 476 OFFCURVE",
"409 476 CURVE SMOOTH",
"377 476 OFFCURVE",
"354 460 OFFCURVE",
"354 422 CURVE SMOOTH",
"354 385 OFFCURVE",
"377 368 OFFCURVE",
"409 368 CURVE SMOOTH"
);
},
{
closed = 1;
nodes = (
"352 504 OFFCURVE",
"377 521 OFFCURVE",
"377 558 CURVE SMOOTH",
"377 596 OFFCURVE",
"352 612 OFFCURVE",
"323 612 CURVE SMOOTH",
"291 612 OFFCURVE",
"268 596 OFFCURVE",
"268 558 CURVE SMOOTH",
"268 521 OFFCURVE",
"291 504 OFFCURVE",
"323 504 CURVE SMOOTH"
);
}
);
width = 643;
}
);
unicode = 102FA;
},
{
glyphname = u102FB;
lastChange = "2017-09-06 19:51:29 +0000";
layers = (
{
layerId = UUID0;
paths = (
{
closed = 1;
nodes = (
"288 0 LINE SMOOTH",
"342 0 OFFCURVE",
"408 6 OFFCURVE",
"465 25 CURVE",
"465 98 LINE",
"414 78 OFFCURVE",
"348 70 OFFCURVE",
"294 70 CURVE SMOOTH",
"175 70 LINE SMOOTH",
"144 70 OFFCURVE",
"132 72 OFFCURVE",
"132 80 CURVE SMOOTH",
"132 92 OFFCURVE",
"151 106 OFFCURVE",
"189 140 CURVE SMOOTH",
"435 361 LINE",
"383 415 LINE",
"371 404 LINE SMOOTH",
"328 364 OFFCURVE",
"256 358 OFFCURVE",
"220 358 CURVE SMOOTH",
"165 358 OFFCURVE",
"122 379 OFFCURVE",
"101 415 CURVE",
"35 386 LINE",
"57 327 OFFCURVE",
"120 288 OFFCURVE",
"199 288 CURVE SMOOTH",
"217 288 OFFCURVE",
"234 289 OFFCURVE",
"250 292 CURVE",
"125 180 LINE SMOOTH",
"59 121 OFFCURVE",
"37 85 OFFCURVE",
"37 52 CURVE SMOOTH",
"37 13 OFFCURVE",
"85 0 OFFCURVE",
"157 0 CURVE SMOOTH"
);
}
);
width = 512;
}
);
unicode = 102FB;
},
{
glyphname = uni2010;
lastChange = "2017-09-06 19:51:29 +0000";
layers = (
{
layerId = UUID0;
paths = (
{
closed = 1;
nodes = (
"282 229 LINE",
"282 307 LINE",
"40 307 LINE",
"40 229 LINE"
);
}
);
width = 322;
}
);
unicode = 2010;
},
{
glyphname = uni25CC;
lastChange = "2017-09-06 19:51:29 +0000";
layers = (
{
layerId = UUID0;
paths = (
{
closed = 1;
nodes = (
"616 592 OFFCURVE",
"605 604 OFFCURVE",
"584 604 CURVE SMOOTH",
"561 604 OFFCURVE",
"549 592 OFFCURVE",
"549 570 CURVE SMOOTH",
"549 547 OFFCURVE",
"561 536 OFFCURVE",
"584 536 CURVE SMOOTH",
"605 536 OFFCURVE",
"616 547 OFFCURVE",
"616 570 CURVE SMOOTH"
);
},
{
closed = 1;
nodes = (
"517 659 OFFCURVE",
"506 670 OFFCURVE",
"484 670 CURVE SMOOTH",
"461 670 OFFCURVE",
"449 659 OFFCURVE",
"449 636 CURVE SMOOTH",
"449 614 OFFCURVE",
"461 603 OFFCURVE",
"484 603 CURVE SMOOTH",
"506 603 OFFCURVE",
"517 614 OFFCURVE",
"517 636 CURVE SMOOTH"
);
},
{
closed = 1;
nodes = (
"683 492 OFFCURVE",
"672 503 OFFCURVE",
"650 503 CURVE SMOOTH",
"627 503 OFFCURVE",
"615 492 OFFCURVE",
"615 470 CURVE SMOOTH",
"615 447 OFFCURVE",
"626 436 OFFCURVE",
"648 436 CURVE SMOOTH",
"671 436 OFFCURVE",
"683 447 OFFCURVE",
"683 470 CURVE SMOOTH"
);
},
{
closed = 1;
nodes = (
"707 375 OFFCURVE",
"696 387 OFFCURVE",
"675 387 CURVE SMOOTH",
"651 387 OFFCURVE",
"640 375 OFFCURVE",
"640 353 CURVE SMOOTH",
"640 331 OFFCURVE",
"651 319 OFFCURVE",
"675 319 CURVE SMOOTH",
"696 319 OFFCURVE",
"707 331 OFFCURVE",
"707 353 CURVE SMOOTH"
);
},
{
closed = 1;
nodes = (
"399 683 OFFCURVE",
"388 694 OFFCURVE",
"365 694 CURVE SMOOTH",
"343 694 OFFCURVE",
"332 683 OFFCURVE",
"332 661 CURVE SMOOTH",
"332 638 OFFCURVE",
"343 626 OFFCURVE",
"365 626 CURVE SMOOTH",
"388 626 OFFCURVE",
"399 638 OFFCURVE",
"399 661 CURVE SMOOTH"
);
},
{
closed = 1;
nodes = (
"283 659 OFFCURVE",
"271 670 OFFCURVE",
"248 670 CURVE SMOOTH",
"226 670 OFFCURVE",
"215 659 OFFCURVE",
"215 636 CURVE SMOOTH",
"215 614 OFFCURVE",
"226 603 OFFCURVE",
"248 603 CURVE SMOOTH",
"271 603 OFFCURVE",
"283 614 OFFCURVE",
"283 636 CURVE SMOOTH"
);
},
{
closed = 1;
nodes = (
"683 259 OFFCURVE",
"671 270 OFFCURVE",
"648 270 CURVE SMOOTH",
"626 270 OFFCURVE",
"615 259 OFFCURVE",
"615 236 CURVE SMOOTH",
"615 214 OFFCURVE",
"626 203 OFFCURVE",
"648 203 CURVE SMOOTH",
"671 203 OFFCURVE",
"683 214 OFFCURVE",
"683 236 CURVE SMOOTH"
);
},
{
closed = 1;
nodes = (
"183 592 OFFCURVE",
"172 604 OFFCURVE",
"149 604 CURVE SMOOTH",
"127 604 OFFCURVE",
"116 592 OFFCURVE",
"116 568 CURVE SMOOTH",
"116 547 OFFCURVE",
"127 536 OFFCURVE",
"149 536 CURVE SMOOTH",
"172 536 OFFCURVE",
"183 547 OFFCURVE",
"183 570 CURVE SMOOTH"
);
},
{
closed = 1;
nodes = (
"616 158 OFFCURVE",
"605 169 OFFCURVE",
"584 169 CURVE SMOOTH",
"561 169 OFFCURVE",
"549 158 OFFCURVE",
"549 135 CURVE SMOOTH",
"549 113 OFFCURVE",
"561 102 OFFCURVE",
"584 102 CURVE SMOOTH",
"605 102 OFFCURVE",
"616 113 OFFCURVE",
"616 135 CURVE SMOOTH"
);
},
{
closed = 1;
nodes = (
"517 92 OFFCURVE",
"506 104 OFFCURVE",
"484 104 CURVE SMOOTH",
"461 104 OFFCURVE",
"449 92 OFFCURVE",
"449 69 CURVE SMOOTH",
"449 47 OFFCURVE",
"461 37 OFFCURVE",
"484 37 CURVE SMOOTH",
"506 37 OFFCURVE",
"517 47 OFFCURVE",
"517 69 CURVE SMOOTH"
);
},
{
closed = 1;
nodes = (
"116 492 OFFCURVE",
"105 503 OFFCURVE",
"83 503 CURVE SMOOTH",
"60 503 OFFCURVE",
"49 492 OFFCURVE",
"49 470 CURVE SMOOTH",
"49 447 OFFCURVE",
"61 436 OFFCURVE",
"84 436 CURVE SMOOTH",
"105 436 OFFCURVE",
"116 447 OFFCURVE",
"116 470 CURVE SMOOTH"
);
},
{
closed = 1;
nodes = (
"92 375 OFFCURVE",
"81 387 OFFCURVE",
"60 387 CURVE SMOOTH",
"36 387 OFFCURVE",
"24 375 OFFCURVE",
"24 353 CURVE SMOOTH",
"24 331 OFFCURVE",
"36 319 OFFCURVE",
"60 319 CURVE SMOOTH",
"81 319 OFFCURVE",
"92 331 OFFCURVE",
"92 353 CURVE SMOOTH"
);
},
{
closed = 1;
nodes = (
"399 68 OFFCURVE",
"388 80 OFFCURVE",
"365 80 CURVE SMOOTH",
"343 80 OFFCURVE",
"332 68 OFFCURVE",
"332 46 CURVE SMOOTH",
"332 23 OFFCURVE",
"343 12 OFFCURVE",
"365 12 CURVE SMOOTH",
"388 12 OFFCURVE",
"399 23 OFFCURVE",
"399 46 CURVE SMOOTH"
);
},
{
closed = 1;
nodes = (
"116 259 OFFCURVE",
"105 270 OFFCURVE",
"83 270 CURVE SMOOTH",
"60 270 OFFCURVE",
"49 259 OFFCURVE",
"49 236 CURVE SMOOTH",
"49 214 OFFCURVE",
"60 203 OFFCURVE",
"83 203 CURVE SMOOTH",
"105 203 OFFCURVE",
"116 214 OFFCURVE",
"116 236 CURVE SMOOTH"
);
},
{
closed = 1;
nodes = (
"283 93 OFFCURVE",
"271 104 OFFCURVE",
"248 104 CURVE SMOOTH",
"226 104 OFFCURVE",
"215 92 OFFCURVE",
"215 69 CURVE SMOOTH",
"215 47 OFFCURVE",
"226 37 OFFCURVE",
"248 37 CURVE SMOOTH",
"271 37 OFFCURVE",
"283 48 OFFCURVE",
"283 71 CURVE SMOOTH"
);
},
{
closed = 1;
nodes = (
"183 158 OFFCURVE",
"172 169 OFFCURVE",
"149 169 CURVE SMOOTH",
"127 169 OFFCURVE",
"116 158 OFFCURVE",
"116 135 CURVE SMOOTH",
"116 113 OFFCURVE",
"127 102 OFFCURVE",
"149 102 CURVE SMOOTH",
"172 102 OFFCURVE",
"183 113 OFFCURVE",
"183 135 CURVE SMOOTH"
);
}
);
width = 731;
}
);
note = uni25CC;
unicode = 25CC;
},
{
glyphname = uni0305_small;
lastChange = "2017-09-06 19:51:29 +0000";
layers = (
{
layerId = UUID0;
paths = (
{
closed = 1;
nodes = (
"166 831 LINE",
"166 877 LINE",
"-166 877 LINE",
"-166 831 LINE"
);
}
);
width = 0;
}
);
note = uni0305_small;
},
{
glyphname = uni0305_medium;
lastChange = "2017-09-06 19:51:29 +0000";
layers = (
{
layerId = UUID0;
paths = (
{
closed = 1;
nodes = (
"264 831 LINE",
"264 877 LINE",
"-264 877 LINE",
"-264 831 LINE"
);
}
);
width = 0;
}
);
note = uni0305_medium;
},
{
glyphname = uni0305_large;
lastChange = "2017-09-06 19:51:29 +0000";
layers = (
{
layerId = UUID0;
paths = (
{
closed = 1;
nodes = (
"376 831 LINE",
"376 877 LINE",
"-376 877 LINE",
"-376 831 LINE"
);
}
);
width = 0;
}
);
note = uni0305_large;
},
{
glyphname = uni0305_xlarge;
lastChange = "2017-09-06 19:51:29 +0000";
layers = (
{
layerId = UUID0;
paths = (
{
closed = 1;
nodes = (
"425 831 LINE",
"425 877 LINE",
"-425 877 LINE",
"-425 831 LINE"
);
}
);
width = 0;
}
);
note = uni0305_xlarge;
},
{
glyphname = uni0305_xxlarge;
lastChange = "2017-09-06 19:51:29 +0000";
layers = (
{
layerId = UUID0;
paths = (
{
closed = 1;
nodes = (
"537 831 LINE",
"537 877 LINE",
"-537 877 LINE",
"-537 831 LINE"
);
}
);
width = 0;
}
);
note = uni0305_xxlarge;
},
{
glyphname = uni0305_small.cap;
lastChange = "2017-09-06 19:51:29 +0000";
layers = (
{
layerId = UUID0;
paths = (
{
closed = 1;
nodes = (
"166 831 LINE",
"166 877 LINE",
"-166 877 LINE",
"-166 831 LINE"
);
}
);
width = 0;
}
);
note = uni0305_small.cap;
},
{
glyphname = uni0305_medium.cap;
lastChange = "2017-09-06 19:51:29 +0000";
layers = (
{
layerId = UUID0;
paths = (
{
closed = 1;
nodes = (
"264 831 LINE",
"264 877 LINE",
"-264 877 LINE",
"-264 831 LINE"
);
}
);
width = 0;
}
);
note = uni0305_medium.cap;
},
{
glyphname = uni0305_large.cap;
lastChange = "2017-09-06 19:51:29 +0000";
layers = (
{
layerId = UUID0;
paths = (
{
closed = 1;
nodes = (
"376 831 LINE",
"376 877 LINE",
"-376 877 LINE",
"-376 831 LINE"
);
}
);
width = 0;
}
);
note = uni0305_large.cap;
},
{
glyphname = uni0305_xlarge.cap;
lastChange = "2017-09-06 19:51:29 +0000";
layers = (
{
layerId = UUID0;
paths = (
{
closed = 1;
nodes = (
"425 831 LINE",
"425 877 LINE",
"-425 877 LINE",
"-425 831 LINE"
);
}
);
width = 0;
}
);
note = uni0305_xlarge.cap;
},
{
glyphname = uni0305_xxlarge.cap;
lastChange = "2017-09-06 19:51:29 +0000";
layers = (
{
layerId = UUID0;
paths = (
{
closed = 1;
nodes = (
"537 831 LINE",
"537 877 LINE",
"-537 877 LINE",
"-537 831 LINE"
);
}
);
width = 0;
}
);
note = uni0305_xxlarge.cap;
},
{
glyphname = uni0305.cap;
lastChange = "2017-09-06 19:51:29 +0000";
layers = (
{
layerId = UUID0;
paths = (
{
closed = 1;
nodes = (
"313 831 LINE",
"313 877 LINE",
"-313 877 LINE",
"-313 831 LINE"
);
}
);
width = 0;
}
);
note = uni0305.cap;
},
{
glyphname = uni033F.cap;
lastChange = "2017-09-06 19:51:29 +0000";
layers = (
{
layerId = UUID0;
paths = (
{
closed = 1;
nodes = (
"313 831 LINE",
"313 868 LINE",
"-313 868 LINE",
"-313 831 LINE"
);
},
{
closed = 1;
nodes = (
"313 914 LINE",
"313 951 LINE",
"-313 951 LINE",
"-313 914 LINE"
);
}
);
width = 0;
}
);
note = uni033F.cap;
},
{
glyphname = uniFE26.cap;
lastChange = "2017-09-06 19:51:29 +0000";
layers = (
{
layerId = UUID0;
paths = (
{
closed = 1;
nodes = (
"313 831 LINE",
"313 902 LINE",
"-313 902 LINE",
"-313 831 LINE"
);
}
);
width = 0;
}
);
note = uniFE26.cap;
},
{
glyphname = uni033F.large.cap;
lastChange = "2017-09-06 19:51:29 +0000";
layers = (
{
layerId = UUID0;
paths = (
{
closed = 1;
nodes = (
"376 831 LINE",
"376 868 LINE",
"-376 868 LINE",
"-376 831 LINE"
);
},
{
closed = 1;
nodes = (
"376 914 LINE",
"376 951 LINE",
"-376 951 LINE",
"-376 914 LINE"
);
}
);
width = 0;
}
);
note = uni033F.large.cap;
},
{
glyphname = uniFE26.large.cap;
lastChange = "2017-09-06 19:51:29 +0000";
layers = (
{
layerId = UUID0;
paths = (
{
closed = 1;
nodes = (
"376 831 LINE",
"376 902 LINE",
"-376 902 LINE",
"-376 831 LINE"
);
}
);
width = 0;
}
);
note = uniFE26.large.cap;
},
{
glyphname = uniFE24.cap;
lastChange = "2017-09-06 19:51:29 +0000";
layers = (
{
layerId = UUID0;
paths = (
{
closed = 1;
nodes = (
"0 831 LINE",
"0 902 LINE",
"-400 902 LINE",
"-400 831 LINE"
);
}
);
width = 0;
}
);
note = uniFE24.cap;
},
{
glyphname = uniFE25.cap;
lastChange = "2017-09-06 19:51:29 +0000";
layers = (
{
layerId = UUID0;
paths = (
{
closed = 1;
nodes = (
"400 831 LINE",
"400 902 LINE",
"0 902 LINE",
"0 831 LINE"
);
}
);
width = 0;
}
);
note = uniFE25.cap;
},
{
glyphname = uni033F.medium.cap;
lastChange = "2017-09-06 19:51:29 +0000";
layers = (
{
layerId = UUID0;
paths = (
{
closed = 1;
nodes = (
"264 831 LINE",
"264 868 LINE",
"-264 868 LINE",
"-264 831 LINE"
);
},
{
closed = 1;
nodes = (
"264 914 LINE",
"264 951 LINE",
"-264 951 LINE",
"-264 914 LINE"
);
}
);
width = 0;
}
);
note = uni033F.medium.cap;
},
{
glyphname = uniFE26.medium.cap;
lastChange = "2017-09-06 19:51:29 +0000";
layers = (
{
layerId = UUID0;
paths = (
{
closed = 1;
nodes = (
"264 831 LINE",
"264 902 LINE",
"-264 902 LINE",
"-264 831 LINE"
);
}
);
width = 0;
}
);
note = uniFE26.medium.cap;
},
{
glyphname = uni033F.small.cap;
lastChange = "2017-09-06 19:51:29 +0000";
layers = (
{
layerId = UUID0;
paths = (
{
closed = 1;
nodes = (
"166 831 LINE",
"166 868 LINE",
"-166 868 LINE",
"-166 831 LINE"
);
},
{
closed = 1;
nodes = (
"166 914 LINE",
"166 951 LINE",
"-166 951 LINE",
"-166 914 LINE"
);
}
);
width = 0;
}
);
note = uni033F.small.cap;
},
{
glyphname = uniFE26.small.cap;
lastChange = "2017-09-06 19:51:29 +0000";
layers = (
{
layerId = UUID0;
paths = (
{
closed = 1;
nodes = (
"166 831 LINE",
"166 902 LINE",
"-166 902 LINE",
"-166 831 LINE"
);
}
);
width = 0;
}
);
note = uniFE26.small.cap;
},
{
glyphname = uni033F.xlarge.cap;
lastChange = "2017-09-06 19:51:29 +0000";
layers = (
{
layerId = UUID0;
paths = (
{
closed = 1;
nodes = (
"425 831 LINE",
"425 868 LINE",
"-425 868 LINE",
"-425 831 LINE"
);
},
{
closed = 1;
nodes = (
"425 914 LINE",
"425 951 LINE",
"-425 951 LINE",
"-425 914 LINE"
);
}
);
width = 0;
}
);
note = uni033F.xlarge.cap;
},
{
glyphname = uniFE26.xlarge.cap;
lastChange = "2017-09-06 19:51:29 +0000";
layers = (
{
layerId = UUID0;
paths = (
{
closed = 1;
nodes = (
"425 831 LINE",
"425 902 LINE",
"-425 902 LINE",
"-425 831 LINE"
);
}
);
width = 0;
}
);
note = uniFE26.xlarge.cap;
},
{
glyphname = uni033F.xxlarge.cap;
lastChange = "2017-09-06 19:51:29 +0000";
layers = (
{
layerId = UUID0;
paths = (
{
closed = 1;
nodes = (
"537 831 LINE",
"537 868 LINE",
"-537 868 LINE",
"-537 831 LINE"
);
},
{
closed = 1;
nodes = (
"537 914 LINE",
"537 951 LINE",
"-537 951 LINE",
"-537 914 LINE"
);
}
);
width = 0;
}
);
note = uni033F.xxlarge.cap;
},
{
glyphname = uniFE26.xxlarge.cap;
lastChange = "2017-09-06 19:51:29 +0000";
layers = (
{
layerId = UUID0;
paths = (
{
closed = 1;
nodes = (
"537 831 LINE",
"537 902 LINE",
"-537 902 LINE",
"-537 831 LINE"
);
}
);
width = 0;
}
);
note = uniFE26.xxlarge.cap;
},
{
glyphname = uni033F.large;
lastChange = "2017-09-06 19:51:29 +0000";
layers = (
{
layerId = UUID0;
paths = (
{
closed = 1;
nodes = (
"376 606 LINE",
"376 643 LINE",
"-376 643 LINE",
"-376 606 LINE"
);
},
{
closed = 1;
nodes = (
"376 689 LINE",
"376 726 LINE",
"-376 726 LINE",
"-376 689 LINE"
);
}
);
width = 0;
}
);
note = uni033F.large;
},
{
glyphname = uniFE26.large;
lastChange = "2017-09-06 19:51:29 +0000";
layers = (
{
layerId = UUID0;
paths = (
{
closed = 1;
nodes = (
"376 606 LINE",
"376 677 LINE",
"-376 677 LINE",
"-376 606 LINE"
);
}
);
width = 0;
}
);
note = uniFE26.large;
},
{
glyphname = uni033F.medium;
lastChange = "2017-09-06 19:51:29 +0000";
layers = (
{
layerId = UUID0;
paths = (
{
closed = 1;
nodes = (
"264 606 LINE",
"264 643 LINE",
"-264 643 LINE",
"-264 606 LINE"
);
},
{
closed = 1;
nodes = (
"264 689 LINE",
"264 726 LINE",
"-264 726 LINE",
"-264 689 LINE"
);
}
);
width = 0;
}
);
note = uni033F.medium;
},
{
glyphname = uniFE26.medium;
lastChange = "2017-09-06 19:51:29 +0000";
layers = (
{
layerId = UUID0;
paths = (
{
closed = 1;
nodes = (
"264 606 LINE",
"264 677 LINE",
"-264 677 LINE",
"-264 606 LINE"
);
}
);
width = 0;
}
);
note = uniFE26.medium;
},
{
glyphname = uni033F.small;
lastChange = "2017-09-06 19:51:29 +0000";
layers = (
{
layerId = UUID0;
paths = (
{
closed = 1;
nodes = (
"166 606 LINE",
"166 643 LINE",
"-166 643 LINE",
"-166 606 LINE"
);
},
{
closed = 1;
nodes = (
"166 689 LINE",
"166 726 LINE",
"-166 726 LINE",
"-166 689 LINE"
);
}
);
width = 0;
}
);
note = uni033F.small;
},
{
glyphname = uniFE26.small;
lastChange = "2017-09-06 19:51:29 +0000";
layers = (
{
layerId = UUID0;
paths = (
{
closed = 1;
nodes = (
"166 606 LINE",
"166 677 LINE",
"-166 677 LINE",
"-166 606 LINE"
);
}
);
width = 0;
}
);
note = uniFE26.small;
},
{
glyphname = uni033F.xlarge;
lastChange = "2017-09-06 19:51:29 +0000";
layers = (
{
layerId = UUID0;
paths = (
{
closed = 1;
nodes = (
"425 606 LINE",
"425 643 LINE",
"-425 643 LINE",
"-425 606 LINE"
);
},
{
closed = 1;
nodes = (
"425 689 LINE",
"425 726 LINE",
"-425 726 LINE",
"-425 689 LINE"
);
}
);
width = 0;
}
);
note = uni033F.xlarge;
},
{
glyphname = uniFE26.xlarge;
lastChange = "2017-09-06 19:51:29 +0000";
layers = (
{
layerId = UUID0;
paths = (
{
closed = 1;
nodes = (
"425 606 LINE",
"425 677 LINE",
"-425 677 LINE",
"-425 606 LINE"
);
}
);
width = 0;
}
);
note = uniFE26.xlarge;
},
{
glyphname = uni033F.xxlarge;
lastChange = "2017-09-06 19:51:29 +0000";
layers = (
{
layerId = UUID0;
paths = (
{
closed = 1;
nodes = (
"537 606 LINE",
"537 643 LINE",
"-537 643 LINE",
"-537 606 LINE"
);
},
{
closed = 1;
nodes = (
"537 689 LINE",
"537 726 LINE",
"-537 726 LINE",
"-537 689 LINE"
);
}
);
width = 0;
}
);
note = uni033F.xxlarge;
},
{
glyphname = uniFE26.xxlarge;
lastChange = "2017-09-06 19:51:29 +0000";
layers = (
{
layerId = UUID0;
paths = (
{
closed = 1;
nodes = (
"537 606 LINE",
"537 677 LINE",
"-537 677 LINE",
"-537 606 LINE"
);
}
